SplineFontDB: 3.0
FontName: CrimsonText-Roman
FullName: Crimson Text
FamilyName: Crimson Text
Weight: Roman
Copyright: Copyright (c) 2010, Sebastian Kosch (sebastian@aldusleaf.org),\nwith Reserved Font Name "Crimson Text".\nThis Font Software is licensed under the SIL Open Font License, Version 1.1.\nThis license is available with a FAQ at: http://scripts.sil.org/OFL
Version: 0.13
ItalicAngle: 0
UnderlinePosition: -112
UnderlineWidth: 47
Ascent: 717
Descent: 307
LayerCount: 2
Layer: 0 0 "Back"  1
Layer: 1 0 "Fore"  0
XUID: [1021 85 519305545 3289177]
FSType: 0
OS2Version: 3
OS2_WeightWidthSlopeOnly: 0
OS2_UseTypoMetrics: 1
CreationTime: 1270926789
ModificationTime: 1280355740
PfmFamily: 17
TTFWeight: 400
TTFWidth: 5
LineGap: 92
VLineGap: 0
Panose: 2 0 5 3 0 0 0 0 0 0
OS2TypoAscent: 0
OS2TypoAOffset: 1
OS2TypoDescent: 0
OS2TypoDOffset: 1
OS2TypoLinegap: 307
OS2WinAscent: 0
OS2WinAOffset: 1
OS2WinDescent: 0
OS2WinDOffset: 1
HheadAscent: 0
HheadAOffset: 1
HheadDescent: 0
HheadDOffset: 1
OS2SubXSize: 666
OS2SubYSize: 716
OS2SubXOff: 0
OS2SubYOff: 143
OS2SupXSize: 666
OS2SupYSize: 716
OS2SupXOff: 0
OS2SupYOff: 490
OS2StrikeYSize: 50
OS2StrikeYPos: 264
OS2FamilyClass: 258
OS2Vendor: 'PfEd'
OS2CodePages: 20000001.00000000
OS2UnicodeRanges: 80000043.40000062.00000000.00000000
Lookup: 1 0 0 "Single Calts"  {"Single Calts-1"  } []
Lookup: 5 0 0 "'calt' Contextual Alternates lookup 6"  {"'calt' Contextual Alternates lookup 6-1"  } ['calt' ('DFLT' <'dflt' > 'grek' <'dflt' > 'latn' <'dflt' > ) ]
Lookup: 1 0 0 "'smcp' Lowercase to Small Capitals in Greek lookup 0"  {"'smcp' Lowercase to Small Capitals in Greek lookup 0 subtable"  } ['smcp' ('DFLT' <'dflt' > 'latn' <'dflt' > ) ]
Lookup: 1 0 0 "'c2sc' Capitals to Small Capitals in Greek lookup 0"  {"'c2sc' Capitals to Small Capitals in Greek lookup 0 subtable"  } ['c2sc' ('DFLT' <'dflt' > 'latn' <'dflt' > ) ]

StartChar: exclam
Encoding: 33 33 1
Width: 165
GlyphClass: 2
Flags: W
HStem: -14 116<38.2549 127.152> 622 20G<69 100.5>
VStem: 25 115<-1.2356 90.0031> 33 97<321.44 631.133>
LayerCount: 2
Fore
SplineSet
85 642 m 0xd0
 116 642 130 610 130 579 c 0
 130 551 114 441 99 181 c 0
 98 161 95 157 75 148 c 0
 68 145 63 158 62 170 c 0
 43 477 33 528 33 579 c 0
 33 611 53 642 85 642 c 0xd0
25 45 m 0xe0
 25 77 51 102 83 102 c 0
 115 102 140 77 140 45 c 0
 140 13 115 -14 83 -14 c 0
 51 -14 25 13 25 45 c 0xe0
EndSplineSet
Validated: 1
Substitution2: "'smcp' Lowercase to Small Capitals in Greek lookup 0 subtable" exclam.sc
Substitution2: "'smcp' Lowercase to Small Capitals in Greek lookup 0 subtable" exclam.sc
Substitution2: "'c2sc' Capitals to Small Capitals in Greek lookup 0 subtable" exclam.sc
EndChar

StartChar: quotedbl
Encoding: 34 34 2
Width: 324
GlyphClass: 2
Flags: W
HStem: 434 264<64.0527 98.6168 227.42 259.623>
VStem: 30 99<522.226 678.189> 194 98<522.226 679.379>
LayerCount: 2
Fore
SplineSet
85 698 m 2
 99 698 l 2
 115 698 129 692 129 633 c 0
 129 577 104 516 98 449 c 0
 97 439 89 434 82 434 c 0
 74 434 65 439 64 447 c 0
 55 537 30 594 30 635 c 0
 30 653 59 698 85 698 c 2
248 698 m 2
 263 698 l 2
 279 698 292 692 292 633 c 0
 292 577 265 516 259 449 c 0
 258 439 250 434 243 434 c 0
 236 434 229 439 228 447 c 0
 219 537 194 594 194 635 c 0
 194 653 222 698 248 698 c 2
EndSplineSet
Validated: 1
Substitution2: "'smcp' Lowercase to Small Capitals in Greek lookup 0 subtable" quotedbl.sc
Substitution2: "'smcp' Lowercase to Small Capitals in Greek lookup 0 subtable" quotedbl.sc
Substitution2: "'c2sc' Capitals to Small Capitals in Greek lookup 0 subtable" quotedbl.sc
EndChar

StartChar: numbersign
Encoding: 35 35 3
Width: 475
GlyphClass: 2
Flags: W
HStem: 175 56<35.0959 119 185 270 336 442.493> 317 57<35.0959 140 207 292 358 442.215>
LayerCount: 2
Fore
SplineSet
304 24 m 1
 304 24 307 15 274 15 c 2
 261 15 l 2
 247 15 248 24 248 24 c 1
 270 175 l 1
 176 175 l 1
 154 24 l 2
 153 23 156 15 123 15 c 2
 110 15 l 2
 96 15 96 24 96 24 c 1
 119 175 l 1
 33 175 l 1
 33 175 27 175 27 185 c 0
 27 189 28 202 35 226 c 0
 37 232 42 231 42 231 c 1
 128 231 l 1
 140 317 l 1
 33 317 l 1
 33 317 27 318 27 328 c 0
 27 332 28 345 35 369 c 0
 37 375 42 374 42 374 c 1
 149 374 l 1
 173 530 l 2
 174 531 172 539 220 539 c 0
 234 539 230 530 230 530 c 1
 207 374 l 1
 301 374 l 1
 325 530 l 2
 326 531 324 539 372 539 c 0
 386 539 382 530 382 530 c 1
 358 374 l 1
 440 374 l 1
 440 374 447 377 447 367 c 0
 447 359 443 340 438 324 c 0
 436 318 432 317 432 317 c 1
 349 317 l 1
 336 231 l 1
 440 231 l 1
 440 231 447 234 447 224 c 0
 447 216 443 197 438 181 c 0
 436 175 432 175 432 175 c 1
 328 175 l 1
 304 24 l 1
280 231 m 1
 292 317 l 1
 198 317 l 1
 185 231 l 1
 280 231 l 1
EndSplineSet
Validated: 1
Substitution2: "'smcp' Lowercase to Small Capitals in Greek lookup 0 subtable" numbersign.sc
Substitution2: "'smcp' Lowercase to Small Capitals in Greek lookup 0 subtable" numbersign.sc
Substitution2: "'c2sc' Capitals to Small Capitals in Greek lookup 0 subtable" numbersign.sc
EndChar

StartChar: dollar
Encoding: 36 36 4
Width: 451
GlyphClass: 2
Flags: W
HStem: -8 39<203 293.054> 602 42<144.948 251.579> 674 20G<271.5 295>
VStem: 25 40<114.228 173.894> 35 76<439.281 552.445> 342 83<88.5059 208.31> 348 33<477.308 530.97>
LayerCount: 2
Fore
SplineSet
256 353 m 1xea
 322 314 425 265 425 170 c 0
 425 64 327 -8 221 -8 c 0
 212 -8 204 -7 196 -7 c 1
 187 -59 l 1
 187 -59 185 -63 173 -63 c 0
 151 -63 143 -49 143 -49 c 2
 152 -3 l 1
 121 2 92 8 53 15 c 1
 40 50 27 124 25 166 c 1
 25 171 35 174 43 174 c 0
 52 174 62 169 65 166 c 1xf4
 76 125 98 67 159 42 c 1
 200 286 l 1
 126 327 35 377 35 473 c 0
 35 572 126 644 225 644 c 0
 238 644 250 643 260 642 c 1
 267 689 l 1
 267 689 266 694 277 694 c 2
 286 694 l 1
 304 693 312 683 312 683 c 1
 303 635 l 1
 321 631 346 625 370 621 c 1
 375 580 381 542 381 484 c 1
 381 476 378 476 374 476 c 0
 364 477 350 479 348 487 c 0
 343 519 323 552 293 575 c 1
 256 353 l 1xea
241 264 m 1
 203 32 l 1
 210 31 216 31 223 31 c 0
 283 31 342 67 342 141 c 0
 342 211 296 236 241 264 c 1
215 376 m 1
 252 597 l 1
 242 600 231 602 220 602 c 0
 150 602 111 570 111 505 c 0xe8
 111 439 161 408 215 376 c 1
EndSplineSet
Validated: 1
Substitution2: "'smcp' Lowercase to Small Capitals in Greek lookup 0 subtable" dollar.sc
Substitution2: "'smcp' Lowercase to Small Capitals in Greek lookup 0 subtable" dollar.sc
Substitution2: "'c2sc' Capitals to Small Capitals in Greek lookup 0 subtable" dollar.sc
EndChar

StartChar: percent
Encoding: 37 37 5
Width: 634
GlyphClass: 2
Flags: W
HStem: -7 25<434.434 504.549> 289 24<421.266 490.513> 325 25<146.003 214.1> 621 24<132.377 201.599>
VStem: 23 64<408.045 571.079> 254 66<399.6 570.458> 311 64<76.045 237.871> 542 66<66.3943 238.458>
LayerCount: 2
Fore
SplineSet
169 621 m 0xfd
 110 621 87 555 87 496 c 0
 87 427 129 350 179 350 c 0
 237 350 254 418 254 476 c 0
 254 543 222 621 169 621 c 0xfd
173 645 m 0
 260 645 320 571 320 484 c 0
 320 404 264 325 173 325 c 0
 90 325 23 396 23 484 c 0
 23 573 84 645 173 645 c 0
458 289 m 0
 399 289 375 223 375 164 c 0xfb
 375 95 418 18 468 18 c 0
 526 18 542 86 542 144 c 0
 542 211 511 289 458 289 c 0
462 313 m 0
 549 313 608 239 608 152 c 0
 608 72 553 -7 461 -7 c 0
 378 -7 311 64 311 152 c 0
 311 241 373 313 462 313 c 0
581 624 m 1
 98 0 l 2
 94 -5 77 -12 65 -12 c 0
 51 -12 48 -3 47 -1 c 1
 529 624 l 2
 534 630 543 636 549 636 c 0
 578 636 572 633 581 624 c 1
EndSplineSet
Validated: 1
Substitution2: "'smcp' Lowercase to Small Capitals in Greek lookup 0 subtable" percent.sc
Substitution2: "'smcp' Lowercase to Small Capitals in Greek lookup 0 subtable" percent.sc
Substitution2: "'c2sc' Capitals to Small Capitals in Greek lookup 0 subtable" percent.sc
EndChar

StartChar: ampersand
Encoding: 38 38 6
Width: 661
GlyphClass: 2
Flags: W
HStem: -3 40<184.24 318.376> 0 45<512.583 601.049> 290 22<435.794 478.19 573.233 631.906> 620 36<238.491 338.434>
VStem: 26 86<101.522 240.346> 137 70<447.578 594.463> 372 54<465.365 592.566>
LayerCount: 2
Fore
SplineSet
215 314 m 1xbe
 161 277 112 238 112 182 c 0
 112 84 183 37 270 37 c 0
 310 37 347 61 379 95 c 1
 339 137 288 200 235 283 c 2
 215 314 l 1xbe
636 55 m 0
 636 48 593 0 518 0 c 0x7e
 485 0 461 18 442 35 c 2
 402 72 l 1
 354 30 297 -3 231 -3 c 0xbe
 114 -3 26 45 26 158 c 0
 26 262 108 307 192 350 c 1
 164 398 137 462 137 525 c 0
 137 601 205 656 281 656 c 0
 353 656 426 616 426 544 c 0
 426 454 353 400 277 353 c 1
 319 282 375 210 425 154 c 1
 462 210 482 261 482 271 c 0
 482 291 441 282 437 290 c 1
 434 299 433 310 438 312 c 1
 518 312 l 2
 553 312 581 315 626 317 c 1
 630 315 632 309 632 304 c 0
 632 286 625 289 614 289 c 0
 600 288 568 279 557 272 c 0
 552 269 514 194 453 123 c 1
 498 76 536 45 551 45 c 0x7e
 594 45 604 59 620 75 c 1
 625 70 636 62 636 55 c 0
259 385 m 1
 321 421 372 464 372 541 c 0
 372 586 331 620 286 620 c 0
 243 620 207 581 207 543 c 0
 207 499 227 443 259 385 c 1
EndSplineSet
Validated: 1
Substitution2: "'smcp' Lowercase to Small Capitals in Greek lookup 0 subtable" ampersand.sc
Substitution2: "'smcp' Lowercase to Small Capitals in Greek lookup 0 subtable" ampersand.sc
Substitution2: "'c2sc' Capitals to Small Capitals in Greek lookup 0 subtable" ampersand.sc
EndChar

StartChar: quotesingle
Encoding: 39 39 7
Width: 161
GlyphClass: 2
Flags: W
HStem: 434 264<63.4202 95.6254>
VStem: 30 99<522.226 679.379>
LayerCount: 2
Fore
SplineSet
84 698 m 2
 99 698 l 2
 115 698 129 692 129 633 c 0
 129 577 101 516 95 449 c 0
 94 439 86 434 79 434 c 0
 72 434 65 439 64 447 c 0
 55 537 30 594 30 635 c 0
 30 653 58 698 84 698 c 2
EndSplineSet
Validated: 1
Substitution2: "'smcp' Lowercase to Small Capitals in Greek lookup 0 subtable" quotesingle.sc
Substitution2: "'smcp' Lowercase to Small Capitals in Greek lookup 0 subtable" quotesingle.sc
Substitution2: "'c2sc' Capitals to Small Capitals in Greek lookup 0 subtable" quotesingle.sc
EndChar

StartChar: parenleft
Encoding: 40 40 8
Width: 259
GlyphClass: 2
Flags: W
HStem: -121 26<218.363 232.986> 721 27<215.243 231.732>
VStem: 29 65<138.595 482.541>
LayerCount: 2
Fore
SplineSet
94 305 m 0
 94 95 194 -76 233 -95 c 0
 235 -96 235 -98 235 -100 c 0
 235 -107 228 -121 221 -121 c 0
 166 -121 29 66 29 305 c 0
 29 555 153 748 221 748 c 0
 228 748 234 731 234 724 c 0
 234 722 234 721 233 721 c 0
 171 691 94 508 94 305 c 0
EndSplineSet
Validated: 1
Substitution2: "'smcp' Lowercase to Small Capitals in Greek lookup 0 subtable" parenleft.sc
Substitution2: "'smcp' Lowercase to Small Capitals in Greek lookup 0 subtable" parenleft.sc
Substitution2: "'c2sc' Capitals to Small Capitals in Greek lookup 0 subtable" parenleft.sc
EndChar

StartChar: parenright
Encoding: 41 41 9
Width: 259
GlyphClass: 2
Flags: W
HStem: -121 26<25.0137 39.6373> 721 27<26.2676 42.7572>
VStem: 164 65<138.595 482.541>
LayerCount: 2
Fore
SplineSet
164 305 m 0
 164 508 87 691 25 721 c 0
 24 721 24 722 24 724 c 0
 24 731 30 748 37 748 c 0
 105 748 229 555 229 305 c 0
 229 66 92 -121 37 -121 c 0
 30 -121 23 -107 23 -100 c 0
 23 -98 23 -96 25 -95 c 0
 64 -76 164 95 164 305 c 0
EndSplineSet
Validated: 1
Substitution2: "'smcp' Lowercase to Small Capitals in Greek lookup 0 subtable" parenright.sc
Substitution2: "'c2sc' Capitals to Small Capitals in Greek lookup 0 subtable" parenright.sc
EndChar

StartChar: asterisk
Encoding: 42 42 10
Width: 415
GlyphClass: 2
Flags: W
HStem: 390 61<300.125 383.976> 434 65<28.5068 138.988>
VStem: 120 57<572.979 660.875> 199 25<420.999 450.228>
LayerCount: 2
Back
SplineSet
212 458 m 12xc0
 209 456 207 451 207 451 c 4
 202 412 219 372 211 334 c 4
 206 311 184 295 164 300 c 4
 144 305 129 325 133 349 c 4xa0
 139 386 166 420 174 460 c 4
 175 463 174 466 173 467 c 12
 171 469 164 468 164 468 c 4
 125 461 93 432 55 428 c 4
 31 425 9 442 7 463 c 4
 5 484 21 504 45 507 c 4
 82 512 122 497 162 502 c 4
 165 502 170 504 171 506 c 12
 172 509 169 514 169 514 c 4
 151 548 113 571 97 606 c 4
 87 628 97 654 116 662 c 4
 136 670 159 662 169 640 c 4
 185 606 185 562 202 526 c 4
 203 523 206 520 208 520 c 4
 210 520 215 526 215 526 c 4
 242 554 252 597 280 623 c 4
 298 639 326 639 339 623 c 4
 353 607 351 581 334 564 c 4
 307 538 265 526 236 499 c 4
 233 497 233 494 233 492 c 12
 234 489 239 486 239 486 c 4
 274 469 318 473 352 454 c 4
 373 442 381 416 370 398 c 4
 359 380 334 373 313 384 c 4
 280 402 256 437 221 457 c 4
 218 459 214 459 212 458 c 12xc0
EndSplineSet
Fore
SplineSet
292 613 m 0x70
 309 632 333 640 348 625 c 0
 364 609 361 586 342 569 c 0
 307 537 273 532 245 505 c 0
 245 505 239 496 240 491 c 0
 241 486 245 483 250 481 c 0
 285 465 313 471 357 451 c 0
 380 441 395 421 386 402 c 0
 376 382 353 378 331 390 c 0xb0
 289 413 274 444 240 462 c 0
 240 462 231 467 226 465 c 0
 220 462 221 457 220 452 c 0
 216 414 229 389 224 341 c 0
 221 316 207 296 186 299 c 0
 164 302 153 322 158 347 c 0
 167 394 192 419 199 457 c 0
 199 457 200 466 196 470 c 0
 193 474 188 474 183 473 c 0
 146 465 126 444 78 434 c 0
 54 429 29 436 26 457 c 0
 22 479 39 496 64 499 c 0
 112 505 141 489 180 494 c 0
 180 494 189 497 191 502 c 0
 193 507 192 511 189 516 c 0
 170 549 144 562 120 604 c 0
 108 626 108 650 126 660 c 0
 146 670 166 660 177 637 c 0
 197 593 191 560 208 525 c 0
 208 525 213 515 218 514 c 0
 223 513 227 516 231 520 c 0
 257 548 260 577 292 613 c 0x70
EndSplineSet
Validated: 33
Substitution2: "'smcp' Lowercase to Small Capitals in Greek lookup 0 subtable" asterisk.sc
Substitution2: "'smcp' Lowercase to Small Capitals in Greek lookup 0 subtable" asterisk.sc
Substitution2: "'c2sc' Capitals to Small Capitals in Greek lookup 0 subtable" asterisk.sc
EndChar

StartChar: plus
Encoding: 43 43 11
Width: 532
GlyphClass: 2
Flags: W
HStem: 218 56<34.0959 237 293.001 494.904>
VStem: 237 56<11.3652 217.998 274 476.904>
LayerCount: 2
Fore
SplineSet
293 215 m 2
 293 23 l 1
 293 23 293 13 248 7 c 0
 245 7 244 6 242 6 c 0
 235 6 237 10 237 14 c 2
 237 213 l 2
 237 215 236 218 231 218 c 2
 32 218 l 1
 32 218 26 218 26 228 c 0
 26 232 27 245 34 269 c 0
 36 275 41 274 41 274 c 1
 232 274 l 2
 235 274 237 278 237 280 c 2
 237 470 l 1
 237 470 236 475 242 477 c 0
 266 484 279 485 283 485 c 0
 293 485 293 479 293 479 c 1
 293 279 l 2
 293 276 294 274 297 274 c 2
 497 274 l 2
 501 274 505 276 505 269 c 0
 505 260 501 246 495 224 c 0
 493 218 488 218 488 218 c 1
 297 218 l 2
 294 218 293 217 293 215 c 2
EndSplineSet
Validated: 1
Substitution2: "'smcp' Lowercase to Small Capitals in Greek lookup 0 subtable" plus.sc
Substitution2: "'smcp' Lowercase to Small Capitals in Greek lookup 0 subtable" plus.sc
Substitution2: "'c2sc' Capitals to Small Capitals in Greek lookup 0 subtable" plus.sc
EndChar

StartChar: comma
Encoding: 44 44 12
Width: 210
GlyphClass: 2
Flags: W
HStem: -163 292
VStem: 99 79<-34.3011 73>
LayerCount: 2
Fore
SplineSet
99 -14 m 4
 99 19 69 54 69 76 c 4
 69 107 105 129 141 129 c 4
 149 129 157 128 165 125 c 5
 173 113 178 85 178 61 c 4
 178 51 178 42 176 35 c 4
 158 -49 135 -92 49 -163 c 5
 48 -163 l 6
 43 -163 25 -150 25 -141 c 4
 25 -134 99 -91 99 -14 c 4
EndSplineSet
Validated: 1
EndChar

StartChar: hyphen
Encoding: 45 45 13
Width: 328
GlyphClass: 2
Flags: W
HStem: 199 62<33.6239 188.957> 210 63<142.043 290.493>
VStem: 32 261
LayerCount: 2
Fore
SplineSet
32 210 m 0x60
 32 258 41 261 44 261 c 2
 45 261 l 1xa0
 286 273 l 1
 287 273 l 2
 289 273 293 272 293 264 c 0
 293 215 280 210 280 210 c 1x60
 39 199 l 1xa0
 39 199 32 198 32 210 c 0x60
EndSplineSet
Validated: 1
Substitution2: "'smcp' Lowercase to Small Capitals in Greek lookup 0 subtable" hyphen.sc
Substitution2: "'smcp' Lowercase to Small Capitals in Greek lookup 0 subtable" hyphen.sc
Substitution2: "'c2sc' Capitals to Small Capitals in Greek lookup 0 subtable" hyphen.sc
EndChar

StartChar: period
Encoding: 46 46 14
Width: 178
GlyphClass: 2
Flags: W
HStem: -14 116<44.6616 134.152>
VStem: 31 116<-0.338379 89.1519>
LayerCount: 2
Fore
SplineSet
31 45 m 4
 31 77 58 102 90 102 c 4
 122 102 147 77 147 45 c 4
 147 13 122 -14 90 -14 c 4
 58 -14 31 13 31 45 c 4
EndSplineSet
Validated: 1
EndChar

StartChar: slash
Encoding: 47 47 15
Width: 412
GlyphClass: 2
Flags: W
LayerCount: 2
Fore
SplineSet
389 755 m 5
 93 -12 l 6
 91 -19 76 -35 41 -35 c 4
 26 -35 23 -28 23 -28 c 5
 319 739 l 5
 326 754 338 761 368 761 c 4
 382 761 385 757 389 755 c 5
EndSplineSet
Validated: 1
Substitution2: "'smcp' Lowercase to Small Capitals in Greek lookup 0 subtable" slash.sc
Substitution2: "'smcp' Lowercase to Small Capitals in Greek lookup 0 subtable" slash.sc
Substitution2: "'c2sc' Capitals to Small Capitals in Greek lookup 0 subtable" slash.sc
EndChar

StartChar: zero
Encoding: 48 48 16
Width: 495
GlyphClass: 2
Flags: W
HStem: -3 36<202.861 290.523> 605 36<202.861 292.017>
VStem: 29 90<182.469 456.299> 375 90<181.311 458.219>
LayerCount: 2
Fore
SplineSet
119 320 m 0
 119 163 174 33 248 33 c 0
 322 33 375 168 375 325 c 0
 375 482 322 605 248 605 c 0
 174 605 119 477 119 320 c 0
29 319 m 0
 29 493 127 641 247 641 c 0
 367 641 465 493 465 319 c 0
 465 145 367 -3 247 -3 c 0
 127 -3 29 145 29 319 c 0
EndSplineSet
Validated: 1
Substitution2: "'smcp' Lowercase to Small Capitals in Greek lookup 0 subtable" zero.sc
Substitution2: "'smcp' Lowercase to Small Capitals in Greek lookup 0 subtable" zero.sc
Substitution2: "'c2sc' Capitals to Small Capitals in Greek lookup 0 subtable" zero.sc
Substitution2: "'onum' Oldstyle Figures in Latin lookup 1-1" zero.onum
EndChar

StartChar: one
Encoding: 49 49 17
Width: 288
GlyphClass: 2
Flags: W
HStem: -3 29<49.1875 106.377 208.689 263.916> 622 20G<189.5 196>
VStem: 118 77<36.0652 528.995>
LayerCount: 2
Fore
SplineSet
40 496 m 1
 32 500 22 514 22 521 c 0
 22 523 22 525 24 527 c 0
 127 597 188 642 191 642 c 2
 193 642 l 2
 199 642 204 628 205 623 c 1
 205 623 195 590 195 529 c 2
 195 135 l 2
 195 102 196 73 203 46 c 0
 206 35 252 26 260 26 c 0
 263 26 264 15 264 8 c 0
 264 3 264 -1 263 -3 c 1
 223 -1 198 2 158 2 c 0
 118 2 92 -1 52 -3 c 1
 47 2 47 26 52 26 c 4
 64 26 109 35 112 46 c 0
 117 66 118 84 118 103 c 2
 118 463 l 2
 118 523 113 529 104 529 c 0
 91 529 57 505 40 496 c 1
EndSplineSet
Validated: 1
Substitution2: "'smcp' Lowercase to Small Capitals in Greek lookup 0 subtable" one.sc
Substitution2: "'smcp' Lowercase to Small Capitals in Greek lookup 0 subtable" one.sc
Substitution2: "'c2sc' Capitals to Small Capitals in Greek lookup 0 subtable" one.sc
Substitution2: "'onum' Oldstyle Figures in Latin lookup 1-1" one.onum
EndChar

StartChar: two
Encoding: 50 50 18
Width: 462
GlyphClass: 2
Flags: W
HStem: 0 71<106.862 394.699> 575 67<139.889 259.484>
VStem: 304 87<399.787 530.542> 411 27<98.6984 136.848>
LayerCount: 2
Fore
SplineSet
191 575 m 0
 92 575 70 491 59 491 c 4
 51 491 40 506 40 515 c 4
 40 518 40 521 41 522 c 4
 62 560 118 642 240 642 c 0
 336 642 392 553 391 491 c 0
 389 342 207 173 107 82 c 0
 104 79 105 71 110 71 c 2
 333 71 l 2
 392 71 393 87 411 126 c 0
 413 131 420 137 426 137 c 0
 430 137 434 134 438 129 c 1
 428 78 419 53 411 0 c 1
 274 1 l 1
 274 1 45 0 38 0 c 1
 31 8 25 15 24 33 c 1
 139 160 304 358 304 450 c 0
 304 527 260 575 191 575 c 0
EndSplineSet
Validated: 33
Substitution2: "'smcp' Lowercase to Small Capitals in Greek lookup 0 subtable" two.sc
Substitution2: "'smcp' Lowercase to Small Capitals in Greek lookup 0 subtable" two.sc
Substitution2: "'c2sc' Capitals to Small Capitals in Greek lookup 0 subtable" two.sc
Substitution2: "'onum' Oldstyle Figures in Latin lookup 1-1" two.onum
EndChar

StartChar: three
Encoding: 51 51 19
Width: 437
GlyphClass: 2
Flags: W
HStem: -5 40<127.172 254.273> 312 34<123.334 173.755> 581 61<145.022 251.755>
VStem: 277 75<439.486 556.4> 327 82<121.536 258.896>
LayerCount: 2
Fore
SplineSet
243 642 m 0xf0
 288 642 352 596 352 514 c 0xf0
 352 449 313 412 269 379 c 1
 308 379 409 316 409 211 c 0
 409 70 275 -5 147 -5 c 0
 86 -5 36 20 26 37 c 1
 25 42 25 46 25 50 c 0
 25 79 37 95 61 95 c 0
 104 95 123 35 173 35 c 0
 235 35 327 68 327 186 c 0xe8
 327 265 260 321 206 321 c 0
 166 321 158 318 131 312 c 1
 127 317 123 325 123 333 c 0
 123 337 124 341 126 346 c 1
 199 362 277 420 277 506 c 0
 277 551 235 581 190 581 c 0
 127 581 93 524 76 524 c 0
 66 524 61 549 65 555 c 0
 102 604 165 642 243 642 c 0xf0
EndSplineSet
Validated: 33
Substitution2: "'smcp' Lowercase to Small Capitals in Greek lookup 0 subtable" three.sc
Substitution2: "'smcp' Lowercase to Small Capitals in Greek lookup 0 subtable" three.sc
Substitution2: "'c2sc' Capitals to Small Capitals in Greek lookup 0 subtable" three.sc
Substitution2: "'onum' Oldstyle Figures in Latin lookup 1-1" three.onum
EndChar

StartChar: four
Encoding: 52 52 20
Width: 484
GlyphClass: 2
Flags: W
HStem: -6 21G<318 351.5> 174 60<96.0022 297.95 374.002 456.191> 625 20G<357 364>
VStem: 298 76<-5.07812 173.998 234.048 506.996>
LayerCount: 2
Fore
SplineSet
332 -6 m 4
 304 -6 298 -1 298 8 c 6
 298 169 l 1
 297 174 292 174 289 174 c 2
 40 174 l 1
 33 182 26 204 25 222 c 1
 139 374 237 502 338 633 c 0
 344 641 353 645 361 645 c 0
 367 645 374 643 374 635 c 2
 374 242 l 2
 374 237 377 235 383 234 c 1
 438 234 l 2
 450 234 458 227 458 184 c 0
 458 178 449 174 449 174 c 1
 380 174 l 2
 376 174 374 171 374 166 c 2
 374 2 l 5
 374 2 371 -6 332 -6 c 4
298 241 m 1
 298 498 l 2
 298 501 295 507 293 507 c 1
 293 507 293 506 292 505 c 2
 97 246 l 2
 96 245 96 244 96 243 c 0
 96 239 99 234 103 234 c 2
 289 234 l 1
 292 235 297 235 298 241 c 1
EndSplineSet
Validated: 1
Substitution2: "'smcp' Lowercase to Small Capitals in Greek lookup 0 subtable" four.sc
Substitution2: "'smcp' Lowercase to Small Capitals in Greek lookup 0 subtable" four.sc
Substitution2: "'c2sc' Capitals to Small Capitals in Greek lookup 0 subtable" four.sc
Substitution2: "'onum' Oldstyle Figures in Latin lookup 1-1" four.onum
EndChar

StartChar: five
Encoding: 53 53 21
Width: 430
GlyphClass: 2
Flags: W
HStem: -4 43<121.823 249.925> 340 72<97 243.743> 562 71<116.688 357.466>
VStem: 322 79<128.799 260.281>
LayerCount: 2
Back
SplineSet
160 -5 m 4
 99 -5 49 20 39 37 c 5
 38 42 38 46 38 50 c 4
 38 79 50 95 74 95 c 4
 117 95 136 35 186 35 c 4
EndSplineSet
Fore
SplineSet
102 633 m 0
 173 635 316 632 352 640 c 1
 356 634 360 624 360 606 c 0
 360 589 356 575 349 562 c 1
 119 549 120 564 118 548 c 2
 97 412 l 1
 129 412 154 412 191 412 c 0
 298 412 401 328 401 223 c 0
 401 85 282 -4 130 -4 c 0
 88 -4 42 16 26 36 c 1
 25 46 25 46 25 52 c 0
 25 80 41 94 61 94 c 0
 102 94 124 39 171 39 c 0
 259 39 322 83 322 175 c 0
 322 271 251 340 168 340 c 0
 90 340 70 334 60 334 c 0
 55 334 51 338 45 347 c 1
 92 632 89 633 102 633 c 0
EndSplineSet
Validated: 33
Substitution2: "'smcp' Lowercase to Small Capitals in Greek lookup 0 subtable" five.sc
Substitution2: "'smcp' Lowercase to Small Capitals in Greek lookup 0 subtable" five.sc
Substitution2: "'c2sc' Capitals to Small Capitals in Greek lookup 0 subtable" five.sc
Substitution2: "'onum' Oldstyle Figures in Latin lookup 1-1" five.onum
EndChar

StartChar: six
Encoding: 54 54 22
Width: 442
GlyphClass: 2
Flags: W
HStem: -6 39<169.643 279.022> 318 49<149.992 280.88> 626 20G<267.5 360.5>
VStem: 28 83<102.836 281.916> 331 83<96.4896 265.363>
LayerCount: 2
Fore
SplineSet
111 189 m 5
 111 99 156 33 229 33 c 4
 274 33 331 80 331 170 c 4
 331 255 295 318 204 318 c 4
 166 318 133 289 124 269 c 4
 117 253 112 239 111 189 c 5
222 -6 m 4
 118 -6 28 84 28 192 c 31
 28 410 182 577 353 646 c 5
 368 643 373 636 376 625 c 5
 263 576 166 483 126 338 c 4
 124 330 126 326 130 330 c 4
 145 347 193 367 228 367 c 4
 334 367 414 286 414 188 c 4
 414 76 328 -6 222 -6 c 4
EndSplineSet
Validated: 1
Substitution2: "'smcp' Lowercase to Small Capitals in Greek lookup 0 subtable" six.sc
Substitution2: "'smcp' Lowercase to Small Capitals in Greek lookup 0 subtable" six.sc
Substitution2: "'c2sc' Capitals to Small Capitals in Greek lookup 0 subtable" six.sc
Substitution2: "'onum' Oldstyle Figures in Latin lookup 1-1" six.onum
EndChar

StartChar: seven
Encoding: 55 55 23
Width: 475
GlyphClass: 2
Flags: W
HStem: -11 21G<84 94> 565 74<68.038 375>
VStem: 23 25<504.186 530.116>
LayerCount: 2
Fore
SplineSet
379 639 m 6
 405 639 438 642 444 642 c 4
 450 642 451 638 451 633 c 4
 451 620 441 598 424 566 c 6
 100 -10 l 5
 97 -11 95 -11 93 -11 c 4
 75 -11 60 5 60 18 c 4
 60 21 60 25 62 28 c 6
 375 566 l 5
 290 566 186 565 108 565 c 4
 72 565 55 523 48 503 c 5
 40 502 31 501 23 509 c 5
 27 555 32 582 34 627 c 4
 34 635 43 639 52 639 c 6
 379 639 l 6
EndSplineSet
Validated: 1
Substitution2: "'smcp' Lowercase to Small Capitals in Greek lookup 0 subtable" seven.sc
Substitution2: "'smcp' Lowercase to Small Capitals in Greek lookup 0 subtable" seven.sc
Substitution2: "'c2sc' Capitals to Small Capitals in Greek lookup 0 subtable" seven.sc
Substitution2: "'onum' Oldstyle Figures in Latin lookup 1-1" seven.onum
EndChar

StartChar: eight
Encoding: 56 56 24
Width: 423
GlyphClass: 2
Flags: W
HStem: -9 35<158.885 272.924> 606 38<165.427 265.772>
VStem: 25 83<84.1082 244.105> 49 75<429.12 564.294> 303 76<415.5 568.452> 315 82<85.4386 213.794>
LayerCount: 2
Fore
SplineSet
49 486 m 3xd0
 49 571 121 644 209 644 c 27
 298 644 379 586 379 491 c 3xd8
 379 424 332 373 276 343 c 0
 272 342 272 339 275 337 c 0
 338 291 397 239 397 167 c 0
 397 67 309 -9 209 -9 c 0
 111 -9 25 68 25 165 c 0xe4
 25 250 92 305 143 327 c 0
 146 328 145 331 143 333 c 0
 87 370 49 416 49 486 c 3xd0
124 492 m 3
 124 424 184 391 232 362 c 0
 234 361 236 360 238 360 c 0
 241 360 244 362 247 364 c 0
 298 397 303 442 303 495 c 3
 303 553 270 606 218 606 c 0
 162 606 124 556 124 492 c 3
108 158 m 0xe4
 108 76 156 26 209 26 c 0
 280 26 315 65 315 147 c 0
 315 234 207 292 192 301 c 0
 189 303 185 305 182 305 c 0
 181 305 179 305 178 304 c 0
 119 276 108 231 108 158 c 0xe4
EndSplineSet
Validated: 1
Substitution2: "'smcp' Lowercase to Small Capitals in Greek lookup 0 subtable" eight.sc
Substitution2: "'smcp' Lowercase to Small Capitals in Greek lookup 0 subtable" eight.sc
Substitution2: "'c2sc' Capitals to Small Capitals in Greek lookup 0 subtable" eight.sc
Substitution2: "'onum' Oldstyle Figures in Latin lookup 1-1" eight.onum
EndChar

StartChar: nine
Encoding: 57 57 25
Width: 433
GlyphClass: 2
Flags: W
HStem: -6 21G<76.5 169.5> 273 49<156.199 287.008> 607 39<158.071 267.279>
VStem: 25 81<374.637 537.928> 326 81<366.611 541.136>
LayerCount: 2
Fore
SplineSet
326 451 m 1
 326 541 281 607 208 607 c 0
 163 607 106 560 106 470 c 0
 106 385 142 322 233 322 c 0
 271 322 304 351 313 371 c 0
 320 387 325 401 326 451 c 1
311 302 m 0
 313 310 311 314 307 310 c 0
 292 293 244 273 209 273 c 0
 103 273 25 354 25 452 c 0
 25 552 109 646 215 646 c 0
 319 646 407 561 407 452 c 2
 407 445 l 2
 407 193 255 63 84 -6 c 1
 69 -3 64 4 61 15 c 1
 174 64 271 157 311 302 c 0
EndSplineSet
Validated: 1
Substitution2: "'smcp' Lowercase to Small Capitals in Greek lookup 0 subtable" nine.sc
Substitution2: "'smcp' Lowercase to Small Capitals in Greek lookup 0 subtable" nine.sc
Substitution2: "'c2sc' Capitals to Small Capitals in Greek lookup 0 subtable" nine.sc
Substitution2: "'onum' Oldstyle Figures in Latin lookup 1-1" nine.onum
EndChar

StartChar: colon
Encoding: 58 58 26
Width: 181
GlyphClass: 2
Flags: W
HStem: -14 120<44.7454 136.661> 310 120<44.7454 136.661>
VStem: 31 119<-0.254639 92.2546 324.152 416.661>
LayerCount: 2
Fore
SplineSet
150 371 m 0
 150 338 124 310 91 310 c 0
 58 310 31 338 31 371 c 0
 31 404 58 430 91 430 c 0
 124 430 150 404 150 371 c 0
150 46 m 0
 150 13 124 -14 91 -14 c 0
 58 -14 31 13 31 46 c 0
 31 79 58 106 91 106 c 0
 124 106 150 79 150 46 c 0
EndSplineSet
Validated: 1
EndChar

StartChar: semicolon
Encoding: 59 59 27
Width: 210
GlyphClass: 2
Flags: W
HStem: 310 120<74.1521 166.661>
VStem: 60 120<324.152 416.661> 96 78<-59.5478 87.4361>
LayerCount: 2
Fore
SplineSet
174 39 m 19xa0
 174 11 171 -12 164 -33 c 4
 148 -81 111 -115 51 -165 c 0
 49 -166 46 -167 44 -167 c 0
 33 -167 23 -145 23 -140 c 0
 23 -131 96 -96 96 -14 c 0
 96 36 69 51 69 68 c 0
 69 93 102 124 139 124 c 0
 147 124 152 121 157 117 c 1
 173 102 174 70 174 39 c 19xa0
60 371 m 0xc0
 60 404 88 430 121 430 c 0
 154 430 180 404 180 371 c 0
 180 338 154 310 121 310 c 0
 88 310 60 338 60 371 c 0xc0
EndSplineSet
Validated: 1
EndChar

StartChar: less
Encoding: 60 60 28
Width: 467
GlyphClass: 2
Flags: W
LayerCount: 2
Fore
SplineSet
440 35 m 0
 440 28 430 -15 424 -15 c 0
 423 -15 421 -14 419 -13 c 2
 44 177 l 2
 29 185 26 200 26 217 c 0
 26 228 34 236 44 241 c 2
 413 428 l 2
 415 429 417 430 418 430 c 0
 421 430 428 420 435 383 c 0
 436 377 432 374 432 374 c 1
 106 209 l 1
 437 41 l 1
 437 41 440 40 440 35 c 0
EndSplineSet
Validated: 1
EndChar

StartChar: equal
Encoding: 61 61 29
Width: 533
GlyphClass: 2
Flags: W
HStem: 117 56<42.0959 495.32> 259 56<36.9907 495.32>
LayerCount: 2
Fore
SplineSet
501 168 m 0
 501 159 497 145 491 123 c 0
 489 117 485 117 485 117 c 1
 40 117 l 1
 40 117 33 117 33 127 c 0
 33 131 35 144 42 168 c 0
 44 174 49 173 49 173 c 1
 493 173 l 2
 497 173 501 175 501 168 c 0
33 269 m 1
 33 269 38 315 48 315 c 2
 497 315 l 2
 499 315 501 314 501 310 c 0
 501 301 497 287 491 265 c 0
 489 259 485 259 485 259 c 1
 40 259 l 1
 40 259 33 259 33 269 c 1
EndSplineSet
Validated: 1
Substitution2: "'smcp' Lowercase to Small Capitals in Greek lookup 0 subtable" equal.sc
Substitution2: "'smcp' Lowercase to Small Capitals in Greek lookup 0 subtable" equal.sc
Substitution2: "'c2sc' Capitals to Small Capitals in Greek lookup 0 subtable" equal.sc
EndChar

StartChar: greater
Encoding: 62 62 30
Width: 469
GlyphClass: 2
Flags: W
LayerCount: 2
Fore
SplineSet
33 382 m 0
 33 400 45 430 49 430 c 0
 50 430 52 429 54 428 c 2
 424 241 l 2
 434 236 441 228 441 217 c 0
 441 200 439 185 424 177 c 2
 49 -13 l 2
 47 -14 45 -15 44 -15 c 0
 38 -15 27 27 27 35 c 0
 27 39 30 41 30 41 c 1
 361 209 l 1
 36 374 l 1
 36 374 33 375 33 382 c 0
EndSplineSet
Validated: 1
EndChar

StartChar: question
Encoding: 63 63 31
Width: 310
GlyphClass: 2
Flags: W
HStem: -14 116<38.2549 127.745> 558 84<38.4753 167.039>
VStem: 25 116<-1.2356 90.0031> 63 33<160.081 241.256> 235 50<431.799 535.824>
LayerCount: 2
Fore
SplineSet
78 558 m 4xd8
 64 558 31 565 31 598 c 4
 31 612 33 624 38 632 c 5
 48 637 67 642 88 642 c 4
 154 642 285 574 285 457 c 4
 285 389 259 347 184 304 c 4
 157 288 112 253 106 242 c 4
 97 226 96 218 96 173 c 4
 96 162 89 160 76 160 c 4
 71 160 63 161 63 168 c 4
 63 194 62 235 62 262 c 4
 62 336 111 361 148 385 c 4
 197 416 235 439 235 476 c 4
 235 538 192 565 154 565 c 4
 101 565 104 558 78 558 c 4xd8
25 45 m 0xe8
 25 77 51 102 83 102 c 0
 115 102 141 77 141 45 c 0
 141 13 115 -14 83 -14 c 0
 51 -14 25 13 25 45 c 0xe8
EndSplineSet
Validated: 1
Substitution2: "'smcp' Lowercase to Small Capitals in Greek lookup 0 subtable" question.sc
Substitution2: "'smcp' Lowercase to Small Capitals in Greek lookup 0 subtable" question.sc
Substitution2: "'c2sc' Capitals to Small Capitals in Greek lookup 0 subtable" question.sc
EndChar

StartChar: at
Encoding: 64 64 32
Width: 785
GlyphClass: 2
Flags: W
HStem: -171 45<301.903 490.456> -13 40<544.229 639.34> -7 60<297.7 372.076> 359 51<365.398 481.942> 528 49<302.092 527.153>
VStem: 28 59<84.7869 323.137> 202 78<69.8158 245.56> 461 71<34.6331 90.0483 121.994 184.202> 706 49<107.515 335.991>
LayerCount: 2
Fore
SplineSet
706 214 m 0xdf80
 706 381 593 528 422 528 c 0
 241 528 87 399 87 223 c 0
 87 26 194 -126 445 -126 c 0
 472 -126 513 -105 516 -104 c 1
 516 -104 518 -113 518 -114 c 0
 518 -137 476 -171 390 -171 c 0
 174 -171 28 23 28 185 c 0
 28 432 210 577 433 577 c 0
 633 577 755 391 755 233 c 0
 755 40 651 -13 573 -13 c 0xdf80
 503 -13 461 51 461 92 c 0
 461 94 457 91 456 90 c 0
 439 61 362 -7 311 -7 c 0xbf80
 236 -7 202 73 202 141 c 0
 202 274 299 410 477 410 c 1
 566 401 l 1
 562 375 559 348 559 348 c 1
 534 125 l 2
 533 115 532 105 532 97 c 0
 532 37 559 27 582 27 c 0
 682 27 706 160 706 214 c 0xdf80
482 334 m 0
 482 347 480 359 431 359 c 0
 350 359 280 284 280 143 c 0
 280 73 314 53 339 53 c 0xbf80
 397 53 464 145 466 170 c 2
 481 322 l 1
 481 322 482 328 482 334 c 0
EndSplineSet
Validated: 1
Substitution2: "'smcp' Lowercase to Small Capitals in Greek lookup 0 subtable" at.sc
Substitution2: "'smcp' Lowercase to Small Capitals in Greek lookup 0 subtable" at.sc
Substitution2: "'c2sc' Capitals to Small Capitals in Greek lookup 0 subtable" at.sc
EndChar

StartChar: A
Encoding: 65 65 33
Width: 706
GlyphClass: 2
Flags: W
HStem: -3 29<28.0058 84.1719 181.109 240.234 443.344 495.385 623.161 673.846> 249 48<255 421.999> 643 20G<348 365.5>
LayerCount: 2
Fore
SplineSet
373 660 m 1
 573 132 l 2
 587 95 593 80 602 60 c 0
 612 36 662 26 670 26 c 0
 673 26 674 13 674 7 c 0
 674 2 673 0 672 -3 c 1
 632 -1 606 2 562 2 c 0
 516 2 492 -1 446 -3 c 1
 441 2 442 26 447 26 c 0
 459 26 493 32 498 44 c 0
 499 48 500 54 500 60 c 0
 500 90 486 129 486 129 c 1
 445 242 l 1
 445 242 442 246 439 246 c 0
 413 248 388 249 363 249 c 0
 322 249 281 247 236 244 c 0
 234 244 231 241 231 241 c 1
 188 131 l 1
 176 96 171 75 171 62 c 0
 171 51 174 46 179 42 c 0
 193 31 229 26 237 26 c 0
 242 26 241 3 239 -3 c 1
 199 -1 180 2 136 2 c 0
 90 2 78 -1 32 -3 c 1
 30 -1 28 6 28 12 c 0
 28 18 30 26 32 26 c 0
 44 26 79 32 89 45 c 0
 109 71 122 103 136 139 c 2
 310 586 l 1
 324 625 332 663 364 663 c 0
 367 663 370 661 373 660 c 1
257 299 m 0
 283 298 305 297 328 297 c 0
 359 297 388 298 419 300 c 0
 421 300 422 305 422 305 c 1
 341 526 l 1
 255 303 l 1
 255 303 255 299 257 299 c 0
EndSplineSet
Validated: 1
Substitution2: "'c2sc' Capitals to Small Capitals in Greek lookup 0 subtable" a.sc
EndChar

StartChar: B
Encoding: 66 66 34
Width: 573
GlyphClass: 2
Flags: W
HStem: -3 29<29.0264 89.6226> 0 45<204.843 376> 331 42<196.4 370.227> 616 41<205.67 354.739> 629 29<28.0898 91.8824>
VStem: 108 87<54.9668 326.846 374.772 608.951> 413 88<426.301 560.322> 449 95<104.534 259.02>
LayerCount: 2
Fore
SplineSet
449 176 m 0x65
 449 251 404 331 271 331 c 0
 237 331 224 329 199 327 c 1
 198 324 195 302 195 294 c 2
 195 148 l 2
 195 134 194 73 211 59 c 0
 223 48 253 45 265 45 c 0
 311 45 449 54 449 176 c 0x65
108 143 m 2
 108 521 l 2
 108 539 107 584 101 607 c 1
 96 619 44 629 32 629 c 0
 30 629 28 634 28 641 c 0
 28 648 30 656 32 658 c 1xad
 32 658 84 656 151 656 c 0
 244 656 233 657 292 657 c 0
 374 657 501 620 501 493 c 0x36
 501 413 418 372 402 366 c 0
 394 363 396 360 397 360 c 0
 433 354 544 289 544 187 c 0
 544 72 442 0 290 0 c 2
 153 0 l 2x75
 86 0 32 -3 32 -3 c 1
 31 -2 29 4 29 13 c 0
 29 19 30 26 32 26 c 0xa5
 44 26 93 35 101 49 c 0
 108 61 108 106 108 143 c 2
317 376 m 0
 369 381 413 413 413 470 c 0
 413 559 369 616 276 616 c 0x36
 252 616 219 613 205 609 c 0
 201 608 199 604 199 600 c 0
 197 573 195 499 195 499 c 1
 195 380 l 2
 195 376 226 373 261 373 c 0
 279 373 301 374 317 376 c 0
EndSplineSet
Validated: 33
Substitution2: "'c2sc' Capitals to Small Capitals in Greek lookup 0 subtable" b.sc
EndChar

StartChar: C
Encoding: 67 67 35
Width: 646
GlyphClass: 2
Flags: W
HStem: -6 43<280.992 481.809> 625 42<274.366 466.821>
VStem: 28 95<213.444 446.585> 563 34<483.297 533.511>
LayerCount: 2
Fore
SplineSet
618 183 m 1
 618 172 593 43 584 38 c 0
 526 3 437 -6 345 -6 c 0
 168 -6 28 145 28 322 c 0
 28 509 171 667 356 667 c 0
 422 667 519 658 599 642 c 5
 599 642 597 508 597 498 c 0
 597 488 586 483 576 483 c 0
 570 483 565 485 563 488 c 1
 557 519 526 625 359 625 c 0
 224 625 123 483 123 343 c 0
 123 187 209 37 383 37 c 0
 450 37 505 62 536 95 c 0
 568 129 577 192 585 192 c 3
 599 192 618 183 618 183 c 1
EndSplineSet
Validated: 1
Substitution2: "'c2sc' Capitals to Small Capitals in Greek lookup 0 subtable" c.sc
EndChar

StartChar: D
Encoding: 68 68 36
Width: 699
GlyphClass: 2
Flags: W
HStem: -3 46<182.585 446.762> -3 29<29.0058 89.6226> 614 44<204.704 433.756> 629 29<28.0898 91.8824>
VStem: 108 87<57.9039 603.534> 570 100<212.177 453.397>
LayerCount: 2
Fore
SplineSet
151 656 m 4x5c
 220 656 281 658 325 658 c 0
 556 658 670 496 670 336 c 0
 670 152 548 -3 324 -3 c 0xac
 280 -3 221 2 153 0 c 6
 86 1 32 -3 32 -3 c 5
 31 -2 29 3 29 12 c 4
 29 18 30 26 32 26 c 4
 44 26 93 35 101 49 c 4
 108 61 108 106 108 143 c 6
 108 521 l 6
 108 539 107 584 101 607 c 5
 96 619 44 629 32 629 c 4
 30 629 28 634 28 641 c 4
 28 648 30 656 32 658 c 5
 32 658 84 656 151 656 c 4x5c
195 535 m 2
 195 139 l 2
 195 109 199 88 210 63 c 0
 217 48 324 43 340 43 c 0
 493 43 570 145 570 340 c 0
 570 478 498 614 333 614 c 2
 328 614 l 2
 304 614 219 613 208 598 c 0
 197 583 195 553 195 535 c 2
EndSplineSet
Validated: 33
Substitution2: "'c2sc' Capitals to Small Capitals in Greek lookup 0 subtable" d.sc
EndChar

StartChar: E
Encoding: 69 69 37
Width: 575
GlyphClass: 2
Flags: W
HStem: -3 29<29.0264 89.6226> 0 44<201.074 452.53> 309 44<195 372.451> 616 48<255.651 436.938> 616 40<198.952 359.197> 629 29<28.0898 91.8824>
VStem: 108 87<49.5865 307.528 353.429 611.922> 401 32<230.002 287.868 373.107 427.976> 471 32<523.07 569.412>
LayerCount: 2
Fore
SplineSet
151 656 m 0x2b80
 245 656 365 664 474 664 c 1
 481 614 494 573 503 528 c 1
 500 525 492 523 485 523 c 0
 478 523 472 525 471 530 c 0
 449 610 408 616 355 616 c 2
 288 616 l 2
 247 616 202 615 200 603 c 0
 196 584 195 542 195 519 c 2
 195 359 l 2
 195 354 216 353 238 353 c 2
 291 353 l 2
 387 353 384 355 401 421 c 0
 402 426 409 428 416 428 c 0
 423 428 430 426 433 423 c 1
 433 234 l 1
 431 232 424 230 417 230 c 0
 410 230 403 233 401 238 c 0
 386 295 382 295 373 301 c 0
 362 308 305 309 267 309 c 0
 239 309 195 309 195 300 c 2
 195 145 l 2
 195 126 197 74 204 54 c 0
 207 45 230 44 272 44 c 2
 320 44 l 2
 358 44 417 46 446 61 c 0
 465 71 493 109 509 162 c 0
 510 166 516 168 523 168 c 0
 533 168 545 165 548 162 c 1
 529 108 501 40 494 -4 c 1
 385 -4 286 0 153 0 c 24x7380
 106 0 32 -3 32 -3 c 1
 31 -2 29 4 29 13 c 0
 29 19 30 26 32 26 c 0
 44 26 93 35 101 49 c 0
 108 61 108 106 108 143 c 2
 108 521 l 2
 108 539 107 584 101 607 c 1
 96 619 44 629 32 629 c 0
 30 629 28 634 28 641 c 0
 28 648 30 656 32 658 c 1xa780
 32 658 84 656 151 656 c 0x2b80
EndSplineSet
Validated: 1
Substitution2: "'c2sc' Capitals to Small Capitals in Greek lookup 0 subtable" e.sc
EndChar

StartChar: F
Encoding: 70 70 38
Width: 529
GlyphClass: 2
Flags: W
HStem: -3 29<29.0058 93.8553 209.335 270.997> 306 44<194 370.451> 616 48<254.651 435.938> 616 40<197.952 358.197> 629 29<27.0898 90.8824>
VStem: 107 87<36.9151 304.651 350.385 611.922> 399 32<227.002 284.868 373.74 429.976> 470 32<523.07 569.412>
LayerCount: 2
Fore
SplineSet
194 519 m 2xe7
 194 356 l 2
 194 351 214 350 236 350 c 2
 289 350 l 2
 385 350 382 357 399 423 c 0
 400 428 407 430 414 430 c 0
 421 430 428 428 431 425 c 1
 431 231 l 1
 429 229 422 227 415 227 c 0
 408 227 401 230 399 235 c 0
 384 292 380 292 371 298 c 0
 360 305 303 306 265 306 c 0
 237 306 194 306 194 297 c 2
 194 139 l 2
 194 103 196 73 203 46 c 0
 206 35 259 26 267 26 c 0
 270 26 271 17 271 11 c 0
 271 6 270 0 269 -3 c 1
 229 -1 197 2 153 2 c 0
 107 2 79 -1 33 -3 c 1
 31 -1 29 6 29 12 c 0
 29 18 31 26 33 26 c 0
 45 26 95 34 100 46 c 1
 106 69 107 118 107 136 c 2
 107 521 l 2
 107 539 106 584 100 607 c 1
 95 619 43 629 31 629 c 0
 29 629 27 634 27 641 c 0
 27 648 29 656 31 658 c 1xcf
 31 658 83 656 150 656 c 0xd7
 244 656 364 664 473 664 c 1
 480 614 493 573 502 528 c 1
 499 525 491 523 484 523 c 0
 477 523 471 525 470 530 c 0
 448 610 407 616 354 616 c 2
 287 616 l 2
 246 616 201 615 199 603 c 0
 195 584 194 542 194 519 c 2xe7
EndSplineSet
Validated: 1
Substitution2: "'c2sc' Capitals to Small Capitals in Greek lookup 0 subtable" f.sc
EndChar

StartChar: G
Encoding: 71 71 39
Width: 703
GlyphClass: 2
Flags: W
HStem: -6 43<288.632 510.722> 271 29<431.188 502.694 620.316 674.997> 625 42<271.782 470.546>
VStem: 28 97<224.895 446.796> 519 84<59.4725 258.241> 520 100<52.209 184.32> 563 34<483.297 536.346>
LayerCount: 2
Fore
SplineSet
28 322 m 0xf4
 28 509 171 667 356 667 c 0
 422 667 512 644 593 622 c 1
 593 622 597 508 597 498 c 0
 597 488 586 483 576 483 c 0
 570 483 565 485 563 488 c 1xf2
 557 519 533 625 359 625 c 0
 224 625 125 492 125 335 c 0
 125 197 227 37 383 37 c 0
 435 37 479 41 513 59 c 0
 519 62 520 67 520 74 c 0xf4
 520 101 519 156 519 156 c 1
 519 163 l 2
 519 180 519 228 511 249 c 0
 505 264 446 271 434 271 c 0
 429 271 429 295 434 300 c 1
 485 298 514 295 565 295 c 0
 607 295 633 298 673 300 c 1
 674 297 675 292 675 286 c 0
 675 279 674 271 671 271 c 0
 663 271 625 260 613 253 c 0
 604 247 603 234 603 186 c 0xf8
 603 150 606 124 606 114 c 0
 606 84 620 69 620 59 c 0
 620 53 613 48 595 41 c 0
 542 21 486 -6 345 -6 c 0
 168 -6 28 145 28 322 c 0xf4
EndSplineSet
Validated: 1
Substitution2: "'c2sc' Capitals to Small Capitals in Greek lookup 0 subtable" g.sc
EndChar

StartChar: H
Encoding: 72 72 40
Width: 691
GlyphClass: 2
Flags: W
HStem: -3 29<28.0058 92.8553 208.335 269.234 420.188 483.855 598.335 659.997> 317 50<193 497> 633 29<28.0511 91.0787 209.221 269.234 420.188 482.079 599.221 659.993>
VStem: 106 87<36.9151 316.069 367.001 621.28> 497 87<36.9151 314.999 367.001 621.28>
LayerCount: 2
Fore
SplineSet
497 135 m 6
 497 311 l 2
 497 313 495 315 495 315 c 1
 448 316 398 317 347 317 c 0
 193 317 193 316 193 312 c 2
 193 139 l 6
 193 103 195 73 202 46 c 4
 205 35 258 26 266 26 c 4
 271 26 270 3 268 -3 c 5
 228 -1 196 2 152 2 c 4
 106 2 78 -1 32 -3 c 5
 30 -1 28 6 28 12 c 4
 28 18 30 26 32 26 c 4
 44 26 94 34 99 46 c 5
 105 69 106 117 106 135 c 6
 106 523 l 6
 106 541 105 589 99 612 c 5
 94 624 44 633 32 633 c 4
 30 633 28 640 28 646 c 4
 28 652 30 660 32 662 c 5
 78 660 106 656 152 656 c 4
 196 656 228 660 268 662 c 5
 270 656 271 633 266 633 c 4
 258 633 205 623 202 612 c 4
 195 585 193 555 193 519 c 6
 193 370 l 2
 193 369 195 367 195 367 c 1
 244 366 291 365 347 365 c 0
 394 365 450 366 495 367 c 1
 495 367 497 369 497 371 c 2
 497 523 l 6
 497 541 496 589 490 612 c 5
 485 624 435 633 423 633 c 4
 418 633 418 657 423 662 c 5
 469 660 498 656 544 656 c 4
 588 656 618 660 658 662 c 5
 659 659 660 652 660 647 c 4
 660 641 659 633 656 633 c 4
 648 633 595 623 592 612 c 4
 585 585 584 555 584 519 c 6
 584 139 l 6
 584 103 585 73 592 46 c 4
 595 35 648 26 656 26 c 4
 659 26 660 17 660 11 c 4
 660 6 659 0 658 -3 c 5
 618 -1 588 2 544 2 c 4
 498 2 469 -1 423 -3 c 5
 418 2 418 26 423 26 c 4
 435 26 485 34 490 46 c 5
 496 69 497 117 497 135 c 6
EndSplineSet
Validated: 1
Substitution2: "'c2sc' Capitals to Small Capitals in Greek lookup 0 subtable" h.sc
EndChar

StartChar: I
Encoding: 73 73 41
Width: 301
GlyphClass: 2
Flags: W
HStem: -3 29<28.0058 92.8553 208.335 269.997> 633 29<28.0511 91.0787 209.221 269.993>
VStem: 106 87<36.9151 621.28>
LayerCount: 2
Fore
SplineSet
106 523 m 2
 106 541 105 589 99 612 c 1
 94 624 44 633 32 633 c 0
 30 633 28 640 28 646 c 0
 28 652 30 660 32 662 c 1
 78 660 106 657 152 657 c 0
 196 657 228 660 268 662 c 1
 269 659 270 652 270 647 c 0
 270 641 269 633 266 633 c 0
 258 633 205 623 202 612 c 0
 195 585 193 555 193 519 c 2
 193 139 l 6
 193 103 195 73 202 46 c 4
 205 35 258 26 266 26 c 4
 269 26 270 17 270 11 c 4
 270 6 269 0 268 -3 c 5
 228 -1 196 2 152 2 c 0
 106 2 78 -1 32 -3 c 1
 30 -1 28 6 28 12 c 0
 28 18 30 26 32 26 c 0
 44 26 94 34 99 46 c 1
 105 69 106 117 106 135 c 2
 106 523 l 2
EndSplineSet
Validated: 1
Substitution2: "'c2sc' Capitals to Small Capitals in Greek lookup 0 subtable" i.sc
EndChar

StartChar: J
Encoding: 74 74 42
Width: 444
GlyphClass: 2
Flags: W
HStem: -227 60<77 181.788> 633 29<174.051 237.079 355.221 415.993>
VStem: 252 87<-38.9674 621.28>
LayerCount: 2
Fore
SplineSet
252 523 m 2
 252 541 251 589 245 612 c 1
 240 624 190 633 178 633 c 0
 176 633 174 640 174 646 c 0
 174 652 176 660 178 662 c 1
 224 660 252 656 298 656 c 0
 342 656 374 660 414 662 c 1
 415 659 416 652 416 647 c 0
 416 641 415 633 412 633 c 0
 404 633 351 623 348 612 c 0
 341 585 339 555 339 519 c 2
 339 85 l 2
 339 -77 239 -227 89 -227 c 3
 65 -227 37 -211 37 -211 c 1
 32 -205 25 -189 25 -174 c 27
 25 -143 55 -124 87 -124 c 0
 121 -124 135 -167 163 -167 c 1
 197 -167 252 -100 252 77 c 2
 252 523 l 2
EndSplineSet
Validated: 1
Substitution2: "'c2sc' Capitals to Small Capitals in Greek lookup 0 subtable" j.sc
EndChar

StartChar: K
Encoding: 75 75 43
Width: 707
GlyphClass: 2
Flags: W
HStem: -3 29<28.0058 92.8553 208.335 269.234 410.188 455.795 605.648 673.848> 311 39<193 228.76> 633 29<28.0511 91.0787 209.221 269.234 401.036 460.965 546.588 610.703>
VStem: 106 87<36.9151 310.997 350.002 621.28>
LayerCount: 2
Fore
SplineSet
193 519 m 2
 193 356 l 2
 193 353 200 350 200 350 c 1
 207 350 l 2
 221 350 241 352 265 379 c 0
 345 469 363 486 437 582 c 0
 442 588 461 610 461 620 c 0
 461 635 413 637 404 637 c 0
 399 637 399 653 402 662 c 1
 439 660 472 656 509 656 c 0
 553 656 570 660 610 662 c 1
 612 656 613 637 608 637 c 0
 599 636 549 633 516 595 c 2
 315 361 l 2
 307 352 316 341 322 334 c 2
 563 69 l 2
 598 30 661 26 669 26 c 0
 672 26 674 15 674 8 c 0
 674 3 673 -1 672 -3 c 1
 632 -1 589 2 548 2 c 0
 492 2 469 -1 413 -3 c 1
 408 2 408 26 413 26 c 0
 424 26 456 30 456 42 c 0
 456 60 389 143 229 307 c 0
 224 312 211 311 200 311 c 0
 196 311 193 307 193 303 c 2
 193 139 l 2
 193 103 195 73 202 46 c 0
 205 35 258 26 266 26 c 0
 271 26 270 3 268 -3 c 1
 228 -1 196 2 152 2 c 0
 106 2 78 -1 32 -3 c 1
 30 -1 28 6 28 12 c 0
 28 18 30 26 32 26 c 0
 44 26 94 34 99 46 c 1
 105 69 106 117 106 135 c 2
 106 523 l 2
 106 541 105 589 99 612 c 1
 94 624 44 633 32 633 c 0
 30 633 28 640 28 646 c 0
 28 652 30 660 32 662 c 1
 78 660 106 656 152 656 c 0
 196 656 228 660 268 662 c 1
 270 656 271 633 266 633 c 0
 258 633 205 623 202 612 c 0
 195 585 193 555 193 519 c 2
EndSplineSet
Validated: 1
Substitution2: "'c2sc' Capitals to Small Capitals in Greek lookup 0 subtable" k.sc
EndChar

StartChar: L
Encoding: 76 76 44
Width: 575
GlyphClass: 2
Flags: W
HStem: -1 29<28.0264 92.6375> 2 42<200.604 450.564> 633 29<29.0511 92.0787 210.221 270.993>
VStem: 107 87<49.5865 621.28>
LayerCount: 2
Fore
SplineSet
194 519 m 2xb0
 194 142 l 6
 194 106 196 81 203 54 c 4
 206 45 229 44 271 44 c 6
 319 44 l 6
 357 44 416 46 445 61 c 4
 464 71 492 109 508 162 c 4
 509 166 515 168 522 168 c 4
 532 168 544 165 547 162 c 5
 528 108 500 40 493 -4 c 5
 384 -4 282 2 152 2 c 4x70
 105 2 31 -1 31 -1 c 5
 30 0 28 6 28 15 c 4
 28 21 29 28 31 28 c 4
 43 28 92 35 100 49 c 4
 107 61 107 106 107 143 c 6
 107 521 l 2
 107 539 106 589 100 612 c 1
 95 624 45 633 33 633 c 0
 31 633 29 640 29 646 c 0
 29 652 31 660 33 662 c 1
 79 660 107 656 153 656 c 0
 197 656 229 660 269 662 c 1
 270 659 271 652 271 647 c 0
 271 641 270 633 267 633 c 0
 259 633 206 623 203 612 c 0
 196 585 194 555 194 519 c 2xb0
EndSplineSet
Validated: 1
Substitution2: "'c2sc' Capitals to Small Capitals in Greek lookup 0 subtable" l.sc
EndChar

StartChar: M
Encoding: 77 77 45
Width: 912
GlyphClass: 2
Flags: W
HStem: -3 29<28.0087 98.8058 200.819 267.997 637.051 699.806 819.703 881.993> 633 25<53.0511 121.956 811.735 861.948> 642 20G<250 271 657.333 680>
VStem: 129 52<44.8512 289.128> 140 57<359.796 581.944> 713 83<41.3231 347.261>
LayerCount: 2
Fore
SplineSet
169 657 m 0xac
 203 657 239 660 261 662 c 1
 281 599 388 339 459 161 c 8
 460 159 462 159 463 159 c 0
 464 159 467 160 468 163 c 2
 468 163 566 393 624 542 c 24
 642 588 664 662 664 662 c 9xac
 696 660 728 658 747 658 c 0xcc
 782 658 834 660 859 662 c 1xac
 860 659 862 652 862 647 c 0
 862 641 860 633 857 633 c 2
 855 633 l 2
 841 633 811 623 799 613 c 0
 791 607 787 572 787 546 c 0
 787 526 793 270 796 140 c 0
 797 101 801 74 811 48 c 0
 817 34 870 26 878 26 c 0
 881 26 882 18 882 12 c 0
 882 7 881 0 880 -3 c 1
 840 -1 805 2 761 2 c 0
 715 2 687 -1 641 -3 c 1
 639 -1 637 7 637 13 c 0
 637 19 639 26 641 26 c 0
 653 26 689 34 701 41 c 0
 708 45 713 70 713 84 c 0
 713 98 714 122 713 137 c 2
 701 489 l 2
 700 506 693 548 686 548 c 0
 684 548 683 546 681 541 c 2
 472 41 l 2
 468 32 453 -2 435 -2 c 0
 432 -2 429 -1 426 0 c 1
 197 582 l 1xcc
 193 364 181 87 181 75 c 0
 181 66 184 53 187 49 c 0
 197 36 256 26 264 26 c 0
 267 26 268 18 268 11 c 0
 268 5 267 0 266 -3 c 1
 226 -1 194 2 150 2 c 0
 104 2 79 -1 33 -3 c 1
 31 -1 28 6 28 12 c 0
 28 18 31 26 33 26 c 0
 45 26 98 34 111 48 c 0
 127 66 128 100 129 135 c 0xd4
 133 375 140 529 140 572 c 0
 140 586 139 601 136 612 c 1
 131 624 69 633 57 633 c 0xcc
 55 633 53 641 53 647 c 0
 53 653 55 660 57 662 c 1
 103 660 123 657 169 657 c 0xac
EndSplineSet
Validated: 33
Substitution2: "'c2sc' Capitals to Small Capitals in Greek lookup 0 subtable" m.sc
EndChar

StartChar: N
Encoding: 78 78 46
Width: 733
GlyphClass: 2
Flags: W
HStem: -3 29<28.0029 96.7816 194.656 261.987> 635 27<32.1875 97.2755 470.074 536.635 638.588 704.965>
VStem: 121 56<41.3891 567.234> 559 55<172.79 620.656>
LayerCount: 2
Fore
SplineSet
559 524 m 6
 559 541 558 589 552 612 c 5
 547 624 485 635 473 635 c 4
 468 635 468 657 473 662 c 5
 519 660 545 656 591 656 c 4
 635 656 663 660 703 662 c 5
 704 659 705 652 705 647 c 4
 705 641 704 635 701 635 c 4
 693 635 625 623 622 612 c 4
 615 585 614 555 614 519 c 6
 614 139 l 6
 614 81 615 51 617 -1 c 5
 614 -4 601 -5 598 -5 c 4
 589 -5 575 4 565 18 c 6
 177 568 l 5
 177 141 l 6
 177 105 177 75 184 48 c 4
 187 37 251 26 259 26 c 4
 264 26 263 3 261 -3 c 5
 221 -1 190 2 146 2 c 4
 100 2 77 -1 31 -3 c 5
 29 -1 28 6 28 12 c 4
 28 18 29 26 31 26 c 4
 43 26 106 37 111 50 c 4
 121 76 121 106 121 144 c 4
 121 275 121 406 121 537 c 4
 121 565 120 590 114 612 c 5
 109 624 47 633 35 633 c 4
 30 633 30 657 35 662 c 5
 74 661 91 660 137 660 c 4
 167 660 203 661 217 662 c 5
 262 579 445 327 556 172 c 5
 559 189 559 197 559 213 c 6
 559 524 l 6
EndSplineSet
Validated: 1
Substitution2: "'c2sc' Capitals to Small Capitals in Greek lookup 0 subtable" n.sc
EndChar

StartChar: O
Encoding: 79 79 47
Width: 696
GlyphClass: 2
Flags: W
HStem: -10 43<273.496 444.516> 625 42<252.698 418.137>
VStem: 28 99<213.089 450.855> 568 99<206.425 444.367>
LayerCount: 2
Fore
SplineSet
332 625 m 4
 198 625 127 484 127 350 c 4
 127 195 208 33 363 33 c 4
 498 33 568 174 568 309 c 4
 568 464 487 625 332 625 c 4
28 328 m 4
 28 515 171 667 347 667 c 4
 523 667 667 515 667 328 c 4
 667 141 523 -10 347 -10 c 4
 171 -10 28 141 28 328 c 4
EndSplineSet
Validated: 1
Substitution2: "'c2sc' Capitals to Small Capitals in Greek lookup 0 subtable" o.sc
EndChar

StartChar: P
Encoding: 80 80 48
Width: 539
GlyphClass: 2
Flags: W
HStem: -3 29<29.1103 89.6226 221.789 284.998> 267 40<206.562 359.308> 616 44<198.589 350.026> 629 29<28.0898 91.8824>
VStem: 108 87<49.5865 270.999 319.549 610.855> 418 92<386.036 545.896>
LayerCount: 2
Fore
SplineSet
152 656 m 21xdc
 211 656 234 660 293 660 c 4xec
 375 660 510 604 510 467 c 0
 510 393 442 267 287 267 c 0
 263 267 221 269 203 271 c 0
 201 271 195 269 195 261 c 2
 195 142 l 6
 195 123 195 75 203 55 c 4
 211 35 274 26 282 26 c 4
 287 26 286 3 284 -3 c 5
 244 -1 213 2 154 2 c 4
 87 2 32 -3 32 -3 c 5
 31 -2 29 6 29 15 c 4
 29 21 30 28 32 28 c 4
 44 28 93 35 101 49 c 4
 108 61 108 106 108 143 c 6
 108 521 l 6
 108 539 107 584 101 607 c 5
 96 619 44 629 32 629 c 4
 30 629 28 634 28 641 c 4
 28 648 30 656 32 658 c 5
 152 656 l 21xdc
195 499 m 2
 195 353 l 2
 195 310 256 307 306 307 c 0
 372 307 418 375 418 452 c 0
 418 541 368 616 277 616 c 0
 253 616 221 613 207 609 c 0
 199 607 195 598 195 499 c 2
EndSplineSet
Validated: 1
Substitution2: "'c2sc' Capitals to Small Capitals in Greek lookup 0 subtable" p.sc
EndChar

StartChar: Q
Encoding: 81 81 49
Width: 783
GlyphClass: 2
Flags: W
HStem: -136 52<568.379 728.468> 625 42<252.453 418.352>
VStem: 28 95<215.216 450.855> 572 95<205.533 444.367>
LayerCount: 2
Fore
SplineSet
332 625 m 0
 198 625 123 484 123 350 c 0
 123 195 208 33 363 33 c 0
 498 33 572 174 572 309 c 0
 572 464 487 625 332 625 c 0
676 -84 m 0
 716 -84 737 -76 744 -76 c 0
 752 -76 756 -86 756 -96 c 2
 756 -101 l 1
 701 -130 649 -136 588 -136 c 0
 478 -136 369 -33 261 0 c 0
 173 27 28 141 28 328 c 0
 28 515 171 667 347 667 c 0
 523 667 667 515 667 328 c 0
 667 141 530 22 443 5 c 1
 540 -41 572 -84 676 -84 c 0
EndSplineSet
Validated: 1
Substitution2: "'c2sc' Capitals to Small Capitals in Greek lookup 0 subtable" q.sc
EndChar

StartChar: R
Encoding: 82 82 50
Width: 692
GlyphClass: 2
Flags: W
HStem: -3 31<29.0593 94.5446 214.994 284.987 608.726 659.999> 306 43<196.52 280.221> 612 48<206.67 366.213> 629 29<28.0898 91.8824>
VStem: 108 87<49.5865 305.998 354.992 604.951> 419 92<405.425 560.187>
LayerCount: 2
Fore
SplineSet
293 660 m 0xec
 375 660 511 614 511 477 c 0
 511 424 467 353 392 318 c 0
 387 316 383 313 386 308 c 0
 397 285 436 203 501 132 c 0
 554 74 613 27 657 27 c 1
 659 23 660 18 660 13 c 0
 660 7 660 4 657 -2 c 1
 650 -4 635 -5 630 -5 c 0
 514 -5 439 66 387 139 c 0
 317 238 292 286 256 302 c 0
 248 305 232 306 219 306 c 0
 206 306 195 306 195 289 c 2
 195 142 l 2
 195 123 195 75 203 55 c 0
 211 35 274 26 282 26 c 0
 287 26 286 3 284 -3 c 1
 244 -1 213 2 154 2 c 0
 87 2 32 -3 32 -3 c 1
 31 -2 29 6 29 15 c 0
 29 21 30 28 32 28 c 0
 44 28 93 35 101 49 c 0
 108 61 108 106 108 143 c 2
 108 521 l 2
 108 539 107 584 101 607 c 1
 96 619 44 629 32 629 c 0
 30 629 28 634 28 641 c 0
 28 648 30 656 32 658 c 1xdc
 152 656 l 17
 211 656 234 660 293 660 c 0xec
307 349 m 2
 344 349 419 391 419 477 c 0
 419 572 366 612 277 612 c 0xec
 253 612 220 609 206 605 c 0
 202 604 199 600 199 596 c 0
 197 569 195 562 195 499 c 2
 195 378 l 2
 195 351 239 349 282 349 c 2
 307 349 l 2
EndSplineSet
Validated: 1
Substitution2: "'c2sc' Capitals to Small Capitals in Greek lookup 0 subtable" r.sc
EndChar

StartChar: S
Encoding: 83 83 51
Width: 468
GlyphClass: 2
Flags: W
HStem: -10 41<149.824 304.72> 625 41<163.362 299.749>
VStem: 26 41<119.3 183.72> 46 80<454.853 571.509> 353 87<89.7983 213.651>
LayerCount: 2
Fore
SplineSet
46 490 m 0xd8
 46 596 142 666 242 666 c 0
 304 666 327 653 393 638 c 1
 405 585 405 522 405 495 c 0
 405 488 398 488 395 488 c 0
 391 488 371 488 369 498 c 1
 363 548 314 625 235 625 c 0
 147 625 126 569 126 521 c 0xd8
 126 441 200 408 266 366 c 0
 332 324 440 272 440 173 c 0
 440 63 338 -10 231 -10 c 0
 163 -10 100 9 51 19 c 1
 39 78 26 166 26 178 c 0
 26 183 35 184 42 184 c 0
 53 184 64 179 67 175 c 1xe8
 74 145 101 31 233 31 c 0
 295 31 353 68 353 146 c 0
 353 229 289 250 220 290 c 0
 143 335 46 389 46 490 c 0xd8
EndSplineSet
Validated: 1
Substitution2: "'c2sc' Capitals to Small Capitals in Greek lookup 0 subtable" s.sc
EndChar

StartChar: T
Encoding: 84 84 52
Width: 669
GlyphClass: 2
Flags: W
HStem: -3 29<211.006 275.855 391.335 452.997> 615 45<89.0107 282.684 383.25 577.989>
VStem: 26 34<521.684 575.415> 289 87<36.9151 607.652> 607 34<521.684 575.415>
LayerCount: 2
Fore
SplineSet
289 135 m 6
 289 497 l 6
 289 537 288 586 280 600 c 4
 276 608 251 615 172 615 c 4
 95 615 79 600 60 526 c 4
 59 522 55 521 50 521 c 4
 41 521 29 525 26 528 c 5
 45 671 l 5
 61 667 100 660 114 660 c 4
 203 659 253 656 333 656 c 4
 413 656 464 659 553 660 c 4
 567 660 606 667 622 671 c 5
 641 528 l 5
 638 525 626 521 617 521 c 4
 612 521 608 522 607 526 c 4
 588 600 572 615 495 615 c 4
 416 615 387 608 385 600 c 4
 377 572 376 538 376 500 c 6
 376 139 l 6
 376 103 378 73 385 46 c 4
 388 35 441 26 449 26 c 4
 452 26 453 17 453 11 c 4
 453 6 452 0 451 -3 c 5
 411 -1 379 2 335 2 c 4
 289 2 261 -1 215 -3 c 5
 213 -1 211 6 211 12 c 4
 211 18 213 26 215 26 c 4
 227 26 277 34 282 46 c 5
 288 69 289 117 289 135 c 6
EndSplineSet
Validated: 1
Substitution2: "'c2sc' Capitals to Small Capitals in Greek lookup 0 subtable" t.sc
EndChar

StartChar: U
Encoding: 85 85 53
Width: 720
GlyphClass: 2
Flags: W
HStem: 0 49<288.945 463.388> 633 29<26.0511 89.0787 207.221 267.997 457.074 530.881 617.826 691.993>
VStem: 104 87<165.404 621.28> 546 55<146.536 620.656>
LayerCount: 2
Fore
SplineSet
150 657 m 0
 194 657 226 660 266 662 c 1
 267 659 268 654 268 648 c 0
 268 641 267 633 264 633 c 0
 256 633 203 623 200 612 c 0
 193 585 191 555 191 519 c 2
 191 296 l 2
 191 148 255 49 375 49 c 0
 472 49 546 102 546 274 c 2
 546 524 l 2
 546 541 545 589 539 612 c 1
 534 624 472 635 460 635 c 0
 455 635 455 657 460 662 c 1
 506 660 532 656 578 656 c 0
 622 656 650 660 690 662 c 1
 691 659 692 652 692 647 c 0
 692 641 691 635 688 635 c 0
 680 635 612 623 609 612 c 0
 602 585 601 555 601 519 c 2
 601 276 l 2
 601 55 495 0 351 0 c 0
 200 0 104 79 104 296 c 2
 104 523 l 2
 104 541 103 589 97 612 c 1
 92 624 42 633 30 633 c 0
 28 633 26 640 26 646 c 0
 26 652 28 660 30 662 c 1
 76 660 104 657 150 657 c 0
EndSplineSet
Validated: 1
Substitution2: "'c2sc' Capitals to Small Capitals in Greek lookup 0 subtable" u.sc
EndChar

StartChar: V
Encoding: 86 86 54
Width: 730
GlyphClass: 2
Flags: W
HStem: -9 21G<352 360.5> 633 29<26.0511 84.078 210.936 270.234 489.188 547.07 650.068 701.993>
VStem: 26 182<583 649>
LayerCount: 2
Fore
SplineSet
589 502 m 6
 389 24 l 6
 378 -3 367 -9 354 -9 c 4
 350 -9 346 -7 344 -3 c 6
 139 514 l 6
 124 553 111 584 94 610 c 4
 83 626 42 633 30 633 c 4
 28 633 26 640 26 646 c 4
 26 652 28 660 30 662 c 5
 76 660 99 657 145 657 c 4
 189 657 229 660 269 662 c 5
 271 656 272 633 267 633 c 4
 259 633 212 633 209 614 c 4
 208 609 208 605 208 600 c 4
 208 566 260 444 377 157 c 4
 380 149 391 157 393 162 c 6
 543 524 l 6
 552 547 560 567 560 585 c 4
 560 594 557 603 553 612 c 4
 545 628 504 633 492 633 c 4
 487 633 487 657 492 662 c 5
 529 660 562 657 599 657 c 4
 645 657 660 660 700 662 c 5
 701 659 702 652 702 647 c 4
 702 641 701 633 698 633 c 4
 690 633 652 631 638 605 c 4
 618 569 605 540 589 502 c 6
EndSplineSet
Validated: 1
Substitution2: "'c2sc' Capitals to Small Capitals in Greek lookup 0 subtable" v.sc
EndChar

StartChar: W
Encoding: 87 87 55
Width: 1091
GlyphClass: 2
Flags: W
HStem: -8 21G<405 411 683 690.5> 633 29<26.0511 70.4083 204.422 262.234 313.188 356.408 490.388 547.234 598.188 639.867 756.463 813.234 857.188 899.856 1012.58 1062.99>
VStem: 911 152<580.5 649.5>
LayerCount: 2
Fore
SplineSet
654 588 m 0
 654 626 611 633 601 633 c 0
 596 633 596 657 601 662 c 1
 633 660 670 657 702 657 c 0
 753 657 772 660 812 662 c 1
 814 656 815 633 810 633 c 0
 802 633 751 623 735 605 c 0
 718 585 694 539 677 502 c 2
 607 347 l 2
 605 343 607 339 609 335 c 2
 708 122 l 2
 712 114 722 122 724 127 c 2
 896 536 l 2
 906 560 911 573 911 588 c 0
 911 629 872 633 860 633 c 0
 855 633 855 657 860 662 c 1
 892 660 930 657 962 657 c 0
 1013 657 1021 660 1061 662 c 1
 1062 659 1063 652 1063 647 c 0
 1063 641 1062 633 1059 633 c 0
 1051 633 1011 625 994 605 c 0
 977 585 953 539 937 502 c 0
 854 314 724 24 724 24 c 2
 713 -2 696 -8 685 -8 c 0
 681 -8 678 -6 676 -3 c 2
 551 260 l 1
 446 24 l 2
 433 -4 415 -8 407 -8 c 0
 403 -8 400 -6 398 -3 c 2
 138 514 l 2
 120 551 103 581 80 610 c 0
 68 625 42 633 30 633 c 0
 28 633 26 640 26 646 c 0
 26 652 28 660 30 662 c 1
 76 660 102 657 148 657 c 0
 192 657 221 660 261 662 c 1
 263 656 264 633 259 633 c 0
 251 633 205 632 202 613 c 0
 201 608 201 604 201 600 c 0
 201 576 211 555 224 530 c 2
 434 124 l 2
 438 116 447 124 449 129 c 2
 522 306 l 2
 524 310 526 314 524 318 c 2
 424 514 l 2
 405 551 389 581 366 610 c 0
 354 625 328 633 316 633 c 0
 311 633 311 657 316 662 c 1
 362 660 388 657 434 657 c 0
 478 657 506 660 546 662 c 1
 548 656 549 633 544 633 c 0
 536 633 491 632 488 613 c 0
 487 608 487 604 487 599 c 0
 487 575 497 555 510 530 c 2
 579 397 l 1
 640 538 l 1
 649 560 654 575 654 588 c 0
EndSplineSet
Validated: 1
Substitution2: "'c2sc' Capitals to Small Capitals in Greek lookup 0 subtable" w.sc
EndChar

StartChar: X
Encoding: 88 88 56
Width: 754
GlyphClass: 2
Flags: W
HStem: -3 29<28.0272 98.8815 206.369 267.973 454.188 507.199 647.461 720.964> 633 29<64.1875 123.471 272.181 326.234 459.188 519.075 628.477 702.234>
LayerCount: 2
Fore
SplineSet
532 602 m 0
 532 615 504 633 462 633 c 0
 457 633 457 657 462 662 c 1
 499 660 552 657 589 657 c 0
 641 657 661 660 701 662 c 1
 703 656 704 633 699 633 c 0
 691 633 618 624 603 604 c 2
 420 364 l 1
 416 357 416 354 419 350 c 0
 470 275 579 106 611 69 c 0
 642 32 683 26 716 26 c 0
 719 26 721 17 721 10 c 0
 721 5 720 -1 719 -3 c 1
 679 -1 644 2 603 2 c 0
 547 2 513 -1 457 -3 c 1
 452 2 452 26 457 26 c 0
 468 26 512 31 512 50 c 0
 512 53 509 59 507 62 c 2
 363 291 l 2
 361 294 357 292 354 288 c 0
 289 201 196 77 196 55 c 0
 196 49 208 26 264 26 c 0
 267 26 268 16 268 10 c 0
 268 6 268 0 266 -3 c 1
 229 -1 190 2 153 2 c 0
 101 2 70 -1 30 -3 c 1
 29 0 28 5 28 10 c 0
 28 16 29 26 32 26 c 0
 40 26 96 30 120 54 c 1
 327 325 l 2
 330 329 330 332 326 340 c 2
 209 524 l 1
 184 558 162 587 132 613 c 0
 117 626 79 633 67 633 c 0
 62 633 62 657 67 662 c 1
 116 660 148 657 197 657 c 0
 246 657 285 660 325 662 c 1
 327 656 328 633 323 633 c 0
 309 633 263 627 263 601 c 0
 263 593 267 583 274 571 c 2
 386 401 l 1
 390 397 393 399 396 403 c 0
 449 471 532 574 532 602 c 0
EndSplineSet
Validated: 1
Substitution2: "'c2sc' Capitals to Small Capitals in Greek lookup 0 subtable" x.sc
EndChar

StartChar: Y
Encoding: 89 89 57
Width: 694
GlyphClass: 2
Flags: W
HStem: -3 27<221.074 277.578 401.671 455.234> 635 27<26.1131 77.1041 239.138 289.234 423.074 478.438 598.935 665.965>
VStem: 296 87<36.0506 320.845> 495 171<586.5 649.5>
LayerCount: 2
Fore
SplineSet
288 46 m 1
 294 69 296 104 296 142 c 2
 296 267 l 2
 296 286 289 300 150 549 c 0
 130 586 122 598 95 613 c 0
 78 623 42 635 30 635 c 0
 28 635 26 640 26 646 c 0
 26 652 28 660 30 662 c 1
 79 660 107 656 156 656 c 0
 205 656 248 660 288 662 c 1
 290 656 291 635 286 635 c 0
 272 635 226 627 226 601 c 0
 226 593 230 583 237 571 c 2
 349 359 l 1
 354 354 357 358 359 361 c 0
 417 449 495 571 495 602 c 0
 495 615 468 635 426 635 c 0
 421 635 421 657 426 662 c 1
 463 660 484 656 521 656 c 0
 573 656 624 660 664 662 c 1
 665 659 666 652 666 647 c 0
 666 641 665 635 662 635 c 0
 654 635 581 624 566 604 c 1
 544 570 383 313 383 291 c 2
 383 139 l 2
 383 103 384 73 391 46 c 0
 394 35 444 24 452 24 c 0
 457 24 456 3 454 -3 c 1
 414 -1 386 2 342 2 c 0
 296 2 270 -1 224 -3 c 1
 219 2 219 24 224 24 c 0
 236 24 283 34 288 46 c 1
EndSplineSet
Validated: 1
Substitution2: "'c2sc' Capitals to Small Capitals in Greek lookup 0 subtable" y.sc
EndChar

StartChar: Z
Encoding: 90 90 58
Width: 620
GlyphClass: 2
Flags: W
HStem: 0 51<158.005 481.064> 608 48<122.574 418.091> 645 20G<54 66 487 531>
VStem: 25 42<481.351 541.543>
LayerCount: 2
Fore
SplineSet
421 608 m 1xd0
 209 608 l 0xd0
 116 608 91 570 67 484 c 0
 66 481 62 480 57 480 c 0
 46 480 28 486 25 489 c 1
 37 545 50 600 58 665 c 1xb0
 74 661 196 656 210 656 c 2
 319 656 l 2
 403 656 445 660 529 666 c 1
 533 665 539 643 539 633 c 1
 537 625 165 76 165 76 c 2
 161 70 158 65 158 61 c 0
 158 54 165 51 172 51 c 2
 398 51 l 2
 499 51 535 121 554 171 c 0
 555 173 563 174 568 174 c 0
 578 174 588 169 592 165 c 1
 564 86 545 47 538 0 c 1
 42 0 l 1
 36 7 34 18 34 26 c 0
 34 33 35 39 38 43 c 2
 421 608 l 1xd0
EndSplineSet
Validated: 1
Substitution2: "'c2sc' Capitals to Small Capitals in Greek lookup 0 subtable" z.sc
EndChar

StartChar: bracketleft
Encoding: 91 91 59
Width: 246
GlyphClass: 2
Flags: W
HStem: -102 45<96 203.216> 695 45<96 203.966>
VStem: 37 59<-57.4548 695.272>
LayerCount: 2
Fore
SplineSet
56 740 m 4
 137 740 200 749 216 749 c 0
 218 749 222 747 222 737 c 0
 222 714 206 707 204 706 c 2
 204 706 157 695 103 695 c 0
 97 695 96 687 96 687 c 1
 96 -49 l 1
 96 -49 97 -57 103 -57 c 0
 125 -57 167 -61 205 -74 c 24
 214 -77 217 -84 217 -96 c 0
 217 -107 211 -114 211 -114 c 1
 211 -114 138 -102 56 -102 c 0
 38 -102 37 -80 37 -79 c 2
 37 717 l 2
 37 718 38 740 56 740 c 4
EndSplineSet
Validated: 1
Substitution2: "'smcp' Lowercase to Small Capitals in Greek lookup 0 subtable" bracketleft.sc
Substitution2: "'smcp' Lowercase to Small Capitals in Greek lookup 0 subtable" bracketleft.sc
Substitution2: "'c2sc' Capitals to Small Capitals in Greek lookup 0 subtable" bracketleft.sc
EndChar

StartChar: backslash
Encoding: 92 92 60
Width: 406
GlyphClass: 2
Flags: W
LayerCount: 2
Fore
SplineSet
382 -7 m 0
 382 -34 364 -38 359 -39 c 1
 353 -39 335 -37 335 -37 c 1
 22 755 l 1
 22 755 29 761 43 761 c 0
 73 761 85 754 92 739 c 2
 379 13 l 2
 381 9 382 1 382 -7 c 0
EndSplineSet
Validated: 1
Substitution2: "'smcp' Lowercase to Small Capitals in Greek lookup 0 subtable" backslash.sc
Substitution2: "'smcp' Lowercase to Small Capitals in Greek lookup 0 subtable" backslash.sc
Substitution2: "'c2sc' Capitals to Small Capitals in Greek lookup 0 subtable" backslash.sc
EndChar

StartChar: bracketright
Encoding: 93 93 61
Width: 245
GlyphClass: 2
Flags: W
HStem: -102 45<34.8968 149> 695 45<41.0343 149>
VStem: 149 58<-56.9942 694.994>
LayerCount: 2
Fore
SplineSet
149 -49 m 1
 149 687 l 1
 149 687 148 695 142 695 c 0
 88 695 41 706 41 706 c 2
 40 707 23 714 23 737 c 0
 23 747 26 749 28 749 c 2
 29 749 l 1
 29 749 107 740 189 740 c 0
 207 740 207 718 207 717 c 2
 207 -79 l 2
 207 -80 207 -102 189 -102 c 0
 107 -102 33 -114 33 -114 c 1
 33 -114 27 -113 27 -102 c 0
 27 -90 27 -92 33 -82 c 0
 36 -76 42 -74 42 -74 c 1
 42 -74 88 -57 142 -57 c 0
 148 -57 149 -49 149 -49 c 1
EndSplineSet
Validated: 1
Substitution2: "'smcp' Lowercase to Small Capitals in Greek lookup 0 subtable" bracketright.sc
Substitution2: "'smcp' Lowercase to Small Capitals in Greek lookup 0 subtable" bracketright.sc
Substitution2: "'c2sc' Capitals to Small Capitals in Greek lookup 0 subtable" bracketright.sc
EndChar

StartChar: asciicircum
Encoding: 94 94 62
Width: 385
GlyphClass: 2
Flags: W
HStem: 475 215
VStem: 40 304
LayerCount: 2
Fore
SplineSet
331 475 m 0
 315 475 239 540 191 597 c 1
 147 540 69 475 53 475 c 0
 43 475 40 499 40 499 c 1
 46 513 126 567 177 677 c 0
 181 686 182 690 187 690 c 0
 212 690 202 668 262 588 c 0
 285 558 342 505 344 500 c 1
 344 496 339 475 331 475 c 0
EndSplineSet
Validated: 1
EndChar

StartChar: underscore
Encoding: 95 95 63
Width: 536
GlyphClass: 2
Flags: W
HStem: -43 56<36.9907 495.32>
LayerCount: 2
Fore
SplineSet
33 -33 m 1
 33 -33 38 13 48 13 c 2
 497 13 l 2
 499 13 501 12 501 8 c 0
 501 -1 497 -15 491 -37 c 0
 489 -43 485 -43 485 -43 c 1
 40 -43 l 1
 40 -43 33 -43 33 -33 c 1
EndSplineSet
Validated: 1
EndChar

StartChar: a
Encoding: 97 97 65
Width: 432
GlyphClass: 2
Flags: W
HStem: -7 57<121.958 207.484 328.463 382.191> 398 38<135.199 229.925>
VStem: 27 84<61.0183 148.735 295.86 352.469> 249 76<68.6374 203 236.922 383.061>
LayerCount: 2
Fore
SplineSet
249 100 m 6
 249 203 l 1
 204 184 111 171 111 106 c 0
 111 69 138 50 172 50 c 0
 209 50 249 77 249 100 c 6
325 93 m 6
 325 66 340 44 366 44 c 4
 385 44 398 58 401 58 c 4
 403 58 405 52 405 50 c 4
 405 45 403 35 400 29 c 5
 386 17 356 -6 330 -6 c 4
 297 -6 266 29 257 53 c 5
 253 52 204 -7 133 -7 c 0
 77 -7 27 21 27 91 c 0
 27 184 163 212 240 241 c 0
 246 243 249 249 249 256 c 2
 249 340 l 2
 249 375 216 398 181 398 c 0
 141 398 111 369 111 324 c 0
 111 299 86 292 63 292 c 0
 49 292 31 293 31 308 c 0
 31 366 131 436 217 436 c 0
 300 436 325 403 325 333 c 2
 325 93 l 6
EndSplineSet
Validated: 1
Substitution2: "'smcp' Lowercase to Small Capitals in Greek lookup 0 subtable" a.sc
EndChar

StartChar: b
Encoding: 98 98 66
Width: 514
GlyphClass: 2
Flags: W
HStem: -6 42<189.271 347.949> 381 57<216.164 326.839> 629 27<25.1772 87.7581> 674 20G<168.5 175>
VStem: 97 77<52.3273 367.981 393.778 623.698> 398 87<124.346 307.891>
LayerCount: 2
Fore
SplineSet
97 549 m 2
 97 566 95 593 91 613 c 0
 87 627 57 629 40 629 c 2
 31 629 l 2
 27 629 25 633 25 640 c 0
 25 642 26 656 31 656 c 0
 140 666 167 694 170 694 c 2
 172 694 l 2
 178 694 184 683 185 678 c 1
 185 678 174 646 174 591 c 2
 174 406 l 2
 174 401 174 389 180 394 c 0
 195 406 252 438 284 438 c 5
 424 438 485 341 485 227 c 4
 485 98 391 -6 264 -6 c 4
 200 -6 160 7 139 7 c 4
 123 7 110 -8 104 -8 c 2
 103 -8 l 1
 97 -7 81 -6 81 4 c 0
 81 12 97 52 97 135 c 2
 97 549 l 2
174 326 m 2
 174 87 l 6
 174 47 225 36 292 36 c 4
 370 36 398 124 398 205 c 4
 398 328 331 381 239 381 c 4
 205 381 174 360 174 326 c 2
EndSplineSet
Validated: 1
Substitution2: "'smcp' Lowercase to Small Capitals in Greek lookup 0 subtable" b.sc
EndChar

StartChar: c
Encoding: 99 99 67
Width: 408
GlyphClass: 2
Flags: W
HStem: -8 60<179.857 306.1> 400 35<160.053 265.844>
VStem: 28 76<136.295 311.705>
LayerCount: 2
Fore
SplineSet
338 318 m 4
 324 318 315 331 299 350 c 4
 277 376 257 400 212 400 c 4
 166 400 104 363 104 245 c 0
 104 143 152 52 257 52 c 3
 330 52 370 99 374 99 c 3
 375 99 380 92 380 85 c 3
 380 80 378 71 374 67 c 0
 350 41 294 -8 226 -8 c 0
 117 -8 28 67 28 211 c 0
 28 322 104 435 222 435 c 4
 282 435 352 419 374 381 c 5
 374 345 363 318 338 318 c 4
EndSplineSet
Validated: 1
Substitution2: "'smcp' Lowercase to Small Capitals in Greek lookup 0 subtable" c.sc
EndChar

StartChar: d
Encoding: 100 100 68
Width: 506
GlyphClass: 2
Flags: W
HStem: -6 55<184.323 291.979> 20 27<422.508 478.915> 401 39<178.083 308.793> 629 27<264.177 326.758> 674 20G<407.5 414>
VStem: 28 84<129.989 294.517> 336 77<66.375 378.723 423.004 623.698>
LayerCount: 2
Fore
SplineSet
336 110 m 2xbe
 336 317 l 2
 336 337 335 356 326 368 c 0
 308 391 257 401 237 401 c 0
 154 401 112 311 112 227 c 0
 112 137 162 49 259 49 c 0
 304 49 336 75 336 110 c 2xbe
336 441 m 2
 336 549 l 2
 336 566 334 593 330 613 c 0
 326 627 296 629 279 629 c 2
 270 629 l 2
 266 629 264 633 264 640 c 0
 264 642 265 656 270 656 c 0
 379 666 406 694 409 694 c 2
 411 694 l 2
 417 694 423 683 424 678 c 1
 424 678 413 646 413 591 c 2
 413 141 l 2
 413 130 413 93 419 65 c 0
 424 46 473 48 476 47 c 0
 478 46 479 38 479 35 c 0
 479 33 478 20 473 20 c 0x7e
 421 17 343 -6 342 -6 c 0
 337 -6 336 4 336 11 c 2
 336 35 l 2
 336 40 334 40 332 39 c 0
 308 22 252 -6 214 -6 c 0
 102 -6 28 89 28 197 c 0
 28 328 145 440 258 440 c 0
 295 440 315 432 332 423 c 1
 335 423 336 429 336 441 c 2
EndSplineSet
Validated: 1
Substitution2: "'smcp' Lowercase to Small Capitals in Greek lookup 0 subtable" d.sc
EndChar

StartChar: e
Encoding: 101 101 69
Width: 411
GlyphClass: 2
Flags: W
HStem: -8 60<176.275 308.181> 232 42<111.999 304.999> 399 36<162.063 256.005>
VStem: 28 80<123.802 316.841> 305 77<246.5 348.761>
LayerCount: 2
Fore
SplineSet
216 435 m 0
 347 435 382 329 382 261 c 0
 382 232 373 233 353 233 c 0
 270 231 201 232 117 232 c 0
 111 232 110 228 109 224 c 0
 109 221 108 213 108 202 c 0
 108 139 152 52 257 52 c 7
 332 52 367 98 374 98 c 7
 375 98 380 93 380 85 c 7
 380 80 378 71 374 67 c 4
 346 37 294 -8 226 -8 c 4
 117 -8 28 76 28 197 c 0
 28 341 107 435 216 435 c 0
305 284 m 3
 305 314 271 399 214 399 c 0
 133 399 112 302 112 281 c 0
 112 279 110 274 118 274 c 0
 127 274 297 272 300 274 c 0
 304 276 305 280 305 284 c 3
EndSplineSet
Validated: 33
Substitution2: "'smcp' Lowercase to Small Capitals in Greek lookup 0 subtable" e.sc
EndChar

StartChar: f
Encoding: 102 102 70
Width: 318
GlyphClass: 2
Flags: W
HStem: -3 29<17.0058 73.5618 179.596 233.593> 372 47<31.4277 88.9985 165.002 282.625> 656 39<219.914 297.114>
VStem: 89 76<36.4871 371.997 419.002 548.692>
LayerCount: 2
Fore
SplineSet
166 135 m 2
 166 102 167 73 174 46 c 0
 177 35 222 26 230 26 c 0
 235 26 235 3 233 -3 c 1
 193 -1 166 2 126 2 c 0
 85 2 62 -1 21 -3 c 1
 19 -1 17 6 17 12 c 0
 17 18 19 26 21 26 c 0
 33 26 76 35 79 46 c 0
 87 77 88 100 88 135 c 2
 88 135 89 276 89 365 c 0
 89 368 87 372 84 372 c 2
 31 372 l 2
 29 372 28 374 28 378 c 0
 28 391 38 419 43 419 c 2
 84 419 l 2
 87 419 89 422 89 425 c 2
 89 438 l 2
 89 583 194 695 288 695 c 4
 349 695 373 673 383 656 c 5
 383 623 374 593 347 593 c 4
 314 593 308 656 257 656 c 4
 194 656 165 564 165 475 c 2
 165 424 l 2
 165 422 168 419 170 419 c 2
 281 419 l 2
 286 419 286 418 286 412 c 0
 286 403 281 386 274 372 c 1
 171 372 l 2
 168 372 165 369 165 366 c 0
 165 276 166 135 166 135 c 2
EndSplineSet
Validated: 1
Substitution2: "Single Calts-1" f.short
Substitution2: "'smcp' Lowercase to Small Capitals in Greek lookup 0 subtable" f.sc
EndChar

StartChar: g
Encoding: 103 103 71
Width: 470
GlyphClass: 2
Flags: W
HStem: -227 37<157.965 309.148> -14 72<126.409 349.857> 152 34<163.836 262.97> 367 39<362.777 440.703> 398 34<160.302 258.642>
VStem: 25 70<-144.62 -63.6129> 42 77<225.977 362.321> 50 67<44 118.789> 304 77<224.619 358.855> 375 66<-118.281 -8>
LayerCount: 2
Fore
SplineSet
119 296 m 0xea80
 119 233 164 186 214 186 c 0
 267 186 304 233 304 288 c 0
 304 351 259 398 209 398 c 0
 156 398 119 351 119 296 c 0xea80
375 -85 m 0xe440
 375 -30 336 -14 171 -14 c 0
 169 -14 166 -16 165 -16 c 0
 134 -30 95 -47 95 -94 c 0
 95 -154 171 -190 238 -190 c 0
 322 -190 375 -137 375 -85 c 0xe440
213 432 m 0xea
 286 432 297 406 377 406 c 2
 435 406 l 1
 438 405 441 391 441 381 c 0xf240
 441 373 439 367 435 367 c 2
 364 367 l 2
 361 367 360 366 360 364 c 0
 360 355 381 333 381 292 c 0
 381 222 311 152 215 152 c 0
 189 152 171 154 159 156 c 1
 143 148 117 119 117 99 c 0xf180
 117 58 172 59 217 58 c 0
 389 55 441 22 441 -38 c 0
 441 -138 348 -226 209 -227 c 0
 128 -228 25 -198 25 -116 c 0xf440
 25 -59 96 -25 123 -10 c 1
 91 -5 50 22 50 66 c 0xf1
 50 105 93 146 123 166 c 1
 86 179 42 232 42 292 c 0
 42 371 117 432 213 432 c 0xea
EndSplineSet
Validated: 33
Substitution2: "'smcp' Lowercase to Small Capitals in Greek lookup 0 subtable" g.sc
EndChar

StartChar: h
Encoding: 104 104 72
Width: 551
GlyphClass: 2
Flags: W
HStem: -3 29<29.1875 87.2849 190.966 248.593 300.188 358.285 461.966 519.593> 371 67<238.574 334.983> 629 27<28.1772 90.7581> 674 20G<171.5 178>
VStem: 100 77<36.4871 340.628 372.048 623.698> 371 77<36.4871 331.999>
LayerCount: 2
Fore
SplineSet
371 116 m 2
 371 227 l 2
 371 333 334 371 273 371 c 0
 231 371 188 332 183 328 c 0
 181 326 177 322 177 319 c 2
 177 135 l 2
 177 102 178 73 185 46 c 0
 188 35 237 26 245 26 c 0
 250 26 250 3 248 -3 c 1
 208 -1 179 2 141 2 c 0
 100 2 73 -1 32 -3 c 1
 27 2 27 26 32 26 c 0
 44 26 90 35 93 46 c 0
 99 71 100 101 100 115 c 2
 100 549 l 2
 100 566 98 593 94 613 c 0
 90 627 60 629 43 629 c 2
 34 629 l 2
 30 629 28 633 28 640 c 0
 28 642 29 656 34 656 c 0
 143 666 170 694 173 694 c 2
 175 694 l 2
 181 694 187 683 188 678 c 1
 188 678 177 646 177 591 c 2
 177 377 l 2
 177 376 177 373 178 372 c 0
 180 370 181 370 181 370 c 1
 201 389 251 438 307 438 c 31
 398 438 448 367 448 251 c 2
 448 134 l 2
 448 101 449 73 456 46 c 0
 459 35 508 26 516 26 c 0
 521 26 521 3 519 -3 c 1
 479 -1 450 2 412 2 c 0
 371 2 344 -1 303 -3 c 1
 298 2 298 26 303 26 c 0
 315 26 361 35 364 46 c 0
 370 71 371 102 371 116 c 2
EndSplineSet
Validated: 1
Substitution2: "'smcp' Lowercase to Small Capitals in Greek lookup 0 subtable" h.sc
EndChar

StartChar: i
Encoding: 105 105 73
Width: 280
GlyphClass: 2
Flags: W
HStem: -3 29<29.1875 87.2849 190.966 248.593> 414 20G<176.5 180> 543 100<89.4375 172.562>
VStem: 81 100<551.438 634.562> 100 77<36.4871 366.601>
LayerCount: 2
Fore
SplineSet
81 593 m 0xf0
 81 621 103 643 131 643 c 0
 159 643 181 621 181 593 c 0
 181 565 159 543 131 543 c 0
 103 543 81 565 81 593 c 0xf0
177 135 m 2xe8
 177 102 178 73 185 46 c 0
 188 35 237 26 245 26 c 0
 250 26 250 3 248 -3 c 1
 208 -1 179 2 141 2 c 0
 100 2 73 -1 32 -3 c 1
 27 2 27 26 32 26 c 0
 44 26 90 35 93 46 c 0
 99 71 100 102 100 116 c 2
 100 305 l 2
 100 313 99 345 86 359 c 1
 64 386 28 376 28 382 c 0
 28 383 29 406 34 407 c 0
 79 414 135 422 172 433 c 0
 173 433 176 434 177 434 c 0
 183 434 183 418 182 413 c 0
 178 381 177 375 177 341 c 2
 177 135 l 2xe8
EndSplineSet
Validated: 1
Substitution2: "'smcp' Lowercase to Small Capitals in Greek lookup 0 subtable" i.sc
EndChar

StartChar: j
Encoding: 106 106 74
Width: 248
GlyphClass: 2
Flags: W
HStem: 414 20G<211.5 215> 543 100<117.438 200.562>
VStem: 109 100<551.438 634.562> 135 77<-83.5328 366.601>
LayerCount: 2
Fore
SplineSet
135 305 m 2xd0
 135 313 134 345 121 359 c 1
 99 386 63 376 63 382 c 0
 63 383 64 406 69 407 c 0
 114 414 170 422 207 433 c 0
 208 433 211 434 212 434 c 0
 218 434 218 418 217 413 c 0
 213 381 212 375 212 341 c 2
 212 68 l 2
 212 32 208 -65 173 -120 c 0
 137 -177 76 -217 39 -231 c 1
 34 -228 28 -221 26 -216 c 0
 25 -214 25 -210 26 -209 c 0
 28 -203 135 -183 135 45 c 2
 135 305 l 2xd0
109 593 m 0xe0
 109 621 131 643 159 643 c 0
 187 643 209 621 209 593 c 0
 209 565 187 543 159 543 c 0
 131 543 109 565 109 593 c 0xe0
EndSplineSet
Validated: 1
Substitution2: "'smcp' Lowercase to Small Capitals in Greek lookup 0 subtable" j.sc
EndChar

StartChar: k
Encoding: 107 107 75
Width: 547
GlyphClass: 2
Flags: W
HStem: -3 27<29.1875 81.9777 196.512 248.593 297.074 335.982 458.464 513.951> 385 23<279.794 323.785 414.031 474.493> 629 27<28.1772 90.7581> 674 20G<171.5 178>
VStem: 100 77<36.4871 195 241 623.698>
LayerCount: 2
Fore
SplineSet
401 368 m 0
 391 362 308 304 253 247 c 1
 328 166 406 73 430 53 c 0
 456 32 502 24 510 24 c 0
 513 24 514 15 514 8 c 0
 514 3 514 -1 513 -3 c 1
 473 -1 442 2 404 2 c 0
 363 2 341 -1 300 -3 c 1
 295 2 295 24 300 24 c 0
 311 24 336 30 336 37 c 0
 336 38 336 39 335 40 c 2
 189 198 l 1
 177 195 l 1
 177 135 l 2
 178 102 178 73 185 46 c 0
 188 35 237 26 245 26 c 0
 250 26 250 3 248 -3 c 1
 208 -1 179 2 141 2 c 0
 100 2 73 -1 32 -3 c 1
 27 2 27 26 32 26 c 0
 44 26 90 35 93 46 c 0
 99 71 100 102 100 116 c 2
 100 549 l 2
 100 566 98 593 94 613 c 0
 90 627 60 629 43 629 c 2
 34 629 l 2
 30 629 28 633 28 640 c 0
 28 642 29 656 34 656 c 0
 143 666 170 694 173 694 c 2
 175 694 l 2
 181 694 187 683 188 678 c 1
 188 678 177 646 177 591 c 2
 177 241 l 1
 185 243 194 243 202 250 c 0
 290 327 326 347 326 367 c 0
 326 387 285 377 281 385 c 1
 278 394 277 406 282 408 c 1
 361 408 l 2
 396 408 425 411 471 413 c 1
 479 408 475 385 470 385 c 0
 453 385 412 375 401 368 c 0
EndSplineSet
Validated: 1
Substitution2: "'smcp' Lowercase to Small Capitals in Greek lookup 0 subtable" k.sc
EndChar

StartChar: l
Encoding: 108 108 76
Width: 279
GlyphClass: 2
Flags: W
HStem: -3 29<29.1875 87.2849 190.966 248.593> 629 27<28.1772 90.7581> 674 20G<171.5 178>
VStem: 100 77<36.4871 623.698>
LayerCount: 2
Fore
SplineSet
100 116 m 2
 100 549 l 2
 100 566 98 593 94 613 c 0
 90 627 60 629 43 629 c 2
 34 629 l 2
 30 629 28 633 28 640 c 0
 28 642 29 656 34 656 c 0
 143 666 170 694 173 694 c 2
 175 694 l 2
 181 694 187 683 188 678 c 1
 188 678 177 646 177 591 c 2
 177 135 l 2
 177 102 178 73 185 46 c 0
 188 35 237 26 245 26 c 0
 250 26 250 3 248 -3 c 1
 208 -1 179 2 141 2 c 0
 100 2 73 -1 32 -3 c 1
 27 2 27 26 32 26 c 4
 44 26 90 35 93 46 c 0
 99 71 100 102 100 116 c 2
EndSplineSet
Validated: 1
Substitution2: "'smcp' Lowercase to Small Capitals in Greek lookup 0 subtable" l.sc
EndChar

StartChar: m
Encoding: 109 109 77
Width: 809
GlyphClass: 2
Flags: W
HStem: -3 29<30.1875 88.2849 191.966 249.593 294.188 352.285 455.966 513.593 557.188 615.285 718.966 776.593> 371 67<237.949 333.69 489.3 594.676>
VStem: 101 77<36.4871 339.888> 365 77<36.4871 338.75> 628 77<36.4871 336.578>
LayerCount: 2
Fore
SplineSet
101 305 m 2
 101 313 100 345 87 359 c 1
 65 386 29 376 29 382 c 0
 29 383 30 406 35 407 c 0
 80 414 136 422 173 433 c 0
 174 433 177 434 178 434 c 0
 184 434 184 418 183 413 c 0
 180 392 179 374 179 374 c 9
 180 373 180 370 182 370 c 3
 183 370 185 371 185 371 c 1
 201 387 249 438 302 438 c 0
 364 438 401 408 420 368 c 1
 447 395 514 438 567 438 c 0
 690 438 705 321 705 251 c 2
 705 135 l 2
 705 102 706 73 713 46 c 0
 716 35 765 26 773 26 c 0
 778 26 778 3 776 -3 c 1
 736 -1 707 2 669 2 c 0
 628 2 601 -1 560 -3 c 1
 555 2 555 26 560 26 c 0
 572 26 618 35 621 46 c 0
 627 71 628 96 628 110 c 2
 628 227 l 2
 628 333 600 371 530 371 c 0
 489 371 435 337 435 325 c 2
 435 319 l 1
 440 300 442 271 442 251 c 2
 442 126 l 2
 442 93 443 73 450 46 c 0
 453 35 502 26 510 26 c 0
 515 26 515 3 513 -3 c 1
 473 -1 444 2 406 2 c 0
 365 2 338 -1 297 -3 c 1
 292 2 292 26 297 26 c 0
 309 26 355 35 358 46 c 0
 364 71 365 102 365 116 c 2
 365 227 l 2
 365 333 338 371 268 371 c 0
 231 371 178 324 178 319 c 9
 178 135 l 2
 178 102 179 73 186 46 c 0
 189 35 238 26 246 26 c 0
 251 26 251 3 249 -3 c 1
 209 -1 180 2 142 2 c 0
 101 2 74 -1 33 -3 c 1
 28 2 28 26 33 26 c 0
 45 26 91 35 94 46 c 0
 100 71 101 102 101 116 c 2
 101 305 l 2
EndSplineSet
Validated: 1
Substitution2: "'smcp' Lowercase to Small Capitals in Greek lookup 0 subtable" m.sc
EndChar

StartChar: n
Encoding: 110 110 78
Width: 552
GlyphClass: 2
Flags: W
HStem: -3 29<30.1875 88.2849 191.966 249.593 304.188 358.654 461.966 519.593> 371 67<240.8 334.51>
VStem: 101 77<36.4871 338.864> 371 77<36.4871 331.999>
LayerCount: 2
Fore
SplineSet
448 251 m 6
 448 135 l 2
 448 102 449 73 456 46 c 0
 459 35 508 26 516 26 c 0
 521 26 521 3 519 -3 c 1
 479 -1 450 2 412 2 c 0
 371 2 348 -1 307 -3 c 1
 302 2 302 26 307 26 c 0
 319 26 361 35 364 46 c 0
 370 71 371 102 371 116 c 2
 371 227 l 6
 371 333 334 371 273 371 c 4
 228 371 181 323 178 316 c 5
 178 135 l 6
 178 102 179 73 186 46 c 4
 189 35 238 26 246 26 c 4
 251 26 251 3 249 -3 c 5
 209 -1 180 2 142 2 c 4
 101 2 74 -1 33 -3 c 5
 28 2 28 26 33 26 c 4
 45 26 91 35 94 46 c 4
 100 71 101 102 101 116 c 6
 101 305 l 6
 101 313 100 345 87 359 c 5
 65 386 29 376 29 382 c 4
 29 383 30 406 35 407 c 4
 80 414 136 422 173 433 c 4
 174 433 177 434 178 434 c 4
 184 434 184 418 183 413 c 4
 180 392 178 369 178 369 c 5
 178 367 183 367 183 367 c 5
 206 391 253 438 310 438 c 31
 401 438 448 365 448 251 c 6
EndSplineSet
Validated: 1
Substitution2: "'smcp' Lowercase to Small Capitals in Greek lookup 0 subtable" n.sc
EndChar

StartChar: o
Encoding: 111 111 79
Width: 492
GlyphClass: 2
Flags: W
HStem: -7 39<198.124 313.02> 398 39<177.668 294.342>
VStem: 28 86<128.728 312.897> 377 86<119.467 302.995>
LayerCount: 2
Fore
SplineSet
256 32 m 4
 329 32 377 112 377 202 c 4
 377 312 309 398 234 398 c 4
 161 398 114 321 114 231 c 4
 114 121 181 32 256 32 c 4
245 437 m 4
 366 437 463 337 463 216 c 4
 463 94 369 -7 247 -7 c 4
 125 -7 28 94 28 216 c 4
 28 340 121 437 245 437 c 4
EndSplineSet
Validated: 1
Substitution2: "'smcp' Lowercase to Small Capitals in Greek lookup 0 subtable" o.sc
EndChar

StartChar: p
Encoding: 112 112 80
Width: 514
GlyphClass: 2
Flags: W
HStem: -227 29<27.1875 85.2849 188.966 246.593> -15 42<202.941 343.049> 381 53<208.221 326.543>
VStem: 98 77<-187.513 -0.00292969 51.624 366.601> 397 87<124.1 307.891>
LayerCount: 2
Fore
SplineSet
98 -108 m 2
 98 305 l 2
 98 313 97 345 84 359 c 1
 62 386 26 376 26 382 c 0
 26 383 27 406 32 407 c 0
 77 414 133 422 170 433 c 0
 171 433 174 434 175 434 c 0
 181 434 181 418 180 413 c 0
 179 406 179 399 178 393 c 1
 193 405 251 438 284 438 c 0
 424 438 484 341 484 227 c 0
 484 98 390 -15 263 -15 c 0
 212 -15 194 -7 177 0 c 1
 177 0 175 -4 175 -12 c 2
 175 -89 l 2
 175 -122 176 -151 183 -178 c 0
 186 -189 235 -198 243 -198 c 0
 248 -198 248 -221 246 -227 c 1
 206 -225 177 -222 139 -222 c 0
 98 -222 71 -225 30 -227 c 1
 25 -222 25 -198 30 -198 c 0
 42 -198 88 -189 91 -178 c 0
 97 -153 98 -122 98 -108 c 2
289 27 m 0
 370 27 397 124 397 205 c 0
 397 328 331 381 238 381 c 0
 205 381 175 360 175 326 c 2
 175 87 l 2
 175 47 239 27 289 27 c 0
EndSplineSet
Validated: 1
Substitution2: "'smcp' Lowercase to Small Capitals in Greek lookup 0 subtable" p.sc
EndChar

StartChar: q
Encoding: 113 113 81
Width: 515
GlyphClass: 2
Flags: W
HStem: -227 29<268.188 326.285 429.966 487.593> -14 55<185.904 287.451> 401 39<177.653 309.565>
VStem: 28 84<125.33 294.087> 339 77<-187.513 35.0418 61.501 376.94>
LayerCount: 2
Fore
SplineSet
339 -108 m 2
 339 25 l 2
 339 30 336 36 334 35 c 0
 310 18 251 -14 213 -14 c 0
 101 -14 28 86 28 197 c 0
 28 327 144 440 257 440 c 0
 294 440 336 421 374 421 c 0
 390 421 406 433 412 433 c 2
 413 433 l 1
 420 428 424 431 421 420 c 0
 416 403 416 353 416 331 c 2
 416 -101 l 2
 416 -134 417 -151 424 -178 c 0
 427 -189 476 -198 484 -198 c 0
 489 -198 489 -221 487 -227 c 1
 447 -225 418 -222 380 -222 c 0
 339 -222 312 -225 271 -227 c 1
 266 -222 266 -198 271 -198 c 0
 283 -198 329 -189 332 -178 c 0
 338 -153 339 -122 339 -108 c 2
339 106 m 2
 339 317 l 2
 339 337 336 356 327 368 c 0
 309 391 257 401 237 401 c 0
 154 401 112 310 112 227 c 0
 112 135 161 41 258 41 c 0
 303 41 339 71 339 106 c 2
EndSplineSet
Validated: 1
Substitution2: "'smcp' Lowercase to Small Capitals in Greek lookup 0 subtable" q.sc
EndChar

StartChar: r
Encoding: 114 114 82
Width: 396
GlyphClass: 2
Flags: W
HStem: -3 29<30.1875 88.2849 192.058 250.593> 380 61<227.432 295.66> 414 20G<177.5 181>
VStem: 101 77<36.4871 354.294>
LayerCount: 2
Fore
SplineSet
178 281 m 2xd0
 178 135 l 2
 178 102 179 73 186 46 c 0
 189 35 239 26 247 26 c 0
 252 26 252 3 250 -3 c 1
 210 -1 180 2 142 2 c 0
 101 2 74 -1 33 -3 c 1
 28 2 28 26 33 26 c 0
 45 26 91 35 94 46 c 0
 100 71 101 102 101 116 c 2
 101 305 l 2
 101 313 100 345 87 359 c 1
 65 386 29 376 29 382 c 0
 29 383 30 406 35 407 c 0
 80 414 136 422 173 433 c 0
 174 433 177 434 178 434 c 0xb0
 184 434 184 418 183 413 c 0
 180 392 177 370 177 370 c 1
 197 401 250 441 278 441 c 0
 315 441 351 436 367 412 c 1
 367 361 347 345 329 345 c 0
 291 345 293 380 240 380 c 0
 197 380 178 309 178 281 c 2xd0
EndSplineSet
Validated: 1
Substitution2: "'smcp' Lowercase to Small Capitals in Greek lookup 0 subtable" r.sc
EndChar

StartChar: s
Encoding: 115 115 83
Width: 343
GlyphClass: 2
Flags: W
HStem: -11 36<107.44 213.209> 402 35<126.116 225.962>
VStem: 27 28<81.3744 117.998> 32 77<294.31 381.036> 234 81<55.7917 143.901> 263 28<317.037 357.157>
LayerCount: 2
Fore
SplineSet
177 437 m 0xd8
 216 437 235 429 279 424 c 1
 286 393 290 358 291 322 c 1
 291 318 283 317 278 317 c 3
 273 317 264 319 263 324 c 0
 257 358 224 402 181 402 c 0
 133 402 109 379 109 343 c 0xd4
 109 291 160 276 205 249 c 0
 250 222 315 190 315 127 c 0
 315 46 242 -11 161 -11 c 0
 115 -11 88 0 44 8 c 1
 36 29 27 86 27 112 c 1
 31 115 34 118 39 118 c 0
 46 118 54 119 55 112 c 0xe8
 62 76 108 25 161 25 c 0
 202 25 234 47 234 93 c 0
 234 154 163 175 105 209 c 0
 65 232 32 262 32 315 c 0
 32 389 103 437 177 437 c 0xd8
EndSplineSet
Validated: 1
Substitution2: "'smcp' Lowercase to Small Capitals in Greek lookup 0 subtable" s.sc
EndChar

StartChar: t
Encoding: 116 116 84
Width: 352
GlyphClass: 2
Flags: W
HStem: -7 48<197.894 291.512> 374 48<175 315.919>
VStem: 98 77<63.875 374>
LayerCount: 2
Fore
SplineSet
98 374 m 1
 31 374 l 2
 28 374 26 383 26 391 c 0
 26 395 26 399 27 402 c 5
 43 412 74 435 97 460 c 4
 122 488 150 532 154 532 c 4
 166 532 175 531 175 527 c 6
 175 422 l 1
 219 422 296 421 310 421 c 0
 315 421 318 418 318 412 c 0
 318 403 315 388 308 374 c 1
 175 374 l 1
 175 129 l 2
 175 76 205 41 249 41 c 0
 273 41 306 57 311 60 c 0
 316 63 326 41 325 40 c 0
 310 24 264 -7 215 -7 c 0
 153 -7 98 34 98 120 c 2
 98 374 l 1
EndSplineSet
Validated: 1
Substitution2: "'smcp' Lowercase to Small Capitals in Greek lookup 0 subtable" t.sc
EndChar

StartChar: u
Encoding: 117 117 85
Width: 528
GlyphClass: 2
Flags: W
HStem: -7 66<209.909 300.694> 20 27<442.932 500.58> 414 20G<174.5 178 432.5 436>
VStem: 98 76<97.0861 366.601> 356 76<82.8832 366.601>
LayerCount: 2
Fore
SplineSet
432 341 m 2xb8
 432 141 l 2
 432 130 433 93 439 65 c 0
 444 46 495 48 498 47 c 0
 500 46 501 39 501 36 c 0
 501 34 498 20 493 20 c 0x78
 441 17 365 -8 364 -8 c 0
 359 -8 356 1 356 8 c 2
 356 54 l 2
 356 59 354 59 354 59 c 1
 334 41 288 -7 237 -7 c 0
 117 -7 98 109 98 179 c 2
 98 305 l 2
 98 313 97 345 84 359 c 1
 62 386 26 376 26 382 c 0
 26 383 27 406 32 407 c 0
 77 414 133 422 170 433 c 0
 171 433 174 434 175 434 c 0
 181 434 181 418 180 413 c 0
 176 381 174 373 174 339 c 2
 174 204 l 2
 174 98 209 59 270 59 c 0
 314 59 356 96 356 113 c 2
 356 305 l 2
 356 313 355 345 342 359 c 1
 320 386 284 376 284 382 c 0
 284 383 285 406 290 407 c 0
 335 414 391 422 428 433 c 0
 429 433 432 434 433 434 c 0
 439 434 439 418 438 413 c 0
 434 381 432 375 432 341 c 2xb8
EndSplineSet
Validated: 1
Substitution2: "'smcp' Lowercase to Small Capitals in Greek lookup 0 subtable" u.sc
EndChar

StartChar: v
Encoding: 118 118 86
Width: 564
GlyphClass: 2
Flags: W
HStem: -11 21G<271 278> 405 29<26.0511 84.8178 181.473 233.887 336.188 404.353 479.218 535.991>
LayerCount: 2
Fore
SplineSet
411 373 m 0
 411 393 395 405 339 405 c 0
 334 405 334 429 339 434 c 1
 380 432 393 429 434 429 c 0
 472 429 494 432 534 434 c 1
 535 431 536 424 536 419 c 0
 536 413 533 405 529 405 c 0
 521 405 473 399 461 371 c 2
 302 12 l 2
 299 4 283 -11 273 -11 c 0
 269 -11 265 -9 264 -7 c 0
 195 146 162 239 89 385 c 4
 79 406 42 405 30 405 c 4
 28 405 26 412 26 418 c 4
 26 424 28 432 30 434 c 5
 71 432 93 429 134 429 c 4
 172 429 194 432 234 434 c 5
 236 428 235 405 230 405 c 4
 223 405 181 403 181 388 c 7
 181 387 181 386 182 384 c 6
 302 113 l 1
 403 343 l 2
 408 355 411 366 411 373 c 0
EndSplineSet
Validated: 33
Substitution2: "'smcp' Lowercase to Small Capitals in Greek lookup 0 subtable" v.sc
EndChar

StartChar: w
Encoding: 119 119 87
Width: 799
GlyphClass: 2
Flags: W
HStem: -11 21G<273 284 536 544.5> 405 29<26.0511 81.8659 184.786 235.234 304.188 353.766 459.696 503.391 572.188 637.079 718.311 770.994>
VStem: 377 76<304.125 384.977>
LayerCount: 2
Fore
SplineSet
645 370 m 0
 645 404 602 405 579 405 c 2
 575 405 l 2
 570 405 570 429 575 434 c 1
 616 432 635 429 676 429 c 0
 714 429 729 432 769 434 c 1
 770 431 771 424 771 419 c 0
 771 413 769 405 766 405 c 0
 758 405 709 398 698 369 c 2
 567 11 l 2
 562 -3 550 -11 539 -11 c 0
 533 -11 528 -9 527 -7 c 2
 404 287 l 1
 303 11 l 2
 302 8 292 -11 276 -11 c 0
 270 -11 265 -9 264 -7 c 0
 195 146 170 238 89 383 c 0
 77 403 42 405 30 405 c 4
 28 405 26 412 26 418 c 0
 26 424 28 432 30 434 c 1
 71 432 93 429 134 429 c 0
 172 429 194 432 234 434 c 1
 236 428 237 405 232 405 c 0
 224 405 182 403 182 382 c 0
 182 375 226 290 301 120 c 1
 345 248 377 332 377 341 c 0
 377 353 358 385 358 385 c 0
 352 394 348 396 339 400 c 0
 329 405 319 405 307 405 c 0
 302 405 302 429 307 434 c 1
 348 432 363 429 404 429 c 0
 442 429 462 432 502 434 c 1
 504 428 506 405 501 405 c 0
 486 405 453 405 453 366 c 0
 453 349 475 300 563 120 c 1
 605 247 645 346 645 370 c 0
EndSplineSet
Validated: 1
Substitution2: "'smcp' Lowercase to Small Capitals in Greek lookup 0 subtable" w.sc
EndChar

StartChar: x
Encoding: 120 120 88
Width: 528
GlyphClass: 2
Flags: W
HStem: -3 29<29.0065 88.6097 176.187 231.994 283.003 327.05 439.271 493.997> 405 29<38.0511 93.6901 205.273 247.953 284.001 340.181 426.233 484.997>
VStem: 228 69<207 247.312>
LayerCount: 2
Fore
SplineSet
38 420 m 9
 38 420 40 430 42 434 c 9
 81 432 103 429 142 429 c 27
 183 429 206 432 247 434 c 17
 248 430 248 427 248 422 c 27
 248 415 247 405 245 405 c 0
 229 405 205 403 205 388 c 0
 205 385 207 381 210 376 c 10
 275 275 l 17
 302 317 341 367 341 387 c 0
 341 407 294 402 287 405 c 0
 284 406 284 414 284 421 c 3
 284 426 284 430 287 434 c 9
 328 432 351 429 392 429 c 27
 428 429 448 432 483 434 c 25
 484 429 485 426 485 420 c 27
 485 414 484 405 482 405 c 0
 448 401 408 387 395 371 c 2
 299 246 l 2
 297 243 297 242 297 239 c 27
 297 235 298 232 300 228 c 2
 407 70 l 2
 430 36 464 28 491 26 c 0
 493 26 494 18 494 12 c 27
 494 6 493 1 490 -3 c 9
 453 -1 433 2 396 2 c 27
 353 2 328 -1 285 -3 c 25
 284 2 283 5 283 10 c 27
 283 16 283 26 286 26 c 0
 300 27 328 32 328 44 c 0
 328 46 327 48 326 50 c 2
 250 170 l 17
 181 67 l 2
 176 59 174 53 174 48 c 0
 174 29 206 28 229 26 c 0
 231 26 232 17 232 11 c 27
 232 5 230 -1 228 -3 c 9
 189 -1 167 2 128 2 c 27
 90 2 69 -1 31 -3 c 17
 30 1 29 5 29 11 c 27
 29 17 31 26 33 26 c 0
 65 31 100 37 123 68 c 18
 227 207 l 25
 227 209 228 211 228 213 c 27
 228 215 227 217 226 219 c 25
 123 370 l 18
 110 389 61 405 41 405 c 0
 39 405 38 420 38 420 c 9
EndSplineSet
Validated: 1
Substitution2: "'smcp' Lowercase to Small Capitals in Greek lookup 0 subtable" x.sc
EndChar

StartChar: y
Encoding: 121 121 89
Width: 577
GlyphClass: 2
Flags: W
HStem: -227 72<44.5647 156.328> 405 29<26.0511 77.9407 192.151 243.993 346.051 405.381 492.312 548.993>
LayerCount: 2
Fore
SplineSet
138 429 m 0
 176 429 202 432 242 434 c 1
 243 431 244 424 244 419 c 0
 244 413 243 405 240 405 c 0
 232 405 189 395 186 384 c 1
 186 382 l 2
 186 368 230 258 301 97 c 1
 407 343 l 2
 412 355 415 366 415 373 c 0
 415 393 385 405 350 405 c 0
 348 405 346 412 346 418 c 0
 346 424 348 432 350 434 c 1
 391 432 404 429 445 429 c 0
 483 429 507 432 547 434 c 1
 548 431 549 424 549 419 c 0
 549 413 548 405 545 405 c 0
 537 405 484 398 471 370 c 2
 471 370 343 88 277 -45 c 0
 194 -213 127 -227 83 -227 c 0
 71 -227 56 -224 44 -216 c 1
 41 -209 40 -199 40 -196 c 3
 40 -163 65 -155 101 -155 c 0
 119 -155 143 -154 172 -126 c 0
 198 -101 225 -55 252 0 c 1
 215 85 107 350 107 350 c 2
 104 357 96 375 87 384 c 0
 74 397 42 405 30 405 c 0
 28 405 26 412 26 418 c 0
 26 424 28 432 30 434 c 1
 71 432 97 429 138 429 c 0
EndSplineSet
Validated: 1
Substitution2: "'smcp' Lowercase to Small Capitals in Greek lookup 0 subtable" y.sc
EndChar

StartChar: z
Encoding: 122 122 90
Width: 433
GlyphClass: 2
Flags: W
HStem: 0 40<133.007 336.308> 385 39<93.4097 283.509> 412 20G<370.5 393.5>
VStem: 368 37<78.3813 129.861>
LayerCount: 2
Fore
SplineSet
133 47 m 0xb0
 133 42 143 40 145 40 c 2
 276 40 l 2
 337 40 356 77 368 120 c 0
 369 125 370 131 376 131 c 0
 388 131 400 127 405 119 c 1
 384 0 l 1
 47 0 l 1
 47 0 27 12 27 23 c 0
 27 24 27 26 28 27 c 2
 285 384 l 1
 136 385 l 2
 79 385 79 330 71 312 c 0
 69 308 57 306 47 306 c 0
 41 306 36 307 36 309 c 0
 36 323 49 377 52 430 c 1
 52 430 111 424 147 424 c 2
 269 424 l 2xd0
 323 424 350 427 391 432 c 1
 396 424 394 413 394 408 c 1
 140 61 l 2
 135 54 133 50 133 47 c 0xb0
EndSplineSet
Validated: 1
Substitution2: "'smcp' Lowercase to Small Capitals in Greek lookup 0 subtable" z.sc
EndChar

StartChar: braceleft
Encoding: 123 123 91
Width: 253
GlyphClass: 2
Flags: W
HStem: -125 29<183.624 228.873> 721 29<180.243 229.125>
VStem: 69 51<-37.9259 95.9466 530.055 673.266> 117 54<144.28 265.064 357.268 480.046>
LayerCount: 2
Fore
SplineSet
26 292 m 1xd0
 24 296 23 303 23 310 c 0
 23 316 24 324 27 329 c 1
 71 340 117 353 117 406 c 0xd0
 117 458 67 514 67 575 c 0
 67 689 141 750 226 750 c 0
 229 750 230 746 230 742 c 0
 230 734 225 722 219 721 c 0
 188 719 120 678 120 613 c 0xe0
 120 540 170 507 170 423 c 0
 170 358 122 309 86 308 c 1
 122 307 171 262 171 197 c 0xd0
 171 113 120 91 120 18 c 0
 120 -47 188 -94 219 -96 c 0
 225 -97 230 -110 230 -118 c 0
 230 -122 229 -125 226 -125 c 0
 141 -125 69 -49 69 55 c 0xe0
 69 114 117 167 117 219 c 0
 117 272 68 279 26 292 c 1xd0
EndSplineSet
Validated: 1
Substitution2: "'smcp' Lowercase to Small Capitals in Greek lookup 0 subtable" braceleft.sc
Substitution2: "'smcp' Lowercase to Small Capitals in Greek lookup 0 subtable" braceleft.sc
Substitution2: "'c2sc' Capitals to Small Capitals in Greek lookup 0 subtable" braceleft.sc
EndChar

StartChar: bar
Encoding: 124 124 92
Width: 138
GlyphClass: 2
Flags: W
VStem: 37 64<-115.908 764.903>
LayerCount: 2
Fore
SplineSet
101 -106 m 1
 101 -114 44 -123 42 -123 c 0
 35 -123 37 -119 37 -115 c 2
 37 757 l 1
 37 757 36 763 42 765 c 0
 59 770 89 772 92 772 c 0
 101 772 100 766 100 766 c 1
 101 -106 l 1
EndSplineSet
Validated: 1
Substitution2: "'smcp' Lowercase to Small Capitals in Greek lookup 0 subtable" bar.sc
Substitution2: "'smcp' Lowercase to Small Capitals in Greek lookup 0 subtable" bar.sc
Substitution2: "'c2sc' Capitals to Small Capitals in Greek lookup 0 subtable" bar.sc
EndChar

StartChar: braceright
Encoding: 125 125 93
Width: 253
GlyphClass: 2
Flags: W
HStem: -125 29<23.1272 68.3765> 721 29<22.875 71.7571>
VStem: 81 54<144.28 265.064 357.268 480.046> 132 51<-37.9259 95.9466 530.055 673.266>
LayerCount: 2
Fore
SplineSet
226 292 m 1xe0
 184 279 135 272 135 219 c 0xe0
 135 167 183 114 183 55 c 0
 183 -49 111 -125 26 -125 c 0
 23 -125 22 -122 22 -118 c 0
 22 -110 27 -97 33 -96 c 0
 64 -94 132 -47 132 18 c 0xd0
 132 91 81 113 81 197 c 0xe0
 81 262 130 307 166 308 c 1
 130 309 82 358 82 423 c 0
 82 507 132 540 132 613 c 0xd0
 132 678 64 719 33 721 c 0
 27 722 22 734 22 742 c 0
 22 746 23 750 26 750 c 0
 111 750 185 689 185 575 c 0
 185 514 135 458 135 406 c 0
 135 353 181 340 225 329 c 1
 228 324 229 316 229 310 c 0
 229 303 228 296 226 292 c 1xe0
EndSplineSet
Validated: 1
Substitution2: "'smcp' Lowercase to Small Capitals in Greek lookup 0 subtable" braceright.sc
Substitution2: "'smcp' Lowercase to Small Capitals in Greek lookup 0 subtable" braceright.sc
Substitution2: "'c2sc' Capitals to Small Capitals in Greek lookup 0 subtable" braceright.sc
EndChar

StartChar: asciitilde
Encoding: 126 126 94
Width: 525
GlyphClass: 2
Flags: W
HStem: 250 51<290.203 448.147> 303 51<78.2887 236.31>
LayerCount: 2
Fore
SplineSet
39 259 m 5
 33 262 30 268 30 276 c 4
 30 291 42 306 54 315 c 4
 95 346 116 354 160 354 c 4
 254 354 302 301 396 301 c 4
 435 301 457 322 486 345 c 5
 492 342 495 336 495 328 c 4
 495 313 484 298 472 289 c 4
 431 258 411 250 367 250 c 4
 272 250 225 303 130 303 c 4
 91 303 68 282 39 259 c 5
EndSplineSet
Validated: 1
Substitution2: "'smcp' Lowercase to Small Capitals in Greek lookup 0 subtable" asciitilde.sc
Substitution2: "'smcp' Lowercase to Small Capitals in Greek lookup 0 subtable" asciitilde.sc
Substitution2: "'c2sc' Capitals to Small Capitals in Greek lookup 0 subtable" asciitilde.sc
EndChar

StartChar: exclamdown
Encoding: 161 161 96
Width: 166
GlyphClass: 2
Flags: W
HStem: 316 116<37.8481 126.745>
VStem: 25 115<327.997 419.236> 35 97<-213.133 96.5595>
LayerCount: 2
Fore
SplineSet
80 -224 m 0xa0
 49 -224 35 -192 35 -161 c 0
 35 -133 51 -23 66 237 c 0
 67 257 70 261 90 270 c 0
 97 273 102 260 103 248 c 0
 122 -59 132 -110 132 -161 c 0
 132 -193 112 -224 80 -224 c 0xa0
25 373 m 0xc0
 25 405 50 432 82 432 c 0
 114 432 140 405 140 373 c 0
 140 341 114 316 82 316 c 0
 50 316 25 341 25 373 c 0xc0
EndSplineSet
Validated: 1
Substitution2: "'smcp' Lowercase to Small Capitals in Greek lookup 0 subtable" exclamdown.sc
Substitution2: "'smcp' Lowercase to Small Capitals in Greek lookup 0 subtable" exclamdown.sc
Substitution2: "'c2sc' Capitals to Small Capitals in Greek lookup 0 subtable" exclamdown.sc
EndChar

StartChar: cent
Encoding: 162 162 97
Width: 422
GlyphClass: 2
Flags: W
HStem: -7 53<234.706 329.409> 335 105<315.219 362.001> 401 41<171.264 244>
VStem: 28 85<130.742 306.107>
LayerCount: 2
Fore
SplineSet
348 335 m 0xd0
 322 335 315 366 288 384 c 1
 234 52 l 1
 249 48 268 46 287 46 c 0
 350 46 381 92 381 92 c 1
 386 92 388 92 389 91 c 0
 391 89 396 80 396 71 c 0
 396 68 395 65 394 63 c 0
 369 38 319 -7 237 -7 c 2
 224 -7 l 1
 214 -70 l 1
 214 -70 214 -74 200 -74 c 0
 193 -74 183 -72 173 -66 c 0
 168 -63 169 -58 169 -58 c 1
 179 1 l 1
 94 27 28 108 28 205 c 0
 28 329 121 442 240 442 c 2
 251 442 l 1xb0
 259 494 l 1
 259 494 257 499 268 499 c 0
 269 499 270 499 271 499 c 0
 301 499 304 483 304 483 c 1
 297 440 l 1
 338 433 394 408 394 385 c 0
 394 370 385 335 348 335 c 0xd0
190 70 m 1
 244 399 l 1
 237 400 229 401 222 401 c 0
 157 401 113 322 113 232 c 0
 113 169 133 104 190 70 c 1
EndSplineSet
Validated: 1
Substitution2: "'smcp' Lowercase to Small Capitals in Greek lookup 0 subtable" cent.sc
Substitution2: "'smcp' Lowercase to Small Capitals in Greek lookup 0 subtable" cent.sc
Substitution2: "'c2sc' Capitals to Small Capitals in Greek lookup 0 subtable" cent.sc
EndChar

StartChar: sterling
Encoding: 163 163 98
Width: 473
GlyphClass: 2
Flags: W
HStem: -5 70<269.321 389.749> 29 72<130.837 257.51> 307 53<26.7191 100 189.001 344.468> 598 44<205.698 297.032>
VStem: 90 73<362.587 535.427> 118 74<154.249 307>
LayerCount: 2
Fore
SplineSet
180 360 m 4x78
 243 360 342 360 342 360 c 6
 344 360 348 359 348 351 c 4
 348 333 340 318 339 314 c 4
 337 308 332 307 332 307 c 5
 332 307 247 307 192 307 c 4
 190 307 189 306 189 304 c 20
 191 292 192 279 192 265 c 15
 192 190 172 144 130 82 c 5
 149 92 164 101 208 101 c 7x74
 262 101 300 65 339 65 c 4
 388 65 414 110 440 143 c 5
 443 143 449 130 449 120 c 31
 449 116 449 113 448 111 c 4
 434 74 402 -5 331 -5 c 7xb4
 266 -5 209 29 159 29 c 7
 115 29 88 1 72 -7 c 5
 48 -2 33 13 39 18 c 4
 53 28 118 153 118 247 c 23x74
 118 268 116 286 113 303 c 12
 113 305 110 307 108 307 c 4
 78 307 30 307 30 307 c 5
 30 307 24 306 24 316 c 4
 24 318 27 360 38 360 c 6
 38 360 75 360 98 360 c 4
 100 360 100 362 100 364 c 20
 94 389 90 415 90 447 c 15
 90 555 180 642 288 642 c 31
 326 642 362 629 378 605 c 5
 378 587 374 546 348 546 c 31
 307 546 297 598 256 598 c 31
 188 598 163 517 163 449 c 23
 163 415 170 387 176 363 c 4
 176 362 177 360 180 360 c 4x78
EndSplineSet
Validated: 33
Substitution2: "'smcp' Lowercase to Small Capitals in Greek lookup 0 subtable" sterling.sc
Substitution2: "'smcp' Lowercase to Small Capitals in Greek lookup 0 subtable" sterling.sc
Substitution2: "'c2sc' Capitals to Small Capitals in Greek lookup 0 subtable" sterling.sc
EndChar

StartChar: currency
Encoding: 164 164 99
Width: 468
GlyphClass: 2
Flags: W
HStem: 120 32<191.525 286.572> 463 33<176.384 271.636>
VStem: 48 73<224.803 397.542> 341 72<218.015 391.134>
LayerCount: 2
Back
SplineSet
319.451 416.492 m 1
 298.044 445.238 269.457 463 239 463 c 0
 214.084 463 192.337 451.822 175.328 433.417 c 1
 251.33 352.505 l 1
 319.451 416.492 l 1
146.252 253.804 m 1
 207.495 311.33 l 1
 144.661 378.223 l 1
 139.036 360.217 136 340.434 136 320 c 0
 136 296.566 139.698 274.17 146.252 253.804 c 1
174.861 198.165 m 1
 196.72 169.621 225.665 152 256 152 c 0
 283.456 152 306.658 165.574 323.873 187.433 c 1
 248.67 267.495 l 1
 174.861 198.165 l 1
347.376 360.211 m 1
 292.505 308.67 l 1
 351.242 246.138 l 1
 355.011 261.549 357 278.051 357 295 c 0
 357 318.057 353.546 340.109 347.376 360.211 c 1
EndSplineSet
Fore
SplineSet
240 152 m 0
 301 152 341 219 341 294 c 0
 341 386 286 463 223 463 c 0
 162 463 121 394 121 319 c 0
 121 227 177 152 240 152 c 0
344 455 m 1
 403 510 l 2
 411 518 437 490 444 466 c 1
 384 410 l 1
 402 380 413 344 413 307 c 0
 413 267 401 230 380 199 c 1
 434 141 l 2
 442 133 414 107 390 100 c 1
 338 155 l 1
 308 133 272 120 232 120 c 0
 189 120 149 135 118 160 c 1
 65 110 l 2
 57 102 31 130 24 154 c 1
 78 205 l 1
 59 235 48 270 48 307 c 0
 48 351 62 391 86 423 c 1
 34 479 l 2
 26 487 54 513 78 520 c 1
 130 465 l 1
 159 485 194 496 232 496 c 0
 275 496 313 481 344 455 c 1
EndSplineSet
Validated: 33
Substitution2: "'smcp' Lowercase to Small Capitals in Greek lookup 0 subtable" currency.sc
Substitution2: "'smcp' Lowercase to Small Capitals in Greek lookup 0 subtable" currency.sc
Substitution2: "'c2sc' Capitals to Small Capitals in Greek lookup 0 subtable" currency.sc
EndChar

StartChar: yen
Encoding: 165 165 100
Width: 658
GlyphClass: 2
Flags: W
HStem: -3 27<202.006 257.891 377.323 429.973> 133 44<190.064 276 360 441.992> 218 45<190.051 276 360 441.968> 615 27<23.1131 80.304 219.598 269.234 399.074 454.991 565.397 633.965>
VStem: 276 84<35.5801 133 177 218 263 313.472> 469 165<569 629.5>
LayerCount: 2
Fore
SplineSet
143 636 m 0
 191 636 229 640 268 642 c 1
 270 636 271 615 266 615 c 0
 252 615 208 608 208 583 c 0
 208 575 212 565 218 554 c 2
 327 348 l 1
 332 343 335 347 337 350 c 0
 393 435 469 554 469 584 c 0
 469 597 443 615 402 615 c 0
 397 615 397 637 402 642 c 1
 438 640 458 636 494 636 c 0
 544 636 593 640 632 642 c 1
 633 639 634 632 634 627 c 0
 634 621 633 615 630 615 c 0
 622 615 552 605 537 586 c 1
 516 553 360 303 360 282 c 2
 360 263 l 1
 435 263 l 1
 435 263 439 264 441 250 c 0
 441 246 442 243 442 240 c 0
 442 219 431 218 431 218 c 1
 360 218 l 1
 360 177 l 1
 435 177 l 1
 435 177 439 179 441 165 c 0
 441 161 442 158 442 155 c 0
 442 134 431 133 431 133 c 1
 360 133 l 17
 360 107 360 73 367 46 c 0
 370 35 418 24 426 24 c 0
 429 24 430 18 430 12 c 0
 430 6 429 0 428 -3 c 1
 389 -1 362 2 320 2 c 0
 276 2 250 -1 206 -3 c 1
 204 -1 202 5 202 10 c 0
 202 17 203 24 206 24 c 0
 218 24 263 34 268 46 c 1
 274 69 276 102 276 133 c 9
 198 133 l 1
 198 133 191 129 190 143 c 1
 190 153 l 2
 190 174 200 177 200 177 c 1
 276 177 l 1
 276 218 l 1
 198 218 l 1
 198 218 191 216 190 230 c 0
 190 233 190 236 190 239 c 0
 190 260 200 263 200 263 c 1
 276 263 l 1
 276 266 276 268 275 270 c 4
 272 283 258 311 134 532 c 0
 115 568 111 572 91 594 c 0
 78 608 39 615 27 615 c 0
 25 615 23 620 23 626 c 0
 23 632 25 640 27 642 c 1
 75 640 95 636 143 636 c 0
EndSplineSet
Validated: 1
Substitution2: "'smcp' Lowercase to Small Capitals in Greek lookup 0 subtable" yen.sc
Substitution2: "'smcp' Lowercase to Small Capitals in Greek lookup 0 subtable" yen.sc
Substitution2: "'c2sc' Capitals to Small Capitals in Greek lookup 0 subtable" yen.sc
EndChar

StartChar: brokenbar
Encoding: 166 166 101
Width: 137
GlyphClass: 2
Flags: W
VStem: 37 63<-116.969 256.903 386.964 760.903>
LayerCount: 2
Fore
SplineSet
37 389 m 2
 37 753 l 1
 37 753 36 759 42 761 c 0
 59 766 88 768 91 768 c 0
 100 768 99 762 99 762 c 1
 100 397 l 1
 96 394 101 389 48 382 c 0
 34 380 37 384 37 389 c 2
37 -115 m 2
 37 249 l 1
 37 249 36 255 42 257 c 0
 59 262 88 264 91 264 c 0
 100 264 99 258 99 258 c 1
 100 -106 l 1
 96 -109 101 -115 48 -122 c 0
 45 -122 44 -123 42 -123 c 0
 35 -123 37 -119 37 -115 c 2
EndSplineSet
Validated: 1
Substitution2: "'smcp' Lowercase to Small Capitals in Greek lookup 0 subtable" brokenbar.sc
Substitution2: "'smcp' Lowercase to Small Capitals in Greek lookup 0 subtable" brokenbar.sc
Substitution2: "'c2sc' Capitals to Small Capitals in Greek lookup 0 subtable" brokenbar.sc
EndChar

StartChar: section
Encoding: 167 167 102
Width: 382
GlyphClass: 2
Flags: W
HStem: -41 40<153.251 243.022> 611 40<138.62 226.743>
VStem: 26 46<323.132 431.384> 71 52<489.168 594.793> 257 52<12.6278 121.408> 308 46<179.945 285.001>
LayerCount: 2
Back
SplineSet
82 518 m 4xd0
 82 608 150 651 228 651 c 4
 278 651 306 630 316 615 c 5
 316 611 317 606 317 602 c 4
 317 563 299 557 286 557 c 4
 256 557 240 611 195 611 c 4
 167 611 134 593 134 547 c 4
 134 416 364 460 364 281 c 4
 364 275 365 269 365 263 c 4xd4
 365 195 329 156 306 140 c 5
 311 129 320 111 320 90 c 4
 320 -16 231 -41 174 -41 c 4
 124 -41 95 -22 85 -7 c 5
 85 -3 84 3 84 7 c 4
 84 46 103 52 116 52 c 4
 146 52 162 -1 207 -1 c 4
 243 -1 268 22 268 62 c 4
 268 197 37 143 37 345 c 4xe8
 37 414 64 446 96 469 c 5
 89 481 82 500 82 518 c 4xd0
293 173 m 5
 305 185 319 196 319 225 c 4
 319 338 164 340 109 435 c 5
 94 423 83 405 83 383 c 4xe4
 83 270 236 270 293 173 c 5
EndSplineSet
Fore
SplineSet
354 263 m 4xd4
 354 195 318 156 295 140 c 5
 300 129 309 111 309 90 c 4
 309 -16 220 -41 163 -41 c 4
 113 -41 84 -22 74 -7 c 5
 74 -3 73 3 73 7 c 4
 73 46 92 52 105 52 c 4
 135 52 151 -1 196 -1 c 4
 232 -1 257 22 257 62 c 4
 257 197 26 143 26 345 c 4xe8
 26 414 53 446 85 469 c 5
 78 481 71 500 71 518 c 4
 71 608 139 651 217 651 c 4
 267 651 295 630 305 615 c 5
 305 611 306 606 306 602 c 4
 306 563 288 557 275 557 c 4
 245 557 229 611 184 611 c 4
 156 611 123 593 123 547 c 4
 123 416 354 465 354 263 c 4xd4
282 173 m 5
 294 185 308 196 308 225 c 4xe4
 308 338 153 340 98 435 c 5
 83 423 72 405 72 383 c 4
 72 270 225 270 282 173 c 5
EndSplineSet
Validated: 1
Substitution2: "'smcp' Lowercase to Small Capitals in Greek lookup 0 subtable" section.sc
Substitution2: "'smcp' Lowercase to Small Capitals in Greek lookup 0 subtable" section.sc
Substitution2: "'c2sc' Capitals to Small Capitals in Greek lookup 0 subtable" section.sc
EndChar

StartChar: dieresis
Encoding: 168 168 103
Width: 333
GlyphClass: 2
Flags: W
HStem: 468 98<36.0176 118.299 219.018 301.299>
VStem: 27 100<476.719 556.943> 210 100<476.719 556.943>
LayerCount: 2
Fore
SplineSet
261 566 m 31
 288 566 310 543 310 516 c 31
 310 489 287 468 260 468 c 31
 233 468 210 490 210 517 c 31
 210 544 234 566 261 566 c 31
78 566 m 31
 105 566 127 543 127 516 c 31
 127 489 104 468 77 468 c 31
 50 468 27 490 27 517 c 31
 27 544 51 566 78 566 c 31
EndSplineSet
Validated: 1
EndChar

StartChar: copyright
Encoding: 169 169 104
Width: 603
GlyphClass: 2
Flags: W
HStem: 69 31<219.455 383.652> 195 32<268.319 388.675> 449 34<261.437 376.899> 584 31<219.455 383.652>
VStem: 28 33<256.704 427.296> 159 57<271.691 409.392> 544 31<259.894 424.106>
LayerCount: 2
Fore
SplineSet
428 276 m 1
 428 273 415 217 408 214 c 0
 376 201 344 195 302 195 c 0
 221 195 159 257 159 336 c 0
 159 416 217 483 300 483 c 0
 330 483 378 477 412 464 c 1
 412 464 428 407 428 403 c 0
 428 398 419 394 412 394 c 3
 409 394 407 395 405 396 c 1
 402 409 383 449 312 449 c 0
 258 449 216 400 216 345 c 0
 216 264 275 227 321 227 c 0
 351 227 380 234 393 246 c 0
 405 257 406 279 408 279 c 3
 411 279 427 278 428 276 c 1
28 342 m 0
 28 493 150 615 301 615 c 0
 452 615 575 493 575 342 c 0
 575 191 452 69 301 69 c 0
 150 69 28 191 28 342 c 0
61 342 m 0
 61 209 169 100 302 100 c 0
 435 100 544 209 544 342 c 0
 544 475 435 584 302 584 c 0
 169 584 61 475 61 342 c 0
EndSplineSet
Validated: 1
EndChar

StartChar: ordfeminine
Encoding: 170 170 105
Width: 316
GlyphClass: 2
Flags: W
HStem: 249 40<92.6702 159.815 236.858 280.203> 529 27<102.959 168.863>
VStem: 28 60<292.669 364.371 457.505 505.367> 181 55<297.802 392 415.594 523.42>
LayerCount: 2
Fore
SplineSet
181 324 m 2
 181 392 l 1
 150 379 88 373 88 328 c 0
 88 302 106 289 128 289 c 0
 153 289 181 309 181 324 c 2
236 318 m 2
 236 300 245 283 262 283 c 0
 276 283 286 294 287 293 c 0
 289 292 290 291 290 290 c 0
 289 287 287 279 286 273 c 1
 275 265 255 250 238 250 c 0
 215 250 194 275 188 291 c 1
 184 289 149 249 102 249 c 0
 63 249 28 269 28 317 c 0
 28 382 122 402 175 421 c 0
 179 422 181 426 181 431 c 2
 181 489 l 2
 181 514 159 529 134 529 c 0
 106 529 86 509 86 478 c 0
 86 461 67 456 52 456 c 0
 43 456 31 457 31 467 c 0
 31 507 101 556 160 556 c 0
 217 556 236 532 236 484 c 2
 236 318 l 2
EndSplineSet
Validated: 1
EndChar

StartChar: guillemotleft
Encoding: 171 171 106
Width: 469
GlyphClass: 2
Flags: W
LayerCount: 2
Fore
SplineSet
294 247 m 5
 381 157 l 1
 434 104 442 102 442 91 c 0
 442 79 425 76 419 73 c 1
 418 75 360 132 213 227 c 1
 208 229 206 235 206 241 c 0
 206 251 207 260 214 268 c 1
 345 347 419 422 420 423 c 1
 443 417 443 408 443 404 c 0
 443 396 439 392 382 338 c 0
 359 316 313 266 294 247 c 5
115 247 m 1
 202 157 l 1
 255 104 263 102 263 91 c 0
 263 79 246 76 240 73 c 1
 239 75 181 132 34 227 c 1
 29 229 27 235 27 241 c 0
 27 251 28 260 35 268 c 1
 166 347 240 422 241 423 c 1
 264 417 264 408 264 404 c 0
 264 396 260 392 203 338 c 0
 180 316 134 266 115 247 c 1
EndSplineSet
Validated: 1
Substitution2: "'smcp' Lowercase to Small Capitals in Greek lookup 0 subtable" guillemotleft.sc
Substitution2: "'smcp' Lowercase to Small Capitals in Greek lookup 0 subtable" guillemotleft.sc
Substitution2: "'c2sc' Capitals to Small Capitals in Greek lookup 0 subtable" guillemotleft.sc
EndChar

StartChar: logicalnot
Encoding: 172 172 107
Width: 538
GlyphClass: 2
Flags: W
HStem: 364 56<32.988 440>
VStem: 440 60<158.845 363.996>
LayerCount: 2
Fore
SplineSet
29 374 m 1
 29 374 34 420 44 420 c 0
 192 420 340 420 488 420 c 0
 494 420 500 419 500 409 c 2
 500 169 l 1
 499 168 502 161 451 154 c 1
 447 154 l 2
 437 154 440 161 440 161 c 1
 440 354 l 2
 440 358 436 364 429 364 c 2
 35 364 l 1
 35 364 29 364 29 374 c 1
EndSplineSet
Validated: 1
EndChar

StartChar: registered
Encoding: 174 174 108
Width: 604
GlyphClass: 2
Flags: W
HStem: 133 32<220.455 384.652> 273 12<175.069 201.326 266.922 290.655 435.311 455.963> 406 22<259.308 292.999> 529 25<260.001 329.317> 541 12<177.002 199.775> 648 32<220.455 384.652>
VStem: 29 33<321.65 492.235> 208 51<294.529 405.692 428.775 528.531> 344 50<432.984 522.352> 545 31<324.848 489.045>
LayerCount: 2
Fore
SplineSet
29 407 m 0xe7c0
 29 558 151 680 302 680 c 0
 453 680 576 558 576 407 c 0
 576 256 453 133 302 133 c 0
 151 133 29 256 29 407 c 0xe7c0
62 407 m 0
 62 274 170 165 303 165 c 0
 436 165 545 274 545 407 c 0
 545 540 436 648 303 648 c 0
 170 648 62 540 62 407 c 0
456 280 m 0
 456 273 453 272 441 272 c 0
 379 272 360 286 293 398 c 0
 289 404 282 406 279 406 c 0
 264 408 272 407 261 406 c 0
 260 406 259 403 259 399 c 2
 259 335 l 1
 259 335 260 305 263 294 c 0
 264 290 285 285 289 285 c 0
 291 285 291 276 290 273 c 1
 273 274 246 274 227 274 c 0
 207 274 197 274 177 273 c 1
 176 274 175 278 175 280 c 0
 175 282 176 285 177 285 c 0
 182 285 203 289 205 294 c 0
 207 300 208 311 208 319 c 0
 208 327 207 335 207 335 c 1
 207 490 l 1
 207 490 208 498 208 506 c 0
 208 514 207 525 205 531 c 0
 203 536 183 541 178 541 c 0
 177 541 177 543 177 546 c 0
 177 549 177 552 178 553 c 1xefc0
 178 553 197 550 226 550 c 0
 252 550 274 554 300 554 c 0xf7c0
 335 554 394 535 394 477 c 0
 394 454 378 428 346 414 c 0
 345 414 345 413 345 412 c 0
 345 398 397 331 415 307 c 0
 428 290 442 286 455 286 c 1
 456 284 456 282 456 280 c 0
306 428 m 0
 323 428 344 448 344 474 c 0
 344 508 328 529 294 529 c 0xf7c0
 284 529 269 528 263 526 c 0
 261 526 260 525 260 523 c 0
 259 512 259 486 259 486 c 1
 259 441 l 2
 259 428 286 428 306 428 c 0
EndSplineSet
Validated: 1
EndChar

StartChar: degree
Encoding: 176 176 110
Width: 233
GlyphClass: 2
Flags: W
HStem: 437 37<73.8121 159.842> 597 37<73.8121 159.842>
VStem: 18 37<492.812 578.842> 178 37<492.812 578.842>
LayerCount: 2
Fore
SplineSet
18 536 m 0
 18 590 63 634 117 634 c 0
 171 634 215 590 215 536 c 0
 215 482 171 437 117 437 c 0
 63 437 18 482 18 536 c 0
55 536 m 0
 55 502 83 474 117 474 c 0
 151 474 178 502 178 536 c 0
 178 570 151 597 117 597 c 0
 83 597 55 570 55 536 c 0
EndSplineSet
Validated: 1
EndChar

StartChar: plusminus
Encoding: 177 177 111
Width: 533
GlyphClass: 2
Flags: W
HStem: 6 56<37.0959 494.875> 304 56<36.0959 239 295.001 496.904>
VStem: 239 56<97.3652 303.998 360 562.904>
LayerCount: 2
Fore
SplineSet
491 62 m 1
 491 62 501 63 499 51 c 0
 492 3 486 9 483 6 c 1
 35 6 l 1
 35 6 27 5 29 19 c 0
 31 33 31 37 37 57 c 0
 39 63 44 62 44 62 c 1
 491 62 l 1
295 301 m 2
 295 109 l 1
 295 109 295 99 250 93 c 0
 247 93 246 92 244 92 c 0
 237 92 239 96 239 100 c 2
 239 299 l 2
 239 301 238 304 233 304 c 2
 34 304 l 1
 34 304 28 304 28 314 c 0
 28 318 29 331 36 355 c 0
 38 361 43 360 43 360 c 1
 234 360 l 2
 237 360 239 364 239 366 c 2
 239 556 l 1
 239 556 238 561 244 563 c 0
 268 570 281 571 285 571 c 0
 295 571 295 565 295 565 c 1
 295 365 l 2
 295 362 296 360 299 360 c 2
 499 360 l 2
 503 360 507 362 507 355 c 0
 507 346 503 332 497 310 c 0
 495 304 490 304 490 304 c 1
 299 304 l 2
 296 304 295 303 295 301 c 2
EndSplineSet
Validated: 1
EndChar

StartChar: uni00B2
Encoding: 178 178 112
Width: 338
GlyphClass: 2
Flags: W
HStem: 254 56<111.953 288.381> 594 53<104.388 195.868>
VStem: 211 77<474.226 579.823> 293 19<322.813 348.225>
LayerCount: 2
Fore
SplineSet
149 594 m 0
 125 594 94 575 76 553 c 0
 72 549 54 570 54 578 c 3
 54 579 53 581 55 583 c 0
 80 616 132 647 178 647 c 0
 240 647 288 599 288 542 c 0
 288 449 188 385 112 317 c 0
 111 316 110 310 113 310 c 2
 250 310 l 2
 291 310 287 336 293 346 c 0
 294 348 295 348 298 349 c 0
 301 349 309 347 312 343 c 1
 301 314 298 286 291 254 c 1
 166 255 l 0
 39 254 l 1
 33 257 27 266 27 275 c 0
 27 279 29 283 31 287 c 1
 99 361 211 472 211 532 c 0
 211 559 191 594 149 594 c 0
EndSplineSet
Validated: 33
EndChar

StartChar: uni00B3
Encoding: 179 179 113
Width: 316
GlyphClass: 2
Flags: W
HStem: 247 36<90.2439 183.074> 438 30<91.5625 143.051> 596 51<90.2467 185.335>
VStem: 192 66<515.945 587.737> 217 71<316.668 428.718>
LayerCount: 2
Fore
SplineSet
174 647 m 0xf0
 205 647 258 620 258 569 c 0
 258 525 227 506 192 484 c 1xf0
 219 484 288 451 288 385 c 0
 288 297 197 247 110 247 c 0
 68 247 34 262 27 273 c 1
 27 280 l 2
 27 300 39 317 55 317 c 0
 85 317 95 283 129 283 c 0
 171 283 217 310 217 371 c 0xe8
 217 420 189 444 152 444 c 0
 124 444 131 442 100 438 c 1
 94 444 91 452 91 457 c 0
 91 462 94 466 100 468 c 0
 149 478 192 505 192 554 c 0
 192 580 166 596 140 596 c 0
 97 596 78 558 67 558 c 0
 59 558 52 592 53 593 c 0
 78 624 121 647 174 647 c 0xf0
EndSplineSet
Validated: 33
EndChar

StartChar: paragraph
Encoding: 182 182 116
Width: 496
GlyphClass: 2
Flags: W
HStem: -4 27<168.766 222.329 396.422 453.949> 2 34<285.969 330.139> 291 361<138.617 238> 299 33<284.062 333.998> 316 38<387.472 428.558> 611 37<285.933 331.991> 624 29<385.674 443.812>
VStem: 46 238<385.584 555.804> 238 48<36.4405 290.905> 334 43<92.3594 298.999 349 603.643>
LayerCount: 2
Fore
SplineSet
284 286 m 2x5140
 286 49 l 2x50c0
 286 40 300 36 310 36 c 0
 320 36 330 44 330 50 c 0
 333 84 334 189 334 295 c 0
 334 298 332 299 330 299 c 0
 326 299 317 296 291 293 c 0
 285 292 284 291 284 286 c 2x5140
217 652 m 0xa140
 276 652 269 648 328 648 c 0x0540
 395 648 441 653 441 653 c 1
 446 648 446 624 441 624 c 0
 429 624 385 616 380 604 c 0
 378 597 377 551 377 500 c 0
 377 439 378 369 378 350 c 0
 378 346 381 345 383 346 c 2
 426 354 l 1
 428 350 430 345 430 341 c 0
 429 331 421 319 410 316 c 2
 384 309 l 2
 382 308 379 306 379 304 c 0
 379 275 379 71 386 45 c 1
 391 33 438 23 450 23 c 0
 452 23 454 17 454 11 c 0
 454 5 452 -2 450 -4 c 1x8b40
 387 -2 352 2 289 2 c 0x4140
 243 2 210 -2 170 -4 c 1
 168 2 167 23 172 23 c 0
 180 23 230 34 233 45 c 0
 237 62 238 122 238 183 c 2
 238 284 l 2x80c0
 238 291 234 291 218 291 c 0
 103 291 46 399 46 469 c 0
 46 578 135 652 217 652 c 0xa140
286 599 m 2x14c0
 286 599 284 440 284 338 c 0x1540
 284 335 287 332 292 332 c 0
 307 333 329 338 329 338 c 2
 331 338 334 340 334 344 c 0
 334 470 333 587 332 600 c 0
 332 604 319 611 309 611 c 0
 299 611 286 610 286 599 c 2x14c0
EndSplineSet
Validated: 1
Substitution2: "'smcp' Lowercase to Small Capitals in Greek lookup 0 subtable" paragraph.sc
Substitution2: "'smcp' Lowercase to Small Capitals in Greek lookup 0 subtable" paragraph.sc
Substitution2: "'c2sc' Capitals to Small Capitals in Greek lookup 0 subtable" paragraph.sc
EndChar

StartChar: periodcentered
Encoding: 183 183 117
Width: 203
GlyphClass: 2
Flags: W
HStem: 205 117<60.2549 149.745>
VStem: 47 116<217.764 309.619>
LayerCount: 2
Fore
SplineSet
47 264 m 0
 47 296 73 322 105 322 c 0
 137 322 163 296 163 264 c 0
 163 232 137 205 105 205 c 0
 73 205 47 232 47 264 c 0
EndSplineSet
Validated: 1
Substitution2: "'smcp' Lowercase to Small Capitals in Greek lookup 0 subtable" periodcentered.sc
Substitution2: "'smcp' Lowercase to Small Capitals in Greek lookup 0 subtable" periodcentered.sc
Substitution2: "'c2sc' Capitals to Small Capitals in Greek lookup 0 subtable" periodcentered.sc
EndChar

StartChar: uni00B9
Encoding: 185 185 119
Width: 272
GlyphClass: 2
Flags: W
HStem: 253 25<42.7773 100.633 192.725 244.951>
VStem: 108 74<293.746 568.147>
LayerCount: 2
Fore
SplineSet
38 554 m 1
 32 557 24 558 24 570 c 0
 24 573 25 577 27 578 c 0
 133 622 174 652 177 652 c 2
 179 652 l 2
 185 652 190 632 191 629 c 1
 191 629 182 587 182 548 c 2
 182 340 l 2
 182 320 183 309 190 293 c 0
 193 286 233 279 241 279 c 0
 244 279 245 270 245 263 c 0
 245 259 245 255 244 253 c 1
 205 254 185 256 146 256 c 0
 107 256 85 254 46 253 c 1
 41 256 41 278 46 278 c 0
 58 278 99 285 102 292 c 0
 107 305 108 313 108 323 c 0
 108 388 108 453 108 518 c 0
 108 564 100 569 89 569 c 0
 77 569 58 561 38 554 c 1
EndSplineSet
Validated: 1
EndChar

StartChar: ordmasculine
Encoding: 186 186 120
Width: 370
GlyphClass: 2
Flags: W
HStem: 247 24<154.771 230.041> 529 25<142.39 220.196>
VStem: 29 69<322.561 478.383> 272 69<321.143 478.777>
LayerCount: 2
Fore
SplineSet
180 529 m 0
 124 529 98 467 98 411 c 0
 98 345 129 271 195 271 c 0
 250 271 272 336 272 391 c 0
 272 456 245 529 180 529 c 0
187 554 m 0
 274 554 341 482 341 399 c 0
 341 316 274 247 187 247 c 0
 100 247 29 316 29 399 c 0
 29 484 98 554 187 554 c 0
EndSplineSet
Validated: 1
EndChar

StartChar: guillemotright
Encoding: 187 187 121
Width: 471
GlyphClass: 2
Flags: W
LayerCount: 2
Fore
SplineSet
51 73 m 1
 28 79 28 87 28 91 c 0
 28 102 38 107 88 157 c 1
 175 247 l 1
 156 266 110 316 87 338 c 0
 28 395 27 396 27 404 c 0
 27 416 44 420 50 423 c 1
 52 421 125 347 255 268 c 1
 262 260 264 251 264 241 c 0
 264 235 261 229 256 227 c 1
 129 145 63 86 51 73 c 1
230 73 m 1
 207 79 207 87 207 91 c 0
 207 102 218 107 268 157 c 1
 355 247 l 1
 336 266 290 316 267 338 c 0
 208 395 206 396 206 404 c 0
 206 416 223 420 229 423 c 1
 231 421 305 347 435 268 c 1
 442 260 443 251 443 241 c 0
 443 235 441 229 436 227 c 1
 309 145 242 86 230 73 c 1
EndSplineSet
Validated: 1
Substitution2: "'smcp' Lowercase to Small Capitals in Greek lookup 0 subtable" guillemotright.sc
Substitution2: "'smcp' Lowercase to Small Capitals in Greek lookup 0 subtable" guillemotright.sc
Substitution2: "'c2sc' Capitals to Small Capitals in Greek lookup 0 subtable" guillemotright.sc
EndChar

StartChar: onequarter
Encoding: 188 188 122
Width: 670
GlyphClass: 2
Flags: W
HStem: -5 21G<554.5 587.5> 115 43<424.91 532.952 602.001 645.677> 251 24<40.7773 92.3286 185.83 235.93> 625 20G<521 526>
VStem: 102 70<291.746 554.996> 533 69<-4.7273 114.547 159 296.089>
LayerCount: 2
Fore
SplineSet
573 -5 m 0
 536 -5 533 -3 533 4 c 2
 533 112 l 1
 532 115 530 115 528 115 c 2
 379 115 l 1
 375 120 367 130 366 141 c 1
 562 390 l 2
 566 395 577 398 585 398 c 0
 594 398 602 395 602 390 c 2
 602 163 l 2
 602 160 604 159 607 159 c 2
 634 159 l 2
 644 159 646 151 646 121 c 0
 646 117 640 115 640 115 c 1
 605 114 l 2
 603 114 602 112 602 109 c 2
 602 0 l 1
 599 -3 602 -5 573 -5 c 0
533 163 m 2
 533 292 l 2
 533 294 529 298 528 296 c 0
 483 243 471 223 425 166 c 0
 423 164 426 158 429 158 c 2
 527 158 l 2
 529 158 533 159 533 163 c 2
556 617 m 1
 208 -14 l 1
 208 -14 208 -16 204 -16 c 0
 201 -16 183 -13 170 3 c 0
 166 7 169 10 169 10 c 1
 517 642 l 1
 517 642 519 645 523 645 c 0
 529 645 541 641 553 628 c 0
 558 623 556 617 556 617 c 1
37 540 m 1
 31 543 23 544 23 556 c 0
 23 570 51 563 167 638 c 0
 168 638 169 638 170 638 c 0
 176 638 180 617 181 614 c 1
 181 614 172 573 172 534 c 2
 172 338 l 2
 172 318 173 307 180 291 c 0
 183 284 223 276 231 276 c 0
 234 276 236 268 236 261 c 0
 236 257 236 253 235 251 c 1
 196 252 179 254 140 254 c 0
 101 254 83 252 44 251 c 1
 39 254 39 275 44 275 c 0
 56 275 93 283 96 290 c 0
 101 303 102 311 102 321 c 0
 102 382 102 443 102 504 c 0
 102 550 95 555 85 555 c 0
 74 555 57 547 37 540 c 1
EndSplineSet
Validated: 1
EndChar

StartChar: onehalf
Encoding: 189 189 123
Width: 721
GlyphClass: 2
Flags: W
HStem: 0 56<497.953 667.187> 251 24<40.7773 92.3286 185.83 235.93> 340 53<489.95 582.484> 625 20G<520 523.5>
VStem: 102 70<291.746 554.996> 596 77<220.639 326.486>
LayerCount: 2
Fore
SplineSet
630 56 m 2
 670 56 672 98 677 98 c 0
 680 98 694 94 697 90 c 1
 690 62 684 32 677 0 c 1
 425 0 l 1
 419 3 414 13 414 22 c 0
 414 26 415 29 417 33 c 1
 485 107 596 219 596 279 c 0
 596 306 577 340 535 340 c 0
 511 340 479 323 462 300 c 0
 459 296 448 300 447 304 c 0
 446 307 440 328 441 329 c 0
 466 362 517 393 563 393 c 0
 625 393 673 345 673 288 c 0
 673 195 574 131 498 63 c 0
 497 62 496 56 499 56 c 2
 630 56 l 2
556 618 m 2
 208 -14 l 1
 208 -14 208 -16 204 -16 c 0
 201 -16 183 -13 170 3 c 0
 166 7 169 11 169 11 c 1
 517 643 l 1
 517 643 518 645 522 645 c 0
 525 645 557 631 557 622 c 3
 557 619 556 619 556 618 c 2
167 638 m 0
 168 638 169 638 170 638 c 0
 176 638 180 617 181 614 c 1
 181 614 172 573 172 534 c 2
 172 338 l 2
 172 318 173 307 180 291 c 0
 183 284 223 276 231 276 c 0
 234 276 236 268 236 261 c 0
 236 257 236 253 235 251 c 1
 196 252 179 254 140 254 c 0
 101 254 83 252 44 251 c 1
 39 254 39 275 44 275 c 0
 56 275 93 283 96 290 c 0
 101 303 102 311 102 321 c 0
 102 382 102 443 102 504 c 0
 102 550 95 555 85 555 c 0
 74 555 57 547 37 540 c 1
 31 543 23 544 23 556 c 0
 23 570 51 563 167 638 c 0
EndSplineSet
Validated: 1
EndChar

StartChar: threequarters
Encoding: 190 190 124
Width: 694
GlyphClass: 2
Flags: W
HStem: -5 21G<578.5 611.5> 115 43<448.91 556.952 626.001 669.677> 247 36<88.5056 181.289> 438 30<90.5625 141.819> 444 40<190 197.975> 596 51<88.9849 183.941> 625 20G<544 549>
VStem: 190 67<517.402 589.058> 216 70<316.668 428.195> 557 69<-4.7273 114.547 159 296.089>
LayerCount: 2
Fore
SplineSet
173 647 m 0xf540
 204 647 257 620 257 569 c 0
 257 525 225 506 190 484 c 1xed40
 217 484 286 451 286 385 c 0
 286 297 195 247 108 247 c 0
 66 247 32 262 25 273 c 1
 25 280 l 2
 25 300 38 317 54 317 c 0
 84 317 93 283 127 283 c 0
 169 283 216 310 216 371 c 0
 216 420 187 444 150 444 c 0xecc0
 122 444 130 442 99 438 c 1
 93 444 90 452 90 457 c 0
 90 462 93 466 99 468 c 0
 148 478 190 505 190 554 c 0
 190 580 165 596 139 596 c 0
 96 596 76 558 65 558 c 0
 57 558 51 591 52 593 c 0
 77 624 120 647 173 647 c 0xf540
597 -5 m 0
 560 -5 557 -3 557 4 c 2
 557 112 l 1
 556 115 554 115 552 115 c 2
 403 115 l 1
 399 120 391 130 390 141 c 1
 586 390 l 2
 590 395 601 398 609 398 c 0
 618 398 626 395 626 390 c 2
 626 163 l 2
 626 160 628 159 631 159 c 2
 658 159 l 2
 668 159 670 151 670 121 c 0
 670 117 664 115 664 115 c 1
 629 114 l 2
 627 114 626 112 626 109 c 2
 626 0 l 1
 623 -3 626 -5 597 -5 c 0
557 163 m 2
 557 292 l 2
 557 294 553 298 552 296 c 0
 507 243 495 223 449 166 c 0
 447 164 450 158 453 158 c 2
 551 158 l 2
 553 158 557 159 557 163 c 2
228 -16 m 0
 214 -16 192 1 192 7 c 0
 192 9 193 10 193 10 c 1
 541 642 l 1
 541 642 542 645 546 645 c 0xe240
 552 645 565 641 577 628 c 0
 582 623 580 617 580 617 c 1
 232 -14 l 1
 232 -14 232 -16 228 -16 c 0
EndSplineSet
Validated: 33
EndChar

StartChar: questiondown
Encoding: 191 191 125
Width: 310
GlyphClass: 2
Flags: W
HStem: -226 84<141.213 269.525> 314 116<181.255 270.745>
VStem: 24 50<-119.824 -15.7987> 168 116<325.997 417.236> 213 33<174.744 255.919>
LayerCount: 2
Fore
SplineSet
231 -142 m 0xe8
 245 -142 278 -149 278 -182 c 0
 278 -196 275 -208 270 -216 c 1
 260 -221 241 -226 220 -226 c 0
 154 -226 24 -158 24 -41 c 0
 24 27 50 69 125 112 c 0
 152 128 197 163 203 174 c 0
 212 190 213 198 213 243 c 0
 213 254 220 256 233 256 c 0
 238 256 246 255 246 248 c 0
 246 222 247 181 247 154 c 0
 247 80 198 55 161 31 c 0
 112 0 74 -23 74 -60 c 0
 74 -122 116 -149 154 -149 c 0
 207 -149 205 -142 231 -142 c 0xe8
284 371 m 0xf0
 284 339 258 314 226 314 c 0
 194 314 168 339 168 371 c 0
 168 403 194 430 226 430 c 0
 258 430 284 403 284 371 c 0xf0
EndSplineSet
Validated: 1
EndChar

StartChar: AE
Encoding: 198 198 132
Width: 982
GlyphClass: 2
Flags: W
HStem: -3 29<48.3562 112.554 206.533 257.151 420.006 479.266> 2 42<590.335 840.564> 247 50<342.627 497> 309 44<584 761.451> 616 48<649.258 825.938> 629 29<420.006 464.257>
VStem: 497 87<46.7642 244.943 297.003 307.528 353.429 529.714> 790 32<230.002 287.868 373.107 427.976> 860 32<523.07 569.412>
LayerCount: 2
Fore
SplineSet
485 297 m 0x3380
 494 297 497 301 497 308 c 26
 497 523 l 18
 497 529 493 531 488 531 c 0
 484 531 481 527 479 524 c 0
 458 491 342 301 342 301 c 1
 342 301 341 297 343 297 c 0
 369 296 390 295 413 295 c 0
 444 295 459 296 485 297 c 0x3380
408 247 m 0
 367 247 355 245 309 242 c 0
 307 242 304 239 304 239 c 1
 235 129 l 1
 215 94 205 73 202 60 c 0
 199 49 202 44 206 40 c 0
 217 29 252 26 260 26 c 0
 263 26 258 3 255 -3 c 1
 215 -1 197 0 153 0 c 0
 107 0 94 -1 48 -3 c 1
 46 -1 47 4 48 10 c 0
 49 16 53 26 55 26 c 0
 67 26 103 30 116 43 c 0
 144 69 163 101 185 137 c 2
 462 584 l 2
 465 589 469 597 469 604 c 0
 469 622 436 629 424 629 c 0
 422 629 420 636 420 643 c 0
 420 650 422 656 424 658 c 1xb780
 424 658 473 656 540 656 c 0
 633 656 754 664 863 664 c 1
 870 614 883 573 892 528 c 1
 889 525 881 523 874 523 c 0
 867 523 861 525 860 530 c 0
 838 610 797 616 744 616 c 2
 677 616 l 2
 636 616 591 615 589 603 c 0
 585 584 584 542 584 519 c 2
 584 359 l 2
 584 354 605 353 627 353 c 2
 680 353 l 2
 776 353 773 355 790 421 c 0
 791 426 798 428 805 428 c 0
 812 428 819 426 822 423 c 1
 822 234 l 1
 820 232 813 230 806 230 c 0
 799 230 792 233 790 238 c 0
 775 295 771 295 762 301 c 0
 751 308 694 309 656 309 c 0
 628 309 584 309 584 300 c 2
 584 145 l 2
 584 126 586 74 593 54 c 0
 596 45 619 44 661 44 c 2
 709 44 l 2
 747 44 806 46 835 61 c 0
 854 71 882 109 898 162 c 0
 899 166 905 168 912 168 c 0
 922 168 934 165 937 162 c 1
 918 108 890 40 883 -4 c 1
 774 -4 633 2 542 2 c 0x7b80
 475 2 424 -3 424 -3 c 1
 422 -1 420 4 420 12 c 0
 420 20 422 26 424 26 c 0xb380
 436 26 485 37 490 49 c 1
 496 72 497 118 497 135 c 10
 497 233 l 26
 497 240 489 243 484 244 c 0
 470 246 433 247 408 247 c 0
EndSplineSet
Validated: 1
EndChar

StartChar: Eth
Encoding: 208 208 142
Width: 746
GlyphClass: 2
Flags: W
HStem: -3 46<205.517 470.11> -3 29<52.0058 112.623> 308 45<61.0959 131 218 358.904> 614 44<227.704 456.756> 629 29<51.0898 114.882>
VStem: 131 87<57.9039 308 353 603.534> 597 96<212.177 453.397>
LayerCount: 2
Fore
SplineSet
174 656 m 0x6e
 240 656 304 658 348 658 c 0
 579 658 693 496 693 336 c 0
 693 152 571 -3 347 -3 c 0xb6
 303 -3 241 2 176 0 c 2
 109 1 55 -3 55 -3 c 1
 54 -2 52 3 52 12 c 0
 52 18 53 26 55 26 c 0
 67 26 116 35 124 49 c 0
 131 61 131 106 131 143 c 2
 131 308 l 25
 59 308 l 1
 59 308 53 307 53 315 c 0
 53 319 56 334 61 349 c 0
 63 354 68 353 68 353 c 1
 131 353 l 17
 131 367 131 521 131 521 c 2
 131 539 130 584 124 607 c 1
 119 619 67 629 55 629 c 0
 53 629 51 634 51 641 c 0
 51 648 53 656 55 658 c 1
 55 658 107 656 174 656 c 0x6e
218 535 m 2
 218 353 l 25
 360 353 l 1
 360 353 369 356 367 344 c 0
 365 332 365 331 359 314 c 0
 357 309 352 308 352 308 c 1
 218 308 l 25
 218 139 l 2
 218 109 222 88 233 63 c 0
 240 48 347 43 363 43 c 0
 516 43 597 145 597 340 c 0
 597 478 521 614 356 614 c 2
 351 614 l 2
 327 614 242 613 231 598 c 0
 220 583 218 553 218 535 c 2
EndSplineSet
Validated: 33
Substitution2: "'c2sc' Capitals to Small Capitals in Greek lookup 0 subtable" eth.sc
EndChar

StartChar: multiply
Encoding: 215 215 149
Width: 414
GlyphClass: 2
Flags: W
HStem: 415 20G<55 59 356 360.5>
LayerCount: 2
Back
SplineSet
48 454 m 25
 48 58 l 29
 408 58 l 29
 408 440 l 25
EndSplineSet
Fore
SplineSet
56 60 m 4
 49 60 27 98 27 108 c 5
 165 243 l 6
 166 244 166 245 166 246 c 4
 166 248 165 250 164 251 c 6
 27 388 l 5
 27 402 52 435 58 435 c 4
 60 435 61 433 63 431 c 6
 205 290 l 6
 206 289 208 288 209 288 c 4
 211 289 l 5
 352 430 l 6
 354 432 355 433 357 433 c 4
 364 433 386 394 386 384 c 5
 251 249 l 6
 250 248 250 247 250 246 c 4
 250 245 250 244 250 244 c 6
 386 108 l 5
 386 93 368 60 360 60 c 4
 356 60 354 61 352 63 c 6
 212 203 l 6
 211 204 209 205 208 205 c 4
 206 205 205 204 204 203 c 6
 61 63 l 6
 59 61 58 60 56 60 c 4
EndSplineSet
Validated: 1
EndChar

StartChar: Oslash
Encoding: 216 216 150
Width: 742
GlyphClass: 2
Flags: W
HStem: -10 47<286.366 463.76> 614 53<274.992 452.332>
VStem: 50 98<206.777 450.36> 591 98<204.202 445.998>
LayerCount: 2
Fore
SplineSet
377 37 m 0
 515 37 591 181 591 319 c 0
 591 399 565 481 518 538 c 1
 263 74 l 1
 295 51 333 37 377 37 c 0
369 667 m 0
 422 667 472 653 516 629 c 1
 528 651 l 1
 528 651 551 652 564 637 c 0
 569 632 567 627 567 627 c 1
 554 604 l 1
 635 542 689 442 689 328 c 0
 689 141 545 -10 369 -10 c 0
 321 -10 275 2 234 22 c 1
 219 -5 l 1
 219 -5 219 -7 215 -7 c 0
 201 -7 179 10 179 16 c 0
 179 18 180 19 180 19 c 1
 194 45 l 1
 107 105 50 209 50 328 c 0
 50 515 193 667 369 667 c 0
362 614 m 0
 225 614 148 472 148 335 c 0
 148 250 176 164 228 106 c 1
 484 571 l 1
 450 598 409 614 362 614 c 0
EndSplineSet
Validated: 33
EndChar

StartChar: Thorn
Encoding: 222 222 156
Width: 556
GlyphClass: 2
Flags: W
HStem: -3 29<50.0058 114.855 230.335 291.997> 148 39<217.192 360.117> 493 36<215.01 344.285> 633 29<50.0511 113.079 231.221 291.993>
VStem: 128 87<36.9151 158.999 191.983 490.9 522.003 621.28> 421 84<252.584 415.888>
LayerCount: 2
Fore
SplineSet
285 493 m 0
 213 493 215 485 215 477 c 2
 215 201 l 2
 215 193 260 187 305 187 c 0
 372 187 421 257 421 328 c 0
 421 411 368 493 285 493 c 0
174 657 m 0
 218 657 250 660 290 662 c 1
 291 659 292 652 292 647 c 0
 292 641 291 633 288 633 c 0
 280 633 227 623 224 612 c 0
 218 589 215 562 215 531 c 0
 215 526 219 522 222 522 c 0
 229 522 265 529 293 529 c 0
 405 529 505 450 505 338 c 0
 505 227 404 148 293 148 c 0
 246 148 227 159 219 159 c 0
 216 159 215 157 215 154 c 2
 215 139 l 2
 215 103 217 73 224 46 c 0
 227 35 280 26 288 26 c 0
 291 26 292 17 292 11 c 0
 292 6 291 0 290 -3 c 1
 250 -1 218 2 174 2 c 0
 128 2 100 -1 54 -3 c 1
 52 -1 50 6 50 12 c 0
 50 18 52 26 54 26 c 0
 66 26 116 34 121 46 c 1
 127 69 128 117 128 135 c 2
 128 523 l 2
 128 541 127 589 121 612 c 1
 116 624 66 633 54 633 c 0
 52 633 50 640 50 646 c 0
 50 652 52 660 54 662 c 1
 100 660 128 657 174 657 c 0
EndSplineSet
Validated: 33
EndChar

StartChar: germandbls
Encoding: 223 223 157
Width: 578
GlyphClass: 2
Flags: W
HStem: -10 33<47.5249 98.5664 207.803 257 364.044 439.989> 369 47<58.4277 115.999> 660 33<240.786 344.867>
VStem: 116 77<36.4871 368.996 416.002 578.778> 267 58<316.788 384.967> 388 75<491.067 624.745> 463 68<55.4014 151.894>
LayerCount: 2
Fore
SplineSet
463 561 m 0xfc
 463 449 325 413 325 359 c 0
 325 318 376 290 423 265 c 0
 470 240 531 206 531 137 c 0
 531 58 475 -10 399 -10 c 0
 338 -10 291 16 281 33 c 1
 281 66 288 91 315 91 c 0
 348 91 349 23 400 23 c 0
 436 23 463 52 463 102 c 0xfa
 463 202 267 190 267 325 c 0
 267 419 388 419 388 549 c 0
 388 614 354 660 290 660 c 0
 201 660 193 557 193 475 c 0
 193 343 194 135 194 135 c 2
 194 102 194 73 201 46 c 0
 204 35 246 26 254 26 c 0
 259 26 259 3 257 -3 c 1
 217 -1 195 2 155 2 c 0
 114 2 92 -1 51 -3 c 1
 49 -1 47 6 47 12 c 0
 47 18 49 26 51 26 c 0
 63 26 103 35 106 46 c 0
 114 77 115 100 115 135 c 2
 115 135 116 273 116 361 c 0
 116 364 114 369 111 369 c 2
 58 369 l 2
 56 369 55 371 55 375 c 0
 55 388 65 416 70 416 c 2
 111 416 l 2
 114 416 116 419 116 422 c 2
 116 438 l 2
 116 610 185 693 287 693 c 0
 387 693 463 655 463 561 c 0xfc
EndSplineSet
Validated: 1
EndChar

StartChar: ae
Encoding: 230 230 164
Width: 675
GlyphClass: 2
Flags: W
HStem: -7 57<144.958 238.021 423.211 546.546> 219 42<355.999 541.498> 398 38<158.199 253.813 409.446 504.798>
VStem: 50 84<61.0183 151.602 295.86 352.469> 272 81<110.422 203 261.003 337.116> 547 77<250.5 352.448>
LayerCount: 2
Fore
SplineSet
318 78 m 1
 296 51 231 -7 156 -7 c 0
 100 -7 50 21 50 91 c 0
 50 184 183 227 263 241 c 0
 269 242 272 249 272 256 c 2
 272 340 l 2
 272 375 239 398 204 398 c 0
 164 398 134 369 134 324 c 0
 134 299 109 292 86 292 c 0
 72 292 54 293 54 308 c 0
 54 366 154 436 240 436 c 0
 298 436 327 418 339 384 c 1
 371 416 413 435 460 435 c 0
 591 435 624 333 624 265 c 0
 624 236 612 238 595 237 c 0
 512 230 446 223 361 219 c 0
 355 219 353 216 353 211 c 0
 353 205 353 182 358 153 c 0
 369 88 431 56 501 56 c 0
 576 56 607 102 618 102 c 0
 619 102 623 94 623 86 c 0
 623 81 622 75 618 71 c 0
 586 39 539 -4 471 -4 c 0
 404 -4 354 25 318 78 c 1
272 100 m 2
 272 203 l 1
 224 194 134 171 134 106 c 0
 134 69 161 50 195 50 c 0
 232 50 272 77 272 100 c 2
547 287 m 0
 547 313 517 399 464 399 c 0
 392 399 356 313 356 267 c 0
 356 265 354 261 362 261 c 0
 414 264 533 275 542 278 c 0
 546 279 547 283 547 287 c 0
EndSplineSet
Validated: 1
EndChar

StartChar: eth
Encoding: 240 240 174
Width: 514
GlyphClass: 2
Flags: W
HStem: -7 43<191.767 311.855> 347 52<196.017 327.516>
VStem: 48 87<112.974 282.366> 373 91<117.545 302.464>
LayerCount: 2
Fore
SplineSet
464 212 m 27
 464 94 369 -7 255 -7 c 0
 139 -7 48 96 48 206 c 0
 48 314 133 399 249 399 c 0
 287 399 335 378 351 359 c 0
 355 355 357 360 355 369 c 0
 328 465 283 531 225 580 c 0
 223 582 220 581 217 579 c 2
 110 485 l 1
 107 486 89 496 80 516 c 0
 77 522 77 523 80 526 c 0
 116 558 176 608 176 608 c 2
 177 610 177 612 175 614 c 0
 149 629 123 645 94 657 c 1
 97 669 104 687 120 690 c 1
 181 666 205 647 217 647 c 0
 219 647 221 647 222 648 c 2
 337 748 l 1
 338 748 l 0
 350 748 363 734 369 717 c 0
 371 711 364 706 364 706 c 1
 266 621 l 2
 264 619 264 616 267 614 c 0
 383 537 464 387 464 212 c 27
373 207 m 1
 372 261 365 277 357 294 c 0
 347 317 315 347 274 347 c 0
 175 347 135 277 135 185 c 0
 135 87 199 36 248 36 c 0
 327 36 373 109 373 207 c 1
EndSplineSet
Validated: 1
Substitution2: "'smcp' Lowercase to Small Capitals in Greek lookup 0 subtable" eth.sc
EndChar

StartChar: divide
Encoding: 247 247 181
Width: 528
GlyphClass: 2
Flags: W
HStem: 5 100<222.062 300.953> 215 63<31.7375 489.903> 390 97<221.648 301.938>
VStem: 213 98<14.7026 96.0879 398.935 478.404>
LayerCount: 2
Fore
SplineSet
262 390 m 0
 235 390 216 408 213 435 c 1
 213 439 l 2
 213 464 236 487 262 487 c 0
 289 487 308 470 311 443 c 1
 311 438 l 2
 311 414 288 390 262 390 c 0
262 5 m 0
 235 5 216 25 213 52 c 1
 213 56 l 2
 213 81 236 105 262 105 c 0
 289 105 308 84 311 57 c 1
 311 55 l 2
 311 31 288 5 262 5 c 0
28 224 m 0
 28 226 31 278 42 278 c 2
 491 278 l 1
 491 278 498 277 498 268 c 0
 498 250 491 226 490 222 c 0
 488 216 482 215 482 215 c 1
 34 215 l 1
 34 215 28 214 28 224 c 0
EndSplineSet
Validated: 1
EndChar

StartChar: oslash
Encoding: 248 248 182
Width: 534
GlyphClass: 2
Flags: W
HStem: -7 39<215.284 336.647> 404 37<203.15 322.637>
VStem: 50 86<124.731 314.647> 399 86<118.655 314.613>
LayerCount: 2
Fore
SplineSet
281 32 m 0
 362 32 399 123 399 204 c 0
 399 251 389 301 366 339 c 1
 210 55 l 1
 229 41 253 32 281 32 c 0
261 404 m 0
 178 404 136 315 136 232 c 0
 136 181 150 129 177 90 c 1
 334 377 l 1
 315 394 291 404 261 404 c 0
269 441 m 0
 301 441 331 434 359 421 c 1
 379 457 l 1
 379 457 379 460 383 460 c 0
 395 460 406 451 414 442 c 0
 419 437 417 432 417 432 c 1
 398 396 l 1
 451 354 485 289 485 216 c 0
 485 94 391 -7 269 -7 c 0
 239 -7 211 -1 185 10 c 1
 161 -33 l 1
 161 -33 161 -35 157 -35 c 0
 154 -35 137 -31 124 -15 c 0
 120 -11 123 -8 123 -8 c 1
 145 32 l 1
 88 73 50 140 50 216 c 0
 50 340 145 441 269 441 c 0
EndSplineSet
Validated: 1
EndChar

StartChar: thorn
Encoding: 254 254 188
Width: 549
GlyphClass: 2
Flags: W
HStem: -227 29<43.1875 101.285 204.966 262.593> -15 42<218.941 359.049> 381 57<231.881 340.126> 629 27<42.1772 104.758> 674 20G<185.5 192>
VStem: 114 77<-187.513 -0.00292969 51.624 368.809 392.912 623.698> 413 87<124.1 307.891>
LayerCount: 2
Fore
SplineSet
191 -89 m 2
 191 -122 192 -151 199 -178 c 0
 202 -189 251 -198 259 -198 c 0
 264 -198 264 -221 262 -227 c 1
 222 -225 193 -222 155 -222 c 0
 114 -222 87 -225 46 -227 c 1
 41 -222 41 -198 46 -198 c 0
 58 -198 104 -189 107 -178 c 0
 113 -153 114 -122 114 -108 c 2
 114 549 l 2
 114 566 112 593 108 613 c 0
 104 627 74 629 57 629 c 2
 48 629 l 2
 44 629 42 633 42 640 c 0
 42 642 43 656 48 656 c 0
 157 666 184 694 187 694 c 2
 189 694 l 2
 195 694 201 683 202 678 c 1
 202 678 191 646 191 591 c 2
 191 399 l 2
 191 397 191 391 194 393 c 0
 209 405 265 438 301 438 c 0
 441 438 500 341 500 227 c 0
 500 98 406 -15 279 -15 c 0
 228 -15 210 -7 193 0 c 1
 193 0 191 -4 191 -12 c 2
 191 -89 l 2
191 326 m 2
 191 87 l 2
 191 47 255 27 305 27 c 0
 386 27 413 124 413 205 c 0
 413 328 347 381 254 381 c 0
 221 381 191 360 191 326 c 2
EndSplineSet
Validated: 1
EndChar

StartChar: gravecomb
Encoding: 768 768 190
Width: 247
GlyphClass: 2
Flags: W
HStem: 527 160
VStem: 47 168
LayerCount: 2
Fore
SplineSet
47 663 m 4
 47 668 53 687 88 687 c 4
 102 687 117 683 122 678 c 4
 159 635 215 545 215 540 c 4
 215 534 210 527 203 527 c 4
 193 527 47 624 47 663 c 4
EndSplineSet
Validated: 1
EndChar

StartChar: acutecomb
Encoding: 769 769 191
Width: 234
GlyphClass: 2
Flags: W
HStem: 527 160
VStem: 46 168
LayerCount: 2
Fore
SplineSet
173 687 m 0
 208 687 214 668 214 663 c 0
 214 624 68 527 58 527 c 0
 51 527 46 534 46 540 c 0
 46 546 103 637 139 678 c 0
 144 683 159 687 173 687 c 0
EndSplineSet
Validated: 1
EndChar

StartChar: figuredash
Encoding: 8210 8210 199
Width: 475
GlyphClass: 2
Flags: W
HStem: 200 62<31.5596 432.904>
LayerCount: 2
Fore
SplineSet
28 209 m 0
 28 211 31 262 42 262 c 2
 436 262 l 2
 438 262 441 261 441 255 c 0
 441 250 438 225 433 207 c 0
 431 201 426 200 426 200 c 1
 34 200 l 1
 34 200 28 199 28 209 c 0
EndSplineSet
Validated: 1
EndChar

StartChar: endash
Encoding: 8211 8211 200
Width: 499
GlyphClass: 2
Flags: W
HStem: 200 62<31.5596 463.904>
LayerCount: 2
Fore
SplineSet
28 209 m 4
 28 211 31 262 42 262 c 6
 467 262 l 6
 469 262 473 261 473 253 c 4
 473 235 465 211 464 207 c 4
 462 201 457 200 457 200 c 5
 34 200 l 5
 34 200 28 199 28 209 c 4
EndSplineSet
Validated: 1
EndChar

StartChar: emdash
Encoding: 8212 8212 201
Width: 778
GlyphClass: 2
Flags: W
HStem: 210 62<25.5596 749.903>
LayerCount: 2
Fore
SplineSet
22 219 m 0
 22 221 25 272 36 272 c 2
 752 272 l 2
 754 272 758 271 758 263 c 0
 758 245 751 221 750 217 c 0
 748 211 742 210 742 210 c 1
 28 210 l 1
 28 210 22 209 22 219 c 0
EndSplineSet
Validated: 1
EndChar

StartChar: afii00208
Encoding: 8213 8213 202
Width: 1067
GlyphClass: 2
Flags: W
HStem: 210 62<25.5596 1037.9>
LayerCount: 2
Fore
SplineSet
22 219 m 0
 22 221 25 272 36 272 c 2
 1039 272 l 1
 1039 272 1047 272 1047 263 c 0
 1047 245 1039 221 1038 217 c 0
 1036 211 1031 210 1031 210 c 1
 28 210 l 1
 28 210 22 209 22 219 c 0
EndSplineSet
Validated: 1
EndChar

StartChar: quoteleft
Encoding: 8216 8216 203
Width: 160
GlyphClass: 2
Flags: W
HStem: 482 224
VStem: 16 59<542.5 628.809>
LayerCount: 2
Fore
SplineSet
16 555 m 0
 16 649 117 706 126 706 c 0
 134 706 141 699 145 688 c 1
 85 652 75 606 75 597 c 0
 75 571 116 553 116 525 c 0
 116 501 83 482 51 482 c 0
 44 482 38 483 31 485 c 1
 22 498 16 530 16 555 c 0
EndSplineSet
Validated: 1
EndChar

StartChar: quoteright
Encoding: 8217 8217 204
Width: 160
GlyphClass: 2
Flags: W
HStem: 484 224
VStem: 89 58<561.191 647.5>
LayerCount: 2
Fore
SplineSet
147 635 m 0
 147 541 47 484 38 484 c 0
 30 484 22 491 18 502 c 1
 78 538 89 584 89 593 c 0
 89 619 48 637 48 665 c 0
 48 689 81 708 113 708 c 0
 120 708 126 707 133 705 c 1
 142 692 147 660 147 635 c 0
EndSplineSet
Validated: 1
EndChar

StartChar: quotesinglbase
Encoding: 8218 8218 205
Width: 160
GlyphClass: 2
Flags: W
HStem: -97 223
VStem: 89 58<-20.7027 65.5>
LayerCount: 2
Fore
SplineSet
147 53 m 0
 147 -41 47 -97 38 -97 c 0
 30 -97 22 -91 18 -80 c 1
 78 -44 89 2 89 11 c 0
 89 37 48 55 48 83 c 0
 48 107 81 126 113 126 c 0
 120 126 126 125 133 123 c 1
 142 110 147 78 147 53 c 0
EndSplineSet
Validated: 1
EndChar

StartChar: quotedblleft
Encoding: 8220 8220 206
Width: 309
GlyphClass: 2
Flags: W
HStem: 482 224
VStem: 16 59<542.5 628.809> 160 58<542.5 628.809>
LayerCount: 2
Fore
SplineSet
160 555 m 0
 160 649 260 706 269 706 c 0
 277 706 285 699 289 688 c 1
 229 652 218 606 218 597 c 0
 218 571 259 553 259 525 c 0
 259 501 227 482 195 482 c 0
 188 482 181 483 174 485 c 1
 165 498 160 530 160 555 c 0
16 555 m 0
 16 649 117 706 126 706 c 0
 134 706 141 699 145 688 c 1
 85 652 75 606 75 597 c 0
 75 571 116 553 116 525 c 0
 116 501 83 482 51 482 c 0
 44 482 38 483 31 485 c 1
 22 498 16 530 16 555 c 0
EndSplineSet
Validated: 1
EndChar

StartChar: quotedblright
Encoding: 8221 8221 207
Width: 310
GlyphClass: 2
Flags: W
HStem: 484 224
VStem: 89 58<561.191 647.5> 232 59<561.191 647.5>
LayerCount: 2
Fore
SplineSet
291 635 m 0
 291 541 190 484 181 484 c 0
 173 484 166 491 162 502 c 1
 222 538 232 584 232 593 c 0
 232 619 191 637 191 665 c 0
 191 689 224 708 256 708 c 0
 263 708 269 707 276 705 c 1
 285 692 291 660 291 635 c 0
147 635 m 0
 147 541 47 484 38 484 c 0
 30 484 22 491 18 502 c 1
 78 538 89 584 89 593 c 0
 89 619 48 637 48 665 c 0
 48 689 81 708 113 708 c 0
 120 708 126 707 133 705 c 1
 142 692 147 660 147 635 c 0
EndSplineSet
Validated: 1
EndChar

StartChar: quotedblbase
Encoding: 8222 8222 208
Width: 309
GlyphClass: 2
Flags: W
HStem: -99 223
VStem: 89 58<-20.7027 65.5> 232 59<-22.7027 63.5>
LayerCount: 2
Fore
SplineSet
291 51 m 0
 291 -43 190 -99 181 -99 c 0
 173 -99 166 -93 162 -82 c 1
 222 -46 232 0 232 9 c 0
 232 35 191 53 191 81 c 0
 191 105 224 124 256 124 c 0
 263 124 269 123 276 121 c 1
 285 108 291 76 291 51 c 0
147 53 m 0
 147 -41 47 -97 38 -97 c 0
 30 -97 22 -91 18 -80 c 1
 78 -44 89 2 89 11 c 0
 89 37 48 55 48 83 c 0
 48 107 81 126 113 126 c 0
 120 126 126 125 133 123 c 1
 142 110 147 78 147 53 c 0
EndSplineSet
Validated: 1
EndChar

StartChar: dagger
Encoding: 8224 8224 209
Width: 358
GlyphClass: 2
Flags: W
HStem: -10 21G<146 150 207.5 211> 371 51<27 152.997 204.003 330>
VStem: 153 51<143.613 371 422 621.788>
LayerCount: 2
Fore
SplineSet
213 -10 m 1
 202 -6 189 -5 178 -5 c 0
 167 -5 156 -6 144 -10 c 1
 148 135 153 216 153 361 c 0
 153 366 150 371 145 371 c 2
 130 371 l 2
 92 371 66 368 25 366 c 1
 26 375 27 384 27 393 c 0
 27 404 26 416 25 427 c 1
 66 425 92 422 130 422 c 2
 145 422 l 2
 149 422 153 426 153 430 c 0
 153 508 148 551 144 629 c 1
 156 627 167 625 178 625 c 0
 189 625 201 627 213 629 c 1
 209 551 204 508 204 430 c 0
 204 426 208 422 212 422 c 2
 226 422 l 2
 264 422 291 425 332 427 c 1
 331 416 330 404 330 393 c 0
 330 384 331 375 332 366 c 1
 291 368 264 371 226 371 c 2
 212 371 l 2
 207 371 204 366 204 361 c 0
 204 216 209 135 213 -10 c 1
EndSplineSet
Validated: 1
EndChar

StartChar: daggerdbl
Encoding: 8225 8225 210
Width: 366
GlyphClass: 2
Flags: W
HStem: -10 21G<149 154 211.5 216> 197 51<31 156.979 208.048 334> 379 51<31 156.997 208.003 334>
VStem: 157 51<-3.17398 196.344 248.547 379 430 622.066>
LayerCount: 2
Fore
SplineSet
149 248 m 2
 156 248 157 253 157 275 c 2
 157 370 l 2
 157 375 154 379 149 379 c 0
 144 379 139 379 134 379 c 0
 96 379 71 376 29 374 c 1
 30 383 31 392 31 401 c 0
 31 412 30 424 29 435 c 1
 71 433 96 430 134 430 c 0
 139 430 144 430 149 430 c 0
 153 430 157 434 157 438 c 0
 157 513 152 554 148 629 c 1
 160 627 171 625 182 625 c 0
 193 625 205 627 217 629 c 1
 213 554 208 513 208 438 c 0
 208 434 212 430 216 430 c 2
 230 430 l 2
 268 430 294 433 336 435 c 1
 335 424 334 412 334 401 c 0
 334 392 335 383 336 374 c 1
 294 376 268 379 230 379 c 2
 216 379 l 2
 211 379 208 375 208 370 c 0
 208 332 208 294 208 256 c 0
 208 251 211 248 216 248 c 2
 336 253 l 1
 335 242 334 230 334 219 c 0
 334 210 335 200 336 191 c 1
 216 197 l 1
 211 196 209 192 208 186 c 1
 210 130 215 63 217 -10 c 1
 206 -6 193 -5 182 -5 c 0
 171 -5 160 -6 148 -10 c 1
 150 63 155 130 157 186 c 0
 157 191 154 197 149 197 c 2
 29 191 l 1
 30 200 31 210 31 219 c 0
 31 230 30 242 29 253 c 1
 149 248 l 2
EndSplineSet
Validated: 1
EndChar

StartChar: bullet
Encoding: 8226 8226 211
Width: 409
GlyphClass: 2
Flags: W
HStem: 155 216<138.66 266.979>
VStem: 95 215<198.66 327.34>
LayerCount: 2
Fore
SplineSet
95 263 m 0
 95 322 144 371 203 371 c 0
 262 371 310 322 310 263 c 0
 310 204 262 155 203 155 c 0
 144 155 95 204 95 263 c 0
EndSplineSet
Validated: 1
EndChar

StartChar: onedotenleader
Encoding: 8228 8228 212
Width: 699
GlyphClass: 2
Flags: W
HStem: -14 116<308.441 396.745>
VStem: 296 114<-1.2356 90.0031>
LayerCount: 2
Fore
SplineSet
296 45 m 0
 296 77 320 102 352 102 c 0
 384 102 410 77 410 45 c 0
 410 13 384 -14 352 -14 c 0
 320 -14 296 13 296 45 c 0
EndSplineSet
Validated: 1
EndChar

StartChar: perthousand
Encoding: 8240 8240 214
Width: 970
GlyphClass: 2
Flags: W
HStem: -7 25<434.434 504.588 768.934 837.267> 289 24<421.266 490.529 755.299 824.599> 325 25<145.934 214.267> 621 24<132.299 201.599>
VStem: 23 63<408.045 571.079> 254 66<398.394 570.458> 311 64<76.045 237.871> 542 67<69.2111 238.458> 646 63<76.045 239.079> 877 66<66.3943 238.458>
LayerCount: 2
Fore
SplineSet
792 289 m 0xf9c0
 733 289 709 223 709 164 c 0
 709 95 752 18 802 18 c 0
 860 18 877 86 877 144 c 0
 877 211 845 289 792 289 c 0xf9c0
796 313 m 0
 883 313 943 239 943 152 c 0
 943 72 888 -7 796 -7 c 0
 713 -7 646 64 646 152 c 0
 646 241 707 313 796 313 c 0
169 621 m 0
 110 621 86 555 86 496 c 0
 86 427 129 350 179 350 c 0
 237 350 254 418 254 476 c 0xfdc0
 254 543 222 621 169 621 c 0
173 645 m 0
 260 645 320 571 320 484 c 0
 320 404 265 325 173 325 c 0
 90 325 23 396 23 484 c 0
 23 573 84 645 173 645 c 0
458 289 m 0
 399 289 375 223 375 164 c 0xfbc0
 375 95 418 18 468 18 c 0
 526 18 542 86 542 144 c 0
 542 211 511 289 458 289 c 0
462 313 m 0
 549 313 609 239 609 152 c 0
 609 72 553 -7 461 -7 c 0
 378 -7 311 64 311 152 c 0
 311 241 373 313 462 313 c 0
581 624 m 1
 98 0 l 2
 94 -5 77 -12 65 -12 c 0
 51 -12 48 -3 47 -1 c 1
 529 624 l 2
 534 630 543 636 549 636 c 0
 578 636 572 633 581 624 c 1
EndSplineSet
Validated: 1
EndChar

StartChar: minute
Encoding: 8242 8242 215
Width: 153
GlyphClass: 2
Flags: W
HStem: 494 205
VStem: 35 87<589.411 680.213> 47 75<589.411 689.429>
LayerCount: 2
Fore
SplineSet
97 699 m 0xa0
 107 699 122 695 122 675 c 0xc0
 122 628 87 559 58 502 c 0
 55 496 51 494 47 494 c 0xa0
 41 494 35 499 35 506 c 0xc0
 35 509 39 612 47 666 c 0
 49 678 78 699 97 699 c 0xa0
EndSplineSet
Validated: 1
EndChar

StartChar: second
Encoding: 8243 8243 216
Width: 265
GlyphClass: 2
Flags: W
HStem: 494 205
VStem: 35 87<589.411 680.213> 47 75<589.411 689.429> 147 87<589.411 679.4> 160 74<589.411 689.429>
LayerCount: 2
Fore
SplineSet
210 699 m 0x88
 220 699 234 695 234 675 c 0x90
 234 628 200 559 171 502 c 0
 168 496 164 494 160 494 c 0x88
 154 494 147 499 147 506 c 0x90
 147 509 152 612 160 666 c 0
 162 678 191 699 210 699 c 0x88
97 699 m 0
 107 699 122 695 122 675 c 0xc0
 122 628 87 559 58 502 c 0
 55 496 51 494 47 494 c 0xa0
 41 494 35 499 35 506 c 0xc0
 35 509 39 612 47 666 c 0xa0
 49 678 78 699 97 699 c 0
EndSplineSet
Validated: 1
EndChar

StartChar: uni2038
Encoding: 8248 8248 217
Width: 408
GlyphClass: 2
Flags: W
HStem: -36 146
VStem: 87 235
LayerCount: 2
Fore
SplineSet
311 -36 m 0
 298 -36 239 11 203 47 c 1
 171 10 109 -36 96 -36 c 0
 87 -36 87 -19 87 -19 c 1
 94 -9 155 31 191 100 c 1
 194 108 195 110 200 110 c 0
 219 110 210 95 258 41 c 0
 275 21 320 -15 322 -18 c 1
 322 -22 317 -36 311 -36 c 0
EndSplineSet
Validated: 1
EndChar

StartChar: guilsinglleft
Encoding: 8249 8249 218
Width: 290
GlyphClass: 2
Flags: W
VStem: 27 237
LayerCount: 2
Fore
SplineSet
241 423 m 1
 264 417 264 408 264 404 c 0
 264 396 260 392 203 338 c 0
 180 316 134 266 115 247 c 1
 202 157 l 1
 255 104 263 102 263 91 c 0
 263 79 246 76 240 73 c 1
 239 75 181 132 34 227 c 1
 29 229 27 235 27 241 c 0
 27 251 28 260 35 268 c 1
 166 347 240 422 241 423 c 1
EndSplineSet
Validated: 1
EndChar

StartChar: guilsinglright
Encoding: 8250 8250 219
Width: 292
GlyphClass: 2
Flags: W
VStem: 28 236
LayerCount: 2
Fore
SplineSet
51 73 m 1
 28 79 28 87 28 91 c 0
 28 102 38 107 88 157 c 1
 175 247 l 1
 156 266 110 316 87 338 c 0
 28 395 27 396 27 404 c 0
 27 416 44 420 50 423 c 1
 52 421 125 347 255 268 c 1
 262 260 264 251 264 241 c 0
 264 235 261 229 256 227 c 1
 129 145 63 86 51 73 c 1
EndSplineSet
Validated: 1
EndChar

StartChar: uni203E
Encoding: 8254 8254 220
Width: 565
GlyphClass: 2
Flags: W
HStem: 739 63<-11.4404 578.903>
LayerCount: 2
Fore
SplineSet
-15 749 m 4
 -15 751 -12 802 -1 802 c 6
 581 802 l 6
 583 802 587 801 587 793 c 4
 587 775 580 750 579 746 c 4
 577 740 571 739 571 739 c 5
 -9 739 l 5
 -9 739 -15 739 -15 749 c 4
EndSplineSet
Validated: 1
EndChar

StartChar: Euro
Encoding: 8364 8364 221
Width: 655
GlyphClass: 2
Flags: W
HStem: -5 41<312.315 498.526> 231 54<35.0959 76 179 435.449> 357 53<35.0959 78 178 430.905> 602 41<304.432 487.921>
VStem: 75 91<285 357> 577 34<465.297 516.64>
LayerCount: 2
Fore
SplineSet
630 176 m 1
 630 169 598 39 589 34 c 0
 538 3 495 -5 397 -5 c 2
 365 -5 l 1
 237 -3 119 97 84 231 c 1
 33 231 l 5
 33 231 28 231 28 241 c 4
 28 245 28 257 35 280 c 4
 37 286 42 285 42 285 c 5
 76 285 l 1
 75 295 75 306 75 316 c 0
 75 329 76 344 78 357 c 1
 33 357 l 5
 33 357 28 356 28 366 c 4
 28 370 28 383 35 406 c 4
 37 412 42 410 42 410 c 5
 89 410 l 1
 129 543 252 643 374 643 c 0
 462 643 529 620 607 599 c 1
 607 599 611 490 611 480 c 0
 611 470 600 465 590 465 c 0
 584 465 579 467 577 470 c 1
 571 500 547 602 377 602 c 0
 284 602 207 515 178 410 c 1
 434 410 l 6
 438 410 441 410 441 403 c 4
 441 396 437 384 431 362 c 4
 429 356 425 357 425 357 c 5
 168 357 l 1
 167 348 166 340 166 331 c 0
 166 317 167 299 169 285 c 1
 434 285 l 6
 438 285 441 285 441 278 c 4
 441 271 437 259 431 237 c 4
 429 231 425 231 425 231 c 5
 179 231 l 1
 209 122 284 36 401 36 c 0
 466 36 521 60 551 92 c 0
 582 125 591 185 599 185 c 3
 612 185 630 176 630 176 c 1
EndSplineSet
Validated: 1
EndChar

StartChar: arrowleft
Encoding: 8592 8592 222
Width: 760
GlyphClass: 2
Flags: W
HStem: 216 63<146 720.904>
LayerCount: 2
Fore
SplineSet
264 404 m 0
 264 393 264 399 199 334 c 0
 146 279 l 1
 722 279 l 1
 722 279 729 279 729 269 c 0
 729 251 722 227 721 223 c 0
 719 217 714 216 714 216 c 1
 145 216 l 1
 202 157 l 0
 261 98 263 103 263 91 c 0
 263 78 245 76 240 73 c 1
 239 75 181 132 34 227 c 1
 29 229 27 235 27 241 c 0
 27 251 28 260 35 268 c 1
 166 347 240 422 241 423 c 1
 255 419 264 413 264 404 c 0
EndSplineSet
Validated: 1
EndChar

StartChar: arrowup
Encoding: 8593 8593 223
Width: 396
GlyphClass: 2
Flags: W
HStem: 437 21G<346 358.5>
VStem: 165 63<-19.9041 555>
LayerCount: 2
Fore
SplineSet
354 437 m 0
 338 437 351 439 228 555 c 1
 228 -22 l 1
 228 -22 228 -29 218 -29 c 0
 200 -29 176 -21 172 -20 c 0
 166 -18 165 -13 165 -13 c 1
 165 556 l 1
 106 499 l 1
 47 440 52 438 40 438 c 0
 27 438 25 456 22 461 c 1
 24 462 81 520 176 667 c 1
 178 672 184 674 190 674 c 0
 200 674 209 673 217 666 c 1
 296 535 371 461 372 460 c 1
 368 446 363 437 354 437 c 0
EndSplineSet
Validated: 1
EndChar

StartChar: arrowright
Encoding: 8594 8594 224
Width: 759
GlyphClass: 2
Flags: W
HStem: 217 63<33.5069 613>
LayerCount: 2
Fore
SplineSet
495 91 m 0
 495 105 498 95 613 217 c 1
 36 217 l 1
 36 217 29 216 29 226 c 0
 29 244 36 268 37 272 c 0
 39 278 44 280 44 280 c 1
 614 280 l 1
 556 339 l 2
 500 395 496 392 496 404 c 0
 496 417 514 420 519 423 c 1
 520 421 577 363 724 268 c 1
 729 266 731 261 731 255 c 0
 731 245 730 235 723 227 c 1
 592 148 518 74 517 73 c 1
 503 77 495 82 495 91 c 0
EndSplineSet
Validated: 1
EndChar

StartChar: arrowdown
Encoding: 8595 8595 225
Width: 397
GlyphClass: 2
Flags: W
VStem: 167 63<90 665.903>
LayerCount: 2
Fore
SplineSet
41 208 m 0
 55 208 45 205 167 90 c 1
 167 667 l 1
 167 667 166 674 176 674 c 0
 194 674 219 667 223 666 c 0
 229 664 230 658 230 658 c 1
 230 89 l 1
 289 146 l 1
 349 206 341 207 355 207 c 0
 368 207 370 189 373 184 c 1
 371 183 313 125 218 -22 c 1
 216 -27 211 -29 205 -29 c 0
 195 -29 185 -27 177 -20 c 1
 98 111 24 184 23 185 c 1
 27 199 32 208 41 208 c 0
EndSplineSet
Validated: 1
EndChar

StartChar: universal
Encoding: 8704 8704 226
Width: 724
GlyphClass: 2
Flags: W
HStem: 348 50<293.001 462.045> 633 29<23.0511 75.5156 206.376 259.234 483.188 538.56 646.781 699.923>
LayerCount: 2
Fore
SplineSet
489 407 m 2
 537 524 l 2
 546 547 554 565 554 583 c 0
 554 592 551 601 547 610 c 0
 539 626 498 633 486 633 c 0
 481 633 481 657 486 662 c 1
 523 660 544 656 581 656 c 0
 627 656 658 660 698 662 c 1
 699 659 700 650 700 645 c 0
 700 639 699 633 696 633 c 0
 688 633 646 629 632 603 c 0
 612 567 599 540 583 502 c 2
 383 19 l 2
 372 -8 361 -14 348 -14 c 0
 344 -14 340 -12 338 -8 c 2
 133 514 l 2
 118 553 105 582 88 608 c 0
 77 624 39 633 27 633 c 0
 25 633 23 640 23 646 c 0
 23 652 25 660 27 662 c 1
 73 660 99 656 145 656 c 0
 189 656 218 660 258 662 c 1
 260 656 261 633 256 633 c 0
 248 633 206 631 203 612 c 0
 202 607 202 603 202 598 c 0
 202 575 212 557 221 530 c 2
 268 403 l 2
 269 401 270 401 274 401 c 0
 308 399 340 398 373 398 c 0
 410 398 446 399 483 402 c 0
 485 402 489 406 489 407 c 2
462 342 m 2
 463 343 461 346 459 346 c 0
 432 348 407 348 380 348 c 0
 353 348 326 348 295 346 c 0
 294 346 293 345 293 344 c 2
 371 152 l 2
 372 150 373 148 375 148 c 0
 379 148 386 154 387 157 c 2
 462 342 l 2
EndSplineSet
Validated: 1
EndChar

StartChar: partialdiff
Encoding: 8706 8706 227
Width: 432
GlyphClass: 2
Flags: W
HStem: 0 32<169.489 264.892> 330 37<150.435 269.214> 592 42<92.9557 233.5>
VStem: 27 74<99.9418 269.621> 325 77<138.75 450.728>
LayerCount: 2
Fore
SplineSet
325 217 m 0
 325 278 274 330 199 330 c 0
 134 330 101 257 101 199 c 0
 101 122 138 32 224 32 c 0
 281 32 325 103 325 217 c 0
184 0 m 0
 86 0 27 83 27 174 c 0
 27 276 93 367 213 367 c 0
 257 367 308 344 322 339 c 0
 327 337 331 346 330 354 c 1
 330 412 302 530 238 569 c 0
 209 586 181 592 155 592 c 0
 118 592 85 578 53 552 c 1
 51 555 44 560 44 568 c 0
 44 584 90 634 198 634 c 0
 328 634 402 469 402 295 c 0
 402 149 361 0 184 0 c 0
EndSplineSet
Validated: 1
EndChar

StartChar: uni2206
Encoding: 8710 8710 228
Width: 675
GlyphClass: 2
Flags: W
HStem: 0 61<102.911 531.046>
LayerCount: 2
Fore
SplineSet
531 68 m 2
 324 485 l 1
 320 488 316 489 312 483 c 2
 103 72 l 1
 101 65 106 61 111 61 c 2
 528 61 l 2
 532 61 532 64 531 68 c 2
349 613 m 1
 651 14 l 1
 651 14 645 8 643 0 c 1
 32 0 l 1
 28 6 27 9 23 16 c 1
 332 613 l 1
 349 613 l 1
EndSplineSet
Validated: 1
EndChar

StartChar: gradient
Encoding: 8711 8711 229
Width: 675
GlyphClass: 2
Flags: W
HStem: 580 62<141.955 570.089>
LayerCount: 2
Fore
SplineSet
142 574 m 2
 350 156 l 1
 354 153 358 153 362 159 c 2
 570 570 l 1
 572 577 568 580 563 580 c 2
 146 580 l 2
 142 580 141 578 142 574 c 2
325 28 m 1
 23 628 l 1
 23 628 29 634 31 642 c 1
 642 642 l 1
 646 636 647 632 651 625 c 1
 342 28 l 1
 325 28 l 1
EndSplineSet
Validated: 1
EndChar

StartChar: element
Encoding: 8712 8712 230
Width: 451
GlyphClass: 2
Flags: W
HStem: 10 47<157.113 420.616> 191 47<89.0044 375> 374 47<153.728 421.016>
VStem: 29 60<173.992 303.322>
LayerCount: 2
Fore
SplineSet
383 216 m 0
 383 189 375 192 374 191 c 2
 94 191 l 2
 93 191 88 190 89 187 c 0
 101 124 152 57 219 57 c 2
 407 57 l 2
 407 57 422 54 422 19 c 0
 422 10 415 10 415 10 c 1
 221 10 l 2
 109 10 29 104 29 216 c 0
 29 325 102 421 211 421 c 2
 415 421 l 1
 415 421 422 421 422 409 c 0
 422 378 407 374 407 374 c 1
 211 374 l 2
 148 374 100 305 89 243 c 0
 89 240 91 238 94 238 c 2
 375 238 l 1
 375 237 383 233 383 216 c 0
EndSplineSet
Validated: 1
EndChar

StartChar: notelement
Encoding: 8713 8713 231
Width: 448
GlyphClass: 2
Flags: W
HStem: 10 47<182.516 419.616> 191 47<88.0029 199 277 374> 374 47<152.728 299 377 420.016>
VStem: 28 60<132.114 303.322>
LayerCount: 2
Fore
SplineSet
382 216 m 0
 382 189 374 192 373 191 c 2
 251 191 l 1
 182 64 l 1
 193 60 205 57 218 57 c 2
 406 57 l 2
 406 57 421 54 421 19 c 0
 421 10 414 10 414 10 c 1
 220 10 l 2
 197 10 176 14 157 21 c 1
 133 -23 l 1
 133 -23 133 -25 129 -25 c 0
 126 -25 109 -21 96 -5 c 0
 92 -1 95 2 95 2 c 1
 116 42 l 1
 62 79 28 143 28 216 c 0
 28 325 101 421 210 421 c 2
 325 421 l 1
 351 467 l 1
 351 467 351 470 355 470 c 0
 367 470 378 461 386 452 c 0
 391 447 389 442 389 442 c 1
 377 421 l 1
 414 421 l 1
 414 421 421 421 421 409 c 0
 421 378 406 374 406 374 c 1
 352 374 l 1
 277 238 l 1
 374 238 l 1
 374 237 382 233 382 216 c 0
143 89 m 1
 199 191 l 1
 93 191 l 2
 92 191 88 190 88 188 c 0
 88 182 102 127 143 89 c 1
225 238 m 1
 299 374 l 1
 210 374 l 2
 147 374 99 305 88 243 c 0
 88 240 90 238 93 238 c 2
 225 238 l 1
EndSplineSet
Validated: 1
EndChar

StartChar: summation
Encoding: 8721 8721 232
Width: 602
GlyphClass: 2
Flags: W
HStem: -3 34<25.013 55.9727> 2 45<138.005 486.44> 627 31<25.0357 60.169>
VStem: 501 31<523.037 568.839>
LayerCount: 2
Fore
SplineSet
213 47 m 0x70
 247 47 286 48 319 48 c 0
 357 48 452 51 481 66 c 0
 500 76 523 109 539 162 c 0
 540 166 546 168 553 168 c 0
 563 168 575 165 578 162 c 1
 559 108 531 40 524 -4 c 1
 415 -4 238 2 147 2 c 0x70
 80 2 29 -3 29 -3 c 1
 27 -1 25 7 25 15 c 0
 25 23 27 31 29 31 c 0xb0
 40 31 61 51 70 63 c 2
 274 317 l 2
 276 320 276 323 273 327 c 0
 260 347 158 490 81 592 c 0
 68 609 41 627 29 627 c 0
 27 627 25 634 25 641 c 0
 25 648 27 656 29 658 c 1
 29 658 78 656 145 656 c 0
 238 656 395 664 504 664 c 1
 511 615 523 573 532 528 c 1
 529 525 522 523 515 523 c 0
 508 523 502 525 501 530 c 0
 486 587 459 602 449 607 c 0
 432 615 393 616 358 616 c 2
 312 616 l 2
 292 616 261 617 233 617 c 0
 198 617 168 615 166 607 c 1
 355 358 l 1
 357 352 359 345 359 339 c 0
 359 334 357 330 354 327 c 0
 264 227 138 90 138 58 c 0
 138 51 145 47 213 47 c 0x70
EndSplineSet
Validated: 1
EndChar

StartChar: minus
Encoding: 8722 8722 233
Width: 544
GlyphClass: 2
Flags: W
HStem: 218 56<35.4646 500.904>
LayerCount: 2
Fore
SplineSet
32 228 m 1
 32 228 36 274 46 274 c 2
 503 274 l 2
 506 274 510 274 510 267 c 0
 510 259 506 241 501 224 c 0
 499 218 494 218 494 218 c 1
 38 218 l 1
 38 218 32 218 32 228 c 1
EndSplineSet
Validated: 1
EndChar

StartChar: uni2213
Encoding: 8723 8723 234
Width: 532
GlyphClass: 2
Flags: W
HStem: 221 57<34.0959 237 293.001 494.904> 522 57<30.2504 492.875>
VStem: 237 56<14.3652 220.998 278.002 479.904>
LayerCount: 2
Fore
SplineSet
489 579 m 1
 489 579 499 579 497 567 c 0
 490 519 484 525 481 522 c 1
 33 522 l 1
 33 522 25 522 27 536 c 0
 32 572 35 579 41 579 c 2
 489 579 l 1
293 218 m 2
 293 26 l 1
 293 26 293 16 248 10 c 0
 245 10 244 9 242 9 c 0
 235 9 237 13 237 17 c 2
 237 216 l 2
 237 218 236 221 231 221 c 2
 32 221 l 1
 32 221 26 221 26 231 c 0
 26 235 27 248 34 272 c 0
 36 278 41 278 41 278 c 1
 232 278 l 2
 235 278 237 281 237 283 c 2
 237 473 l 1
 237 473 236 478 242 480 c 0
 266 487 279 488 283 488 c 0
 293 488 293 482 293 482 c 1
 293 282 l 2
 293 279 294 278 297 278 c 2
 497 278 l 2
 501 278 505 279 505 272 c 0
 505 263 501 249 495 227 c 0
 493 221 488 221 488 221 c 1
 297 221 l 2
 294 221 293 220 293 218 c 2
EndSplineSet
Validated: 1
EndChar

StartChar: radical
Encoding: 8730 8730 235
Width: 545
GlyphClass: 2
Flags: W
LayerCount: 2
Fore
SplineSet
44 168 m 1
 30 174 23 182 23 186 c 0
 23 193 35 200 46 206 c 0
 82 226 161 279 175 291 c 0
 183 298 198 298 201 290 c 1
 209 257 224 226 226 221 c 2
 343 -31 l 1
 351 12 485 791 485 791 c 1
 522 791 l 1
 522 791 382 -25 357 -153 c 1
 342 -171 330 -173 324 -173 c 0
 320 -173 315 -172 314 -168 c 2
 137 220 l 1
 44 168 l 1
EndSplineSet
Validated: 1
EndChar

StartChar: proportional
Encoding: 8733 8733 236
Width: 666
GlyphClass: 2
Flags: W
HStem: 41 56<152.329 277.805 578.812 631.399> 362 60<149.507 269.483 562.606 622.969>
VStem: 29 70<152.877 308.843>
LayerCount: 2
Fore
SplineSet
99 229 m 0
 99 159 148 97 218 97 c 0
 284 97 336 172 379 218 c 0
 380 219 380 219 379 220 c 0
 346 259 281 362 211 362 c 0
 143 362 99 297 99 229 c 0
614 43 m 1
 483 43 415 180 404 180 c 2
 403 180 l 1
 350 117 290 41 191 41 c 0
 96 41 29 128 29 223 c 0
 29 332 114 422 223 422 c 0
 320 422 391 334 432 286 c 0
 433 284 437 283 438 285 c 0
 476 332 534 404 615 419 c 1
 617 419 l 2
 623 419 625 412 625 403 c 0
 625 388 619 367 619 367 c 1
 558 367 497 286 462 246 c 0
 461 245 460 244 461 243 c 0
 507 185 564 100 633 100 c 0
 639 100 641 96 641 91 c 0
 641 76 623 46 614 43 c 1
EndSplineSet
Validated: 1
EndChar

StartChar: infinity
Encoding: 8734 8734 237
Width: 841
GlyphClass: 2
Flags: W
HStem: 43 57<147.323 278.874 572.033 691.169> 362 60<149.36 269.483 562.152 692.085>
VStem: 29 69<154.167 308.843> 740 71<151.221 309.733>
LayerCount: 2
Fore
SplineSet
618 367 m 0
 557 367 497 286 462 246 c 0
 461 245 460 244 461 243 c 0
 507 185 564 100 633 100 c 0
 700 100 740 166 740 233 c 0
 740 304 689 367 618 367 c 0
98 229 m 0
 98 159 148 97 218 97 c 0
 284 97 336 172 379 218 c 0
 380 219 380 219 379 220 c 0
 346 259 281 362 211 362 c 0
 143 362 98 297 98 229 c 0
223 422 m 0
 320 422 391 334 432 286 c 0
 433 284 437 283 438 285 c 0
 480 338 548 422 645 422 c 0
 740 422 811 337 811 242 c 0
 811 132 723 43 613 43 c 0
 482 43 414 180 403 180 c 2
 402 180 l 1
 349 117 288 41 190 41 c 0
 95 41 29 128 29 223 c 0
 29 332 114 422 223 422 c 0
EndSplineSet
Validated: 1
EndChar

StartChar: notequal
Encoding: 8800 8800 238
Width: 527
GlyphClass: 2
Flags: W
HStem: 117 56<38.0959 178 261 491.32> 259 56<38.0959 257 341 491.32>
LayerCount: 2
Fore
SplineSet
341 315 m 1
 489 315 l 2
 493 315 497 317 497 310 c 0
 497 301 493 287 487 265 c 0
 485 259 481 259 481 259 c 1
 309 259 l 1
 261 173 l 1
 489 173 l 2
 493 173 497 175 497 168 c 0
 497 159 493 145 487 123 c 0
 485 117 481 117 481 117 c 1
 230 117 l 1
 173 13 l 1
 173 13 173 11 169 11 c 0
 166 11 148 15 135 31 c 0
 131 35 134 38 134 38 c 1
 178 117 l 1
 36 117 l 1
 36 117 29 117 29 127 c 0
 29 131 31 144 38 168 c 0
 40 174 45 173 45 173 c 1
 209 173 l 1
 257 259 l 1
 36 259 l 1
 36 259 29 259 29 269 c 0
 29 273 31 286 38 310 c 0
 40 316 45 315 45 315 c 1
 287 315 l 1
 338 406 l 1
 338 406 338 409 342 409 c 0
 348 409 361 406 374 391 c 0
 379 386 377 381 377 381 c 1
 341 315 l 1
EndSplineSet
Validated: 1
EndChar

StartChar: lessequal
Encoding: 8804 8804 239
Width: 467
GlyphClass: 2
Flags: W
HStem: 6 56<38.0959 428.982>
LayerCount: 2
Fore
SplineSet
426 62 m 1
 426 62 435 63 433 51 c 0
 426 3 421 9 418 6 c 1
 36 6 l 1
 36 6 27 5 29 19 c 0
 31 33 32 37 38 57 c 0
 40 63 45 62 45 62 c 1
 426 62 l 1
441 136 m 0
 441 129 431 86 425 86 c 0
 424 86 422 87 420 88 c 2
 45 279 l 2
 30 287 27 301 27 318 c 0
 27 329 35 337 45 342 c 2
 414 529 l 2
 416 530 418 531 419 531 c 0
 422 531 429 521 436 484 c 0
 437 478 433 475 433 475 c 1
 107 310 l 1
 438 142 l 1
 438 142 441 141 441 136 c 0
EndSplineSet
Validated: 1
EndChar

StartChar: greaterequal
Encoding: 8805 8805 240
Width: 466
GlyphClass: 2
Flags: W
HStem: 6 56<33.6017 425.904>
LayerCount: 2
Fore
SplineSet
32 483 m 0
 32 501 44 531 48 531 c 0
 49 531 51 530 53 529 c 2
 423 342 l 2
 433 337 440 329 440 318 c 0
 440 301 438 287 423 279 c 2
 48 88 l 2
 43 86 42 82 37 95 c 0
 31 110 26 132 26 136 c 0
 26 140 29 142 29 142 c 1
 360 310 l 1
 35 475 l 1
 35 475 32 476 32 483 c 0
30 15 m 0
 30 16 34 62 45 62 c 2
 428 62 l 2
 430 62 434 61 434 54 c 0
 434 46 431 29 426 13 c 0
 424 7 419 6 419 6 c 1
 37 6 l 1
 37 6 30 5 30 15 c 0
EndSplineSet
Validated: 1
EndChar

StartChar: propersubset
Encoding: 8834 8834 241
Width: 457
GlyphClass: 2
Flags: W
HStem: 0 56<157.232 418.904> 354 58<153.809 418.904>
VStem: 29 66<121.847 290.191>
LayerCount: 2
Fore
SplineSet
420 56 m 1
 420 56 427 57 427 48 c 0
 427 40 424 23 419 7 c 0
 417 1 412 0 412 0 c 1
 226 0 l 2
 114 0 29 94 29 206 c 0
 29 315 107 412 216 412 c 0
 296 412 420 411 420 411 c 1
 420 411 427 411 427 402 c 0
 427 394 424 377 419 361 c 0
 417 355 412 354 412 354 c 1
 216 354 l 2
 141 354 95 281 95 206 c 0
 95 129 147 56 224 56 c 2
 420 56 l 1
EndSplineSet
Validated: 1
EndChar

StartChar: a.sc
Encoding: 65536 -1 242
Width: 531
VWidth: 0
Flags: W
HStem: -3 29<29.0705 78.6552 152.483 200.25 295.485 344.147 447.438 496.987> 169 43<205 288.999>
LayerCount: 2
Fore
SplineSet
276 455 m 1
 413 94 l 2
 422 69 427 61 435 50 c 0
 445 36 487 26 493 26 c 0
 495 26 497 16 497 11 c 0
 497 7 497 0 496 -3 c 1
 468 -1 435 3 405 3 c 0
 373 3 330 -1 298 -3 c 1
 294 1 293 26 297 26 c 0
 305 26 345 36 348 44 c 0
 349 47 349 51 349 55 c 0
 349 67 346 76 341 89 c 24
 330 119 309 164 309 164 c 1
 309 164 307 166 305 166 c 0
 287 168 265 169 244 169 c 0
 223 169 220 168 189 165 c 0
 188 165 185 164 185 164 c 1
 185 164 168 120 157 90 c 0
 149 67 147 59 147 51 c 0
 147 44 149 41 152 38 c 0
 162 31 192 26 198 26 c 0
 202 26 201 2 199 -3 c 1
 171 -1 142 3 112 3 c 0
 80 3 64 -1 32 -3 c 1
 31 -1 29 5 29 10 c 0
 29 14 31 26 34 26 c 0
 42 26 72 29 79 38 c 0
 93 56 102 75 112 100 c 2
 112 100 185 288 232 409 c 0
 242 436 256 461 268 461 c 0
 270 461 274 458 276 455 c 1
206 214 m 0
 224 213 228 212 244 212 c 0
 265 212 266 213 287 215 c 0
 288 215 289 217 289 217 c 1
 248 329 l 1
 205 216 l 1
 205 216 205 214 206 214 c 0
EndSplineSet
Validated: 1
EndChar

StartChar: tildecomb
Encoding: 771 771 243
Width: 404
Flags: W
HStem: 505 46<182.818 285.411> 552 46<58.1167 160.69>
VStem: 32 278
LayerCount: 2
Fore
SplineSet
38 513 m 0
 32 513 32 521 32 528 c 0
 32 542 39 553 46 562 c 0
 64 586 84 598 110 598 c 0
 166 598 195 551 251 551 c 0
 274 551 301 590 304 590 c 0
 307 590 310 582 310 575 c 0
 310 564 303 549 296 540 c 0
 278 515 260 505 234 505 c 0
 177 505 149 552 92 552 c 0
 69 552 45 513 38 513 c 0
EndSplineSet
Validated: 1
EndChar

StartChar: uni0302
Encoding: 770 770 244
Width: 424
Flags: W
HStem: 492 149
VStem: 80 199
LayerCount: 2
Fore
SplineSet
272 492 m 0
 261 492 206 534 179 558 c 1
 152 532 100 492 89 492 c 0
 83 492 80 510 80 515 c 1
 87 525 110 548 134 578 c 0
 147 594 160 612 171 631 c 0
 175 638 175 641 179 641 c 0
 183 641 186 637 189 631 c 0
 200 613 212 593 225 576 c 0
 251 543 278 518 279 515 c 1
 279 506 277 492 272 492 c 0
EndSplineSet
Validated: 1
EndChar

StartChar: f_f
Encoding: 61696 61696 245
Width: 701
Flags: W
HStem: -3 29<27.0058 83.5618 189.596 243.593 306.006 362.562 468.596 522.593> 372 47<42.4277 99.9985 176 378.999 455 572.625> 593 102<605.322 658.822> 642 39<235.782 340.022>
VStem: 100 76<36.9151 371.997 419.002 542.338> 379 76<36.9151 371.997 419.002 540.856>
LayerCount: 2
Fore
SplineSet
377 135 m 2xec
 377 135 379 276 379 365 c 0
 379 368 377 372 374 372 c 2
 182 372 l 2
 179 372 176 369 176 366 c 0
 176 276 176 135 176 135 c 2
 176 102 177 73 184 46 c 0
 187 35 232 26 240 26 c 0
 245 26 245 3 243 -3 c 1
 203 -1 176 2 136 2 c 0
 95 2 72 -1 31 -3 c 1
 29 -1 27 6 27 12 c 0
 27 18 29 26 31 26 c 0
 43 26 86 35 89 46 c 0
 97 77 98 100 98 135 c 2
 98 135 100 276 100 365 c 0
 100 368 98 372 95 372 c 2
 42 372 l 2
 40 372 39 374 39 378 c 0
 39 391 49 419 54 419 c 2
 95 419 l 2
 98 419 100 422 100 425 c 2
 100 438 l 2
 100 583 216 681 310 681 c 0xdc
 384 681 427 629 437 612 c 1
 476 663 528 695 578 695 c 0
 639 695 663 673 673 656 c 1
 673 623 664 593 637 593 c 0
 604 593 598 651 547 656 c 0
 481 662 455 564 455 475 c 2
 455 424 l 2
 455 422 458 419 460 419 c 2
 571 419 l 2
 576 419 576 418 576 412 c 0
 576 403 571 386 564 372 c 1
 461 372 l 2
 458 372 455 369 455 366 c 0
 455 276 455 135 455 135 c 2
 455 102 456 73 463 46 c 0
 466 35 511 26 519 26 c 0
 524 26 524 3 522 -3 c 1
 482 -1 455 2 415 2 c 0
 374 2 351 -1 310 -3 c 1
 308 -1 306 6 306 12 c 0
 306 18 308 26 310 26 c 0
 322 26 365 35 368 46 c 0
 376 77 377 100 377 135 c 2xec
391 526 m 0
 393 531 393 538 393 541 c 3
 393 545 390 555 389 558 c 0
 385 568 360 642 275 642 c 0
 209 642 176 564 176 475 c 2
 176 424 l 2
 176 422 179 419 181 419 c 2
 374 419 l 2
 377 419 379 422 379 425 c 2
 379 429 l 2
 379 460 382 498 391 526 c 0
EndSplineSet
Validated: 33
LCarets2: 1 258 
EndChar

StartChar: f_i
Encoding: 61697 61697 246
Width: 548
Flags: W
HStem: -3 29<27.0058 83.5618 189.596 243.593 298.188 356.285 459.966 517.593> 372 47<41.4277 98.9985 175.002 360.909> 416 20G<445.5 449> 656 39<230.327 317.716>
VStem: 99 76<36.4871 371.997 419.002 548.692> 369 77<36.4871 363.179>
LayerCount: 2
Fore
SplineSet
369 116 m 2xbc
 369 310 l 2
 369 318 368 341 357 357 c 0
 348 370 297 372 284 372 c 0
 181 372 l 2
 178 372 175 369 175 366 c 0
 175 276 176 135 176 135 c 2
 176 102 177 73 184 46 c 0
 187 35 232 26 240 26 c 0
 245 26 245 3 243 -3 c 1
 203 -1 176 2 136 2 c 0
 95 2 72 -1 31 -3 c 1
 29 -1 27 6 27 12 c 0
 27 18 29 26 31 26 c 0
 43 26 86 35 89 46 c 0
 97 77 98 100 98 135 c 2
 98 135 99 276 99 365 c 0
 99 368 97 372 94 372 c 2
 41 372 l 2
 39 372 38 374 38 378 c 0
 38 391 48 419 53 419 c 2
 94 419 l 2
 97 419 99 422 99 425 c 2
 99 438 l 2
 99 583 204 695 298 695 c 0
 326 695 360 687 387 673 c 0
 418 657 442 635 442 612 c 0
 442 584 425 565 397 565 c 0
 380 565 363 573 355 587 c 0
 342 610 318 656 267 656 c 0
 206 656 175 564 175 475 c 2
 175 424 l 2
 175 422 178 419 180 419 c 2
 291 419 l 0xdc
 335 419 404 421 441 433 c 0
 442 433 445 436 446 436 c 0
 452 436 451 418 451 413 c 0
 447 381 446 375 446 341 c 2
 446 135 l 2
 446 102 447 73 454 46 c 0
 457 35 506 26 514 26 c 0
 519 26 519 3 517 -3 c 1
 477 -1 448 2 410 2 c 0
 369 2 342 -1 301 -3 c 1
 296 2 296 26 301 26 c 0
 313 26 359 35 362 46 c 0
 368 71 369 102 369 116 c 2xbc
EndSplineSet
Validated: 1
LCarets2: 1 262 
EndChar

StartChar: f_f_i
Encoding: 61698 61698 247
Width: 828
Flags: W
HStem: -3 29<27.0058 83.5618 189.596 243.593 306.006 362.562 468.596 522.593 578.188 636.285 739.966 797.593> 372 47<42.4277 99.9985 176 378.999 455 639.947> 416 20G<725.5 729> 642 39<235.782 339.805> 656 39<508.175 597.922>
VStem: 100 76<36.9151 371.997 419 542.338> 379 76<36.9151 371.997 419 540.856> 649 77<36.4871 363.179>
LayerCount: 2
Fore
SplineSet
649 116 m 2xa7
 649 310 l 2
 649 318 648 341 637 357 c 0
 628 370 577 372 564 372 c 0
 461 372 l 2
 458 372 455 369 455 366 c 0
 455 276 455 135 455 135 c 2
 455 102 456 73 463 46 c 0
 466 35 511 26 519 26 c 0
 524 26 524 3 522 -3 c 1
 482 -1 455 2 415 2 c 0
 374 2 351 -1 310 -3 c 1
 308 -1 306 6 306 12 c 0
 306 18 308 26 310 26 c 0
 322 26 365 35 368 46 c 0
 376 77 377 100 377 135 c 2
 377 135 379 276 379 365 c 0
 379 368 377 372 374 372 c 2
 182 372 l 2
 179 372 176 369 176 366 c 0
 176 276 176 135 176 135 c 2
 176 102 177 73 184 46 c 0
 187 35 232 26 240 26 c 0
 245 26 245 3 243 -3 c 1
 203 -1 176 2 136 2 c 0
 95 2 72 -1 31 -3 c 1
 29 -1 27 6 27 12 c 0
 27 18 29 26 31 26 c 0
 43 26 86 35 89 46 c 0
 97 77 98 100 98 135 c 2
 98 135 100 276 100 365 c 0
 100 368 98 372 95 372 c 2
 42 372 l 2
 40 372 39 374 39 378 c 0
 39 391 49 419 54 419 c 2
 95 419 l 2
 98 419 100 422 100 425 c 2
 100 438 l 2
 100 583 216 681 310 681 c 0xd7
 384 681 427 630 437 613 c 1
 476 664 528 695 578 695 c 0
 607 695 640 686 668 672 c 0
 699 656 722 635 722 612 c 0
 722 584 705 565 677 565 c 0
 660 565 643 573 635 587 c 0
 622 610 598 656 547 656 c 0
 486 656 450 564 455 475 c 2
 455 424 l 2
 455 422 458 419 460 419 c 2
 571 419 l 0xcf
 615 419 689 421 721 433 c 0
 722 433 725 436 726 436 c 0
 732 436 731 418 731 413 c 0
 727 381 726 375 726 341 c 2
 726 135 l 2
 726 102 727 73 734 46 c 0
 737 35 786 26 794 26 c 0
 799 26 799 3 797 -3 c 1
 757 -1 728 2 690 2 c 0
 649 2 622 -1 581 -3 c 1
 576 2 576 26 581 26 c 0
 593 26 639 35 642 46 c 0
 648 71 649 102 649 116 c 2xa7
275 642 m 0
 209 642 176 564 176 475 c 2
 176 424 l 2
 176 422 179 419 181 419 c 2
 374 419 l 2
 377 419 379 422 379 425 c 2
 379 429 l 2
 379 460 383 499 391 526 c 0
 393 531 393 538 393 541 c 3
 393 545 390 555 389 558 c 0
 383 567 360 642 275 642 c 0
EndSplineSet
Validated: 33
LCarets2: 2 252 532 
EndChar

StartChar: f_l
Encoding: 61699 61699 248
Width: 569
Flags: W
HStem: -3 29<28.1875 86.2849 189.966 247.593 319.188 377.285 480.966 538.593> 372 47<42.4277 99.9985 176 293.625> 656 39<231.327 322.792>
VStem: 100 76<36.4871 371.997 419.002 548.692> 390 77<36.4871 595.367>
LayerCount: 2
Fore
SplineSet
99 116 m 2
 99 116 100 276 100 365 c 0
 100 368 98 372 95 372 c 2
 42 372 l 2
 40 372 39 374 39 378 c 0
 39 391 49 419 54 419 c 2
 95 419 l 2
 98 419 100 422 100 425 c 2
 100 438 l 2
 100 583 205 695 299 695 c 0
 329 695 367 672 393 672 c 0
 425 672 460 694 463 694 c 0
 464 694 465 694 466 694 c 0
 472 694 477 683 478 678 c 1
 478 678 467 646 467 591 c 2
 467 135 l 2
 467 102 468 73 475 46 c 0
 478 35 527 26 535 26 c 0
 540 26 540 3 538 -3 c 1
 498 -1 469 2 431 2 c 0
 390 2 363 -1 322 -3 c 1
 317 2 317 26 322 26 c 0
 334 26 380 35 383 46 c 0
 389 71 390 102 390 116 c 2
 390 501 l 2
 390 512 386 564 379 579 c 0
 369 600 319 656 268 656 c 0
 207 656 176 564 176 475 c 2
 176 424 l 2
 176 422 179 419 181 419 c 2
 292 419 l 2
 297 419 297 418 297 412 c 0
 297 403 292 386 285 372 c 1
 182 372 l 2
 179 372 176 369 176 366 c 0
 176 276 176 135 176 135 c 2
 177 102 177 73 184 46 c 0
 187 35 236 26 244 26 c 0
 249 26 249 3 247 -3 c 1
 207 -1 178 2 140 2 c 0
 99 2 72 -1 31 -3 c 1
 26 2 26 26 31 26 c 0
 43 26 89 35 92 46 c 0
 98 71 99 102 99 116 c 2
EndSplineSet
Validated: 1
LCarets2: 1 298 
EndChar

StartChar: f_f_l
Encoding: 61700 61700 249
Width: 846
Flags: W
HStem: -3 29<27.0058 83.5618 189.596 243.593 306.006 362.562 468.596 522.593 596.188 654.285 757.966 815.593> 372 47<40.4277 98 176.119 377 453.002 570.625> 642 39<233.782 337.805> 656 39<505.227 599.792>
VStem: 98 76<36.9151 371.997 419 542.338> 377 76<36.9151 371.997> 391 62<419 588.994> 667 77<36.4871 595.367>
LayerCount: 2
Fore
SplineSet
667 116 m 2xdd
 667 501 l 2
 667 512 663 564 656 579 c 0
 646 600 596 656 545 656 c 0
 484 656 453 564 453 475 c 2
 453 424 l 2xdb
 453 422 456 419 458 419 c 2
 569 419 l 2
 574 419 574 418 574 412 c 0
 574 403 569 386 562 372 c 1
 459 372 l 2
 456 372 453 369 453 366 c 0
 453 276 455 135 455 135 c 2
 455 102 456 73 463 46 c 0
 466 35 511 26 519 26 c 0
 524 26 524 3 522 -3 c 1
 482 -1 455 2 415 2 c 0
 374 2 351 -1 310 -3 c 1
 308 -1 306 6 306 12 c 0
 306 18 308 26 310 26 c 0
 322 26 365 35 368 46 c 0
 376 77 377 100 377 135 c 2
 377 135 377 276 377 365 c 0
 377 368 375 372 372 372 c 2
 181 372 l 2
 177 372 174 369 174 366 c 0
 174 276 176 135 176 135 c 2
 176 102 177 73 184 46 c 0
 187 35 232 26 240 26 c 0
 245 26 245 3 243 -3 c 1
 203 -1 176 2 136 2 c 0
 95 2 72 -1 31 -3 c 1
 29 -1 27 6 27 12 c 0
 27 18 29 26 31 26 c 0
 43 26 86 35 89 46 c 0
 97 77 98 100 98 135 c 2
 98 135 98 276 98 365 c 0
 98 368 96 372 93 372 c 2
 40 372 l 2
 38 372 37 374 37 378 c 0
 37 391 47 419 52 419 c 2
 93 419 l 2
 96 419 98 422 98 425 c 2
 98 438 l 2
 98 583 214 681 308 681 c 0xed
 382 681 425 630 435 613 c 1
 473 665 526 695 576 695 c 0
 606 695 644 672 670 672 c 1
 702 672 737 694 740 694 c 0
 741 694 742 694 743 694 c 0
 749 694 754 683 755 678 c 1
 755 678 744 646 744 591 c 2
 744 135 l 2
 744 102 745 73 752 46 c 0
 755 35 804 26 812 26 c 0
 817 26 817 3 815 -3 c 1
 775 -1 746 2 708 2 c 0
 667 2 640 -1 599 -3 c 1
 594 2 594 26 599 26 c 0
 611 26 657 35 660 46 c 0
 666 71 667 102 667 116 c 2xdd
387 558 m 0
 381 567 358 642 273 642 c 0
 207 642 174 564 174 475 c 2
 174 424 l 2
 174 422 177 419 179 419 c 2
 372 419 l 2
 375 419 376 424 377 429 c 2xed
 377 429 381 499 389 526 c 0
 391 531 391 538 391 541 c 3
 391 545 388 555 387 558 c 0
EndSplineSet
Validated: 1
LCarets2: 2 260 564 
EndChar

StartChar: f_b
Encoding: 61701 61701 250
Width: 806
Flags: W
HStem: -6 42<481.271 639.949> -3 29<27.0058 83.5 189.596 243.507> 372 47<41.4277 98.9985 175.002 292.625> 381 57<508.164 618.839> 656 39<230.327 321.792>
VStem: 99 76<36.4871 371.997 419.002 548.692> 389 77<52.3273 367.981 393.778 595.367> 690 87<124.346 307.891>
LayerCount: 2
Fore
SplineSet
98 135 m 2x6f
 98 135 99 276 99 365 c 0
 99 368 97 372 94 372 c 2
 41 372 l 2
 39 372 38 374 38 378 c 0
 38 391 48 419 53 419 c 2
 94 419 l 2x6f
 97 419 99 422 99 425 c 2
 99 438 l 2
 99 583 204 695 298 695 c 0
 328 695 366 672 392 672 c 1
 424 672 459 694 462 694 c 0
 463 694 464 694 465 694 c 0
 471 694 476 683 477 678 c 1
 477 678 466 646 466 591 c 2
 466 406 l 2
 466 401 466 389 472 394 c 0
 487 406 544 438 576 438 c 1
 716 438 777 341 777 227 c 0
 777 98 683 -6 556 -6 c 0x9f
 492 -6 452 7 431 7 c 0
 415 7 402 -8 396 -8 c 2
 395 -8 l 1
 389 -7 373 -6 373 4 c 0
 373 12 389 52 389 135 c 2
 389 502 l 2
 389 513 385 564 378 579 c 0
 368 600 318 656 267 656 c 0
 206 656 175 564 175 475 c 2
 175 424 l 2
 175 422 178 419 180 419 c 2
 291 419 l 2
 296 419 296 418 296 412 c 0
 296 403 291 386 284 372 c 1
 181 372 l 2
 178 372 175 369 175 366 c 0
 175 276 176 135 176 135 c 2
 176 102 177 73 184 46 c 0
 187 35 232 26 240 26 c 0
 245 26 245 3 243 -3 c 1
 203 -1 176 2 136 2 c 0
 95 2 72 -1 31 -3 c 1
 29 -1 27 6 27 12 c 0
 27 18 29 26 31 26 c 0
 43 26 86 35 89 46 c 0
 97 77 98 100 98 135 c 2x6f
466 326 m 2
 466 87 l 2
 466 47 517 36 584 36 c 0
 662 36 690 124 690 205 c 0
 690 328 623 381 531 381 c 0x9f
 497 381 466 360 466 326 c 2
EndSplineSet
Validated: 1
LCarets2: 1 332 
EndChar

StartChar: f_f_b
Encoding: 61702 61702 251
Width: 1084
Flags: W
HStem: -6 42<759.271 917.949> -3 29<27.0058 83.5618 189.596 243.593 306.006 362.562 468.596 522.593> 372 47<40.4277 98 176.119 377 453.002 570.625> 381 57<786.164 896.839> 642 39<233.782 337.805> 656 39<505.227 599.792>
VStem: 98 76<36.9151 371.997 419.002 542.338> 377 76<36.9151 371.997> 391 62<429.051 588.994> 667 77<52.3273 367.981 393.778 595.367> 968 87<124.346 307.891>
LayerCount: 2
Fore
SplineSet
377 135 m 2x6760
 377 135 377 276 377 365 c 0
 377 368 375 372 372 372 c 2
 181 372 l 2
 177 372 174 369 174 366 c 0
 174 276 176 135 176 135 c 2
 176 102 177 73 184 46 c 0
 187 35 232 26 240 26 c 0
 245 26 245 3 243 -3 c 1
 203 -1 176 2 136 2 c 0
 95 2 72 -1 31 -3 c 1
 29 -1 27 6 27 12 c 0
 27 18 29 26 31 26 c 0
 43 26 86 35 89 46 c 0
 97 77 98 100 98 135 c 2
 98 135 98 276 98 365 c 0
 98 368 96 372 93 372 c 2
 40 372 l 2
 38 372 37 374 37 378 c 0
 37 391 47 419 52 419 c 2
 93 419 l 2x6760
 96 419 98 422 98 425 c 2
 98 438 l 2
 98 583 214 681 308 681 c 0x1b60
 382 681 425 630 435 613 c 1
 473 665 526 695 576 695 c 0
 606 695 644 672 670 672 c 1
 702 672 737 694 740 694 c 0
 741 694 742 694 743 694 c 0
 749 694 754 683 755 678 c 1
 755 678 744 646 744 591 c 2
 744 406 l 2
 744 401 744 389 750 394 c 0
 765 406 822 438 854 438 c 1
 994 438 1055 341 1055 227 c 0
 1055 98 961 -6 834 -6 c 0
 770 -6 730 7 709 7 c 0
 693 7 680 -8 674 -8 c 2
 673 -8 l 1
 667 -7 651 -6 651 4 c 0
 651 12 667 52 667 135 c 2
 667 501 l 2
 667 521 663 564 656 579 c 0
 646 600 596 656 545 656 c 0
 484 656 453 564 453 475 c 2
 453 424 l 2x96e0
 453 422 456 419 458 419 c 2
 569 419 l 2
 574 419 574 418 574 412 c 0
 574 403 569 386 562 372 c 1
 459 372 l 2
 456 372 453 369 453 366 c 0
 453 276 455 135 455 135 c 2
 455 102 456 73 463 46 c 0
 466 35 511 26 519 26 c 0
 524 26 524 3 522 -3 c 1
 482 -1 455 2 415 2 c 0
 374 2 351 -1 310 -3 c 1
 308 -1 306 6 306 12 c 0
 306 18 308 26 310 26 c 0
 322 26 365 35 368 46 c 0
 376 77 377 100 377 135 c 2x6760
387 558 m 0
 381 567 358 642 273 642 c 0
 207 642 174 564 174 475 c 2
 174 424 l 2
 174 422 177 419 179 419 c 2
 372 419 l 2
 375 419 376 424 377 429 c 2x2b60
 377 429 381 499 389 526 c 0
 391 531 391 538 391 541 c 3x2ae0
 391 545 388 555 387 558 c 0
744 326 m 2
 744 87 l 2
 744 47 795 36 862 36 c 0
 940 36 968 124 968 205 c 0
 968 328 901 381 809 381 c 0x9260
 775 381 744 360 744 326 c 2
EndSplineSet
Validated: 1
LCarets2: 2 268 584 
EndChar

StartChar: f_k
Encoding: 61703 61703 252
Width: 836
Flags: W
HStem: -3 29<27.0058 83.5618 189.596 243.593 318.188 376.285 479.966 537.593 586.074 624.982 741.778 802.906> 372 47<41.4277 98.9985 175.002 292.625> 385 23<568.794 612.785 702.031 762.493> 656 39<230.327 322.692>
VStem: 99 76<36.4871 371.997 419.002 548.692> 389 77<36.4871 195 241 596.089>
LayerCount: 2
Fore
SplineSet
689 368 m 0xbc
 680 362 597 304 542 247 c 1
 617 166 692 73 719 53 c 1
 739 36 791 24 799 24 c 0
 802 24 803 15 803 8 c 0
 803 3 803 -1 802 -3 c 1
 762 -1 731 2 693 2 c 0
 652 2 630 -1 589 -3 c 1
 584 2 584 24 589 24 c 0
 600 24 625 30 625 37 c 0
 625 38 625 39 624 40 c 2
 478 198 l 1
 466 195 l 1
 466 135 l 2
 467 102 467 73 474 46 c 0
 477 35 526 26 534 26 c 0
 539 26 539 3 537 -3 c 1
 497 -1 468 2 430 2 c 0
 389 2 362 -1 321 -3 c 1
 316 2 316 26 321 26 c 0
 333 26 379 35 382 46 c 0
 388 71 389 102 389 116 c 2
 389 500 l 2
 389 511 385 562 378 579 c 0
 369 601 318 656 267 656 c 0
 206 656 175 564 175 475 c 2
 175 424 l 2
 175 422 178 419 180 419 c 2
 291 419 l 2
 296 419 296 418 296 412 c 0
 296 403 291 386 284 372 c 1
 181 372 l 2
 178 372 175 369 175 366 c 0
 175 276 176 135 176 135 c 2
 176 102 177 73 184 46 c 0
 187 35 232 26 240 26 c 0
 245 26 245 3 243 -3 c 1
 203 -1 176 2 136 2 c 0
 95 2 72 -1 31 -3 c 1
 29 -1 27 6 27 12 c 0
 27 18 29 26 31 26 c 0
 43 26 86 35 89 46 c 0
 97 77 98 100 98 135 c 2
 98 135 99 276 99 365 c 0
 99 368 97 372 94 372 c 2
 41 372 l 2
 39 372 38 374 38 378 c 0
 38 391 48 419 53 419 c 2
 94 419 l 2xdc
 97 419 99 422 99 425 c 2
 99 438 l 2
 99 583 204 695 298 695 c 0
 328 695 366 672 392 672 c 1
 424 672 459 694 462 694 c 0
 463 694 464 694 465 694 c 0
 471 694 476 683 477 678 c 1
 477 678 466 646 466 591 c 2
 466 241 l 1
 474 243 483 243 491 250 c 0
 579 327 615 347 615 367 c 0
 615 387 574 377 570 385 c 1
 567 394 566 406 571 408 c 1
 650 408 l 2
 685 408 714 411 759 413 c 1
 767 408 763 385 758 385 c 0
 741 385 700 375 689 368 c 0xbc
EndSplineSet
Validated: 1
LCarets2: 1 294 
EndChar

StartChar: f_f_k
Encoding: 61704 61704 253
Width: 1114
Flags: W
HStem: -3 29<27.0058 83.5618 189.596 243.593 306.006 362.562 468.596 522.593 596.188 654.285 757.966 815.593 864.074 902.982 1019.78 1080.91> 372 47<40.4277 98 176.119 377 453.002 570.625> 385 23<846.794 890.785 980.031 1040.49> 642 39<233.782 337.787> 656 39<505.227 599.994>
VStem: 98 76<36.9151 371.997 419.002 542.338> 377 76<36.9151 371.997> 390 63<429.051 592.193> 667 77<36.4871 195 241 596.089>
LayerCount: 2
Fore
SplineSet
667 116 m 2xae80
 667 501 l 2
 667 512 663 564 656 579 c 0
 647 600 596 656 545 656 c 0
 484 656 453 564 453 475 c 2
 453 424 l 2xad80
 453 422 456 419 458 419 c 2
 569 419 l 2
 574 419 574 418 574 412 c 0
 574 403 569 386 562 372 c 1
 459 372 l 2
 456 372 453 369 453 366 c 0
 453 276 455 135 455 135 c 2
 455 102 456 73 463 46 c 0
 466 35 511 26 519 26 c 0
 524 26 524 3 522 -3 c 1
 482 -1 455 2 415 2 c 0
 374 2 351 -1 310 -3 c 1
 308 -1 306 6 306 12 c 0
 306 18 308 26 310 26 c 0
 322 26 365 35 368 46 c 0
 376 77 376 100 377 135 c 2
 377 135 377 276 377 365 c 0
 377 368 375 372 372 372 c 2
 181 372 l 2
 177 372 174 369 174 366 c 0
 174 276 176 135 176 135 c 2
 176 102 177 73 184 46 c 0
 187 35 232 26 240 26 c 0
 245 26 245 3 243 -3 c 1
 203 -1 176 2 136 2 c 0
 95 2 72 -1 31 -3 c 1
 29 -1 27 6 27 12 c 0
 27 18 29 26 31 26 c 0
 43 26 86 35 89 46 c 0
 97 77 97 100 98 135 c 2
 98 135 98 276 98 365 c 0
 98 368 96 372 93 372 c 2
 40 372 l 2
 38 372 37 374 37 378 c 0
 37 391 47 419 52 419 c 2
 93 419 l 2
 96 419 98 422 98 425 c 2
 98 438 l 2
 98 583 214 681 308 681 c 0xd680
 382 681 425 630 435 613 c 1
 473 665 526 695 576 695 c 0
 606 695 645 672 670 672 c 1
 702 672 737 694 740 694 c 0
 741 694 742 694 743 694 c 0
 749 694 754 683 755 678 c 1
 755 678 744 646 744 591 c 2
 744 241 l 1
 752 243 761 243 769 250 c 0
 857 327 893 347 893 367 c 0
 893 387 852 377 848 385 c 1
 845 394 844 406 849 408 c 1
 928 408 l 2
 963 408 992 411 1037 413 c 1
 1045 408 1041 385 1036 385 c 0
 1019 385 978 375 967 368 c 0
 958 362 875 304 820 247 c 1
 895 166 970 73 997 53 c 1
 1017 36 1069 24 1077 24 c 0
 1080 24 1081 15 1081 8 c 0
 1081 3 1081 -1 1080 -3 c 1
 1040 -1 1009 2 971 2 c 0
 930 2 908 -1 867 -3 c 1
 862 2 862 24 867 24 c 0
 878 24 903 30 903 37 c 0
 903 38 903 39 902 40 c 2
 756 198 l 1
 744 195 l 1
 744 135 l 2
 745 102 745 73 752 46 c 0
 755 35 804 26 812 26 c 0
 817 26 817 3 815 -3 c 1
 775 -1 746 2 708 2 c 0
 667 2 640 -1 599 -3 c 1
 594 2 594 26 599 26 c 0
 611 26 657 35 660 46 c 0
 666 71 667 102 667 116 c 2xae80
386 558 m 0
 381 567 358 642 273 642 c 0
 207 642 174 564 174 475 c 2
 174 424 l 2
 174 422 177 419 179 419 c 2
 372 419 l 2
 375 419 376 424 377 429 c 2xd680
 377 429 381 499 388 526 c 0
 390 531 390 538 390 541 c 3
 390 545 387 555 386 558 c 0
EndSplineSet
Validated: 1
LCarets2: 2 258 546 
EndChar

StartChar: f_h
Encoding: 61705 61705 254
Width: 836
Flags: W
HStem: -3 29<27.0058 81.5041 185.633 237.314 314.188 372.285 475.966 533.593 585.188 643.285 746.966 804.593> 371 67<524.782 619.979> 372 47<38.4277 95.9985 172.002 289.625> 656 39<227.327 318.792>
VStem: 96 76<36.0232 371.997 419 548.692> 386 77<36.0652 340.628 372.048 595.367> 656 77<36.4871 331.999>
LayerCount: 2
Fore
SplineSet
386 115 m 6xde
 386 498 l 2
 386 515 382 564 375 579 c 0
 365 600 315 656 264 656 c 0
 203 656 172 564 172 475 c 2
 172 424 l 2
 172 422 175 419 177 419 c 2
 288 419 l 2
 293 419 293 418 293 412 c 0
 293 403 288 386 281 372 c 1
 178 372 l 2
 175 372 172 369 172 366 c 0
 172 276 173 135 173 135 c 2
 173 102 174 73 181 46 c 0
 184 35 226 24 234 24 c 0
 239 24 239 3 237 -3 c 1
 197 -1 176 2 136 2 c 0
 95 2 72 -1 31 -3 c 1
 29 -1 27 6 27 12 c 0
 27 18 29 24 31 24 c 0
 43 24 83 35 86 46 c 0
 94 77 95 100 95 135 c 2
 95 135 96 276 96 365 c 0
 96 368 94 372 91 372 c 2
 38 372 l 2
 36 372 35 374 35 378 c 0
 35 391 45 419 50 419 c 2
 91 419 l 2xbe
 94 419 96 422 96 425 c 2
 96 438 l 2xde
 96 583 201 695 295 695 c 0
 325 695 363 672 389 672 c 1
 421 672 456 694 459 694 c 0
 460 694 461 694 462 694 c 0
 468 694 473 683 474 678 c 1
 474 678 463 646 463 591 c 2
 463 377 l 2
 463 376 463 373 464 372 c 0xbe
 466 370 467 370 467 370 c 1
 487 389 538 438 593 438 c 3
 715 438 733 321 733 251 c 2
 733 134 l 6
 733 101 734 73 741 46 c 4
 744 35 793 26 801 26 c 4
 806 26 806 3 804 -3 c 5
 764 -1 735 2 697 2 c 4
 656 2 629 -1 588 -3 c 5
 583 2 583 26 588 26 c 4
 600 26 646 35 649 46 c 4
 655 71 656 102 656 116 c 6
 656 227 l 2
 656 333 620 371 559 371 c 0
 517 371 474 332 469 328 c 0
 467 326 463 322 463 319 c 2
 463 135 l 6
 463 102 463 73 470 46 c 4
 473 35 522 26 530 26 c 4
 535 26 535 3 533 -3 c 5
 493 -1 464 2 426 2 c 4
 385 2 358 -1 317 -3 c 5
 312 2 312 26 317 26 c 4
 329 26 375 35 378 46 c 4
 384 71 386 101 386 115 c 6xde
EndSplineSet
Validated: 1
LCarets2: 1 0 
EndChar

StartChar: f_f_h
Encoding: 61706 61706 255
Width: 1117
Flags: W
HStem: -3 29<27.0058 83.5618 189.596 243.593 306.006 362.562 468.596 522.593 595.188 653.285 756.966 814.593 866.188 924.285 1027.97 1085.59> 371 67<805.782 900.979> 372 47<40.4277 98 176.119 377 453.002 570.625> 642 39<233.782 337.787> 656 39<505.227 599.994>
VStem: 98 76<36.9151 371.997 419 542.338> 377 76<36.9151 371.997> 390 63<419 592.193> 667 77<36.0652 340.628 372.048 596.089> 937 77<36.4871 331.999>
LayerCount: 2
Fore
SplineSet
937 116 m 2xc6c0
 937 227 l 2
 937 333 901 371 840 371 c 0
 798 371 755 332 750 328 c 0
 748 326 744 322 744 319 c 2
 744 135 l 2
 744 102 744 73 751 46 c 0
 754 35 803 26 811 26 c 0
 816 26 816 3 814 -3 c 1
 774 -1 745 2 707 2 c 0
 666 2 639 -1 598 -3 c 1
 593 2 593 26 598 26 c 0
 610 26 656 35 659 46 c 0
 665 71 667 101 667 115 c 2
 667 498 l 2
 667 513 663 564 656 579 c 0
 647 600 596 656 545 656 c 0
 484 656 453 564 453 475 c 2
 453 424 l 2xcdc0
 453 422 456 419 458 419 c 2
 569 419 l 2
 574 419 574 418 574 412 c 0
 574 403 569 386 562 372 c 1
 459 372 l 2
 456 372 453 369 453 366 c 0
 453 276 455 135 455 135 c 2
 455 102 456 73 463 46 c 0
 466 35 511 26 519 26 c 0
 524 26 524 3 522 -3 c 1
 482 -1 455 2 415 2 c 0
 374 2 351 -1 310 -3 c 1
 308 -1 306 6 306 12 c 0
 306 18 308 26 310 26 c 0
 322 26 365 35 368 46 c 0
 376 77 376 100 377 135 c 2
 377 135 377 276 377 365 c 0
 377 368 375 372 372 372 c 2
 181 372 l 2
 177 372 174 369 174 366 c 0
 174 276 176 135 176 135 c 2
 176 102 177 73 184 46 c 0
 187 35 232 26 240 26 c 0
 245 26 245 3 243 -3 c 1
 203 -1 176 2 136 2 c 0
 95 2 72 -1 31 -3 c 1
 29 -1 27 6 27 12 c 0
 27 18 29 26 31 26 c 0
 43 26 86 35 89 46 c 0
 97 77 97 100 98 135 c 2
 98 135 98 276 98 365 c 0
 98 368 96 372 93 372 c 2
 40 372 l 2
 38 372 37 374 37 378 c 0
 37 391 47 419 52 419 c 2
 93 419 l 2xaec0
 96 419 98 422 98 425 c 2
 98 438 l 2
 98 583 214 681 308 681 c 0xd6c0
 382 681 425 630 435 613 c 1
 473 665 526 695 576 695 c 0
 606 695 645 672 670 672 c 1
 702 672 737 694 740 694 c 0
 741 694 742 694 743 694 c 0
 749 694 754 683 755 678 c 1
 755 678 744 646 744 591 c 2
 744 377 l 2
 744 376 744 373 745 372 c 0xaec0
 747 370 748 370 748 370 c 1
 768 389 819 438 874 438 c 3
 996 438 1014 321 1014 251 c 2
 1014 134 l 2
 1014 101 1015 73 1022 46 c 0
 1025 35 1074 26 1082 26 c 0
 1087 26 1087 3 1085 -3 c 1
 1045 -1 1016 2 978 2 c 0
 937 2 910 -1 869 -3 c 1
 864 2 864 26 869 26 c 0
 881 26 927 35 930 46 c 0
 936 71 937 102 937 116 c 2xc6c0
386 558 m 0
 381 567 358 642 273 642 c 0
 207 642 174 564 174 475 c 2
 174 424 l 2
 174 422 177 419 179 419 c 2
 372 419 l 2
 375 419 376 424 377 429 c 2xb6c0
 377 429 381 499 388 526 c 0
 390 531 390 538 390 541 c 3
 390 545 387 555 386 558 c 0
EndSplineSet
Validated: 1
LCarets2: 2 0 0 
EndChar

StartChar: f_j
Encoding: 61707 61707 256
Width: 479
Flags: W
HStem: -3 27<27.0511 76.9958 190.278 237.674> 372 47<38.4277 95.9985 172.002 357.909> 416 20G<442.5 446> 656 39<227.327 313.991>
VStem: 96 76<36.0232 371.997 419.002 548.692> 366 77<-83.5328 363.179>
LayerCount: 2
Fore
SplineSet
366 310 m 6xbc
 366 318 365 341 354 357 c 0
 345 370 294 372 281 372 c 0
 178 372 l 2
 175 372 172 369 172 366 c 0
 172 276 173 135 173 135 c 2
 173 102 174 73 181 46 c 0
 184 35 226 24 234 24 c 0
 239 24 239 3 237 -3 c 1
 197 -1 176 2 136 2 c 0
 95 2 72 -1 31 -3 c 1
 29 -1 27 6 27 12 c 0
 27 18 29 24 31 24 c 0
 43 24 83 35 86 46 c 0
 94 77 95 100 95 135 c 2
 95 135 96 276 96 365 c 0
 96 368 94 372 91 372 c 2
 38 372 l 2
 36 372 35 374 35 378 c 0
 35 391 45 419 50 419 c 2
 91 419 l 2
 94 419 96 422 96 425 c 2
 96 438 l 2
 96 583 201 695 295 695 c 0
 356 695 439 655 439 612 c 0
 439 584 422 565 394 565 c 0
 377 565 360 573 352 587 c 0
 339 610 315 656 264 656 c 0
 203 656 172 564 172 475 c 2
 172 424 l 2
 172 422 175 419 177 419 c 2
 288 419 l 0xdc
 332 419 401 421 438 433 c 0
 439 433 442 436 443 436 c 0
 449 436 448 418 448 413 c 0
 444 381 443 375 443 341 c 6
 443 68 l 6
 443 32 439 -65 404 -120 c 4
 368 -177 307 -217 270 -231 c 5
 265 -228 260 -221 258 -216 c 4
 257 -214 256 -210 257 -209 c 4
 259 -203 366 -183 366 45 c 6
 366 310 l 6xbc
EndSplineSet
Validated: 1
LCarets2: 1 0 
EndChar

StartChar: f_f_j
Encoding: 61708 61708 257
Width: 760
Flags: W
HStem: -3 29<27.0058 83.5618 189.596 243.593 306.006 362.562 468.596 522.593> 372 47<40.4277 98 174.002 377 453.002 638.909> 416 20G<724.5 728> 642 39<233.782 337.805> 656 39<506.175 594.991>
VStem: 98 76<36.9151 371.997 419.002 542.338> 377 76<36.9151 371.997 419.002 540.856> 647 77<-83.5328 363.179>
LayerCount: 2
Fore
SplineSet
377 135 m 2xc7
 377 135 377 276 377 365 c 0
 377 368 375 372 372 372 c 2
 180 372 l 2
 177 372 174 369 174 366 c 0
 174 276 176 135 176 135 c 2
 176 102 177 73 184 46 c 0
 187 35 232 26 240 26 c 0
 245 26 245 3 243 -3 c 1
 203 -1 176 2 136 2 c 0
 95 2 72 -1 31 -3 c 1
 29 -1 27 6 27 12 c 0
 27 18 29 26 31 26 c 0
 43 26 86 35 89 46 c 0
 97 77 98 100 98 135 c 2
 98 135 98 276 98 365 c 0
 98 368 96 372 93 372 c 2
 40 372 l 2
 38 372 37 374 37 378 c 0
 37 391 47 419 52 419 c 2
 93 419 l 2
 96 419 98 422 98 425 c 2
 98 438 l 2
 98 583 214 681 308 681 c 0xd7
 382 681 425 630 435 613 c 1
 474 664 526 695 576 695 c 0
 637 695 720 655 720 612 c 0
 720 584 703 565 675 565 c 0
 658 565 641 573 633 587 c 0
 620 610 596 656 545 656 c 0
 484 656 448 564 453 475 c 2
 453 424 l 2
 453 422 456 419 458 419 c 2
 569 419 l 0xcf
 613 419 682 421 719 433 c 0
 720 433 724 436 725 436 c 0xa7
 731 436 729 418 729 413 c 0
 725 381 724 375 724 341 c 2
 724 68 l 2
 724 32 720 -65 685 -120 c 0
 649 -177 588 -217 551 -231 c 1
 546 -228 541 -221 539 -216 c 0
 538 -214 537 -210 538 -209 c 0
 540 -203 647 -183 647 45 c 2
 647 310 l 2
 647 318 646 341 635 357 c 0
 626 370 575 372 562 372 c 0
 459 372 l 2
 456 372 453 369 453 366 c 0
 453 276 455 135 455 135 c 2
 455 102 456 73 463 46 c 0
 466 35 511 26 519 26 c 0
 524 26 524 3 522 -3 c 1
 482 -1 455 2 415 2 c 0
 374 2 351 -1 310 -3 c 1
 308 -1 306 6 306 12 c 0
 306 18 308 26 310 26 c 0
 322 26 365 35 368 46 c 0
 376 77 377 100 377 135 c 2xc7
387 558 m 0
 381 567 358 642 273 642 c 0
 207 642 174 564 174 475 c 2
 174 424 l 2
 174 422 177 419 179 419 c 2
 372 419 l 2
 375 419 377 422 377 425 c 2
 377 429 l 2
 377 460 381 499 389 526 c 0
 391 531 391 538 391 541 c 3
 391 545 388 555 387 558 c 0
EndSplineSet
Validated: 33
LCarets2: 2 0 0 
EndChar

StartChar: T_h
Encoding: 61709 61709 258
Width: 1077
Flags: W
HStem: -3 29<211.006 275.855 391.335 452.997 555.188 612.377 716.966 774.593 826.188 884.285 987.966 1045.59> 371 67<764.782 860.16> 615 39<91.4478 281.75 383.921 539.708> 674 20G<695 703>
VStem: 26 34<521.684 575.415> 289 87<36.9151 606.704> 626 77<36.4871 340.628 372.048 591.566> 897 77<36.4871 331.999>
LayerCount: 2
Fore
SplineSet
289 135 m 2
 289 497 l 2
 289 537 288 586 280 600 c 0
 276 608 251 615 172 615 c 0
 95 615 79 600 60 526 c 0
 59 522 55 521 50 521 c 0
 41 521 29 525 26 528 c 1
 45 671 l 1
 61 667 100 660 114 660 c 0
 203 659 253 654 333 654 c 0
 413 654 482 654 553 660 c 0
 610 665 693 694 697 694 c 0
 698 694 699 694 700 694 c 0
 706 694 712 683 713 678 c 1
 713 678 703 646 703 591 c 2
 703 377 l 2
 703 376 703 373 704 372 c 0
 706 370 707 370 707 370 c 1
 727 389 778 438 833 438 c 3
 955 438 973 321 974 251 c 2
 974 134 l 2
 974 101 975 73 982 46 c 0
 985 35 1034 26 1042 26 c 0
 1047 26 1047 3 1045 -3 c 1
 1005 -1 976 2 938 2 c 0
 897 2 870 -1 829 -3 c 1
 824 2 824 26 829 26 c 0
 841 26 887 35 890 46 c 0
 896 71 897 102 897 116 c 2
 897 227 l 2
 897 333 860 371 799 371 c 0
 757 371 714 332 709 328 c 0
 707 326 703 322 703 319 c 2
 704 135 l 2
 704 102 704 73 711 46 c 0
 714 35 763 26 771 26 c 0
 776 26 776 3 774 -3 c 1
 734 -1 705 2 667 2 c 0
 626 2 599 -1 558 -3 c 1
 553 2 553 26 558 26 c 0
 570 26 615 35 618 46 c 0
 624 71 626 101 626 115 c 2
 626 530 l 0
 626 595 588 615 511 615 c 0
 432 615 387 608 385 600 c 0
 377 572 376 538 376 500 c 2
 376 139 l 2
 376 103 378 73 385 46 c 0
 388 35 441 26 449 26 c 0
 452 26 453 17 453 11 c 0
 453 6 452 0 451 -3 c 1
 411 -1 379 2 335 2 c 0
 289 2 261 -1 215 -3 c 1
 213 -1 211 6 211 12 c 0
 211 18 213 26 215 26 c 0
 227 26 277 34 282 46 c 1
 288 69 289 117 289 135 c 2
EndSplineSet
Validated: 1
LCarets2: 1 0 
EndChar

StartChar: AE.alt01
Encoding: 61740 61740 259
Width: 890
Flags: W
HStem: -3 27<28.5562 84.1821 190.821 240.422 386.006 432.157> 2 42<567.392 775.365> 296 44<321 447.898 545.312 694.449> 616 48<565.388 734.589> 616 40<515.345 667.784> 625 31<362.753 399.939>
VStem: 28 151<2.5 60> 404 110<565.575 609.766> 454 90<218.416 292.826> 714 31<378.517 417.963> 769 32<525.07 570.505>
LayerCount: 2
Fore
SplineSet
601 616 m 6x3360
 523 616 514 601 514 590 c 6
 514 588 l 5x3360
 536 347 l 6
 537 341 553 340 572 340 c 6
 609 340 l 6
 700 340 697 345 714 411 c 4
 715 416 721 418 728 418 c 4
 735 418 742 416 745 413 c 5
 744 402 744 389 744 378 c 4
 744 326 751 273 758 221 c 5
 756 219 748 217 741 217 c 4
 734 217 728 219 726 224 c 4
 711 281 704 282 695 288 c 4
 684 295 624 296 586 296 c 4
 559 296 544 295 544 287 c 6
 544 286 l 5
 558 154 l 5
 558 154 564 84 567 67 c 4
 569 54 571 44 644 44 c 4
 682 44 741 46 770 61 c 4
 789 71 809 109 824 162 c 4
 825 166 832 168 839 168 c 4
 849 168 860 165 863 162 c 5
 845 108 825 40 818 -4 c 5
 709 -4 614 2 523 2 c 4x72e0
 456 2 389 -3 389 -3 c 5
 387 -1 386 5 386 11 c 4
 386 20 388 31 391 31 c 4
 403 31 460 41 465 50 c 4
 471 60 473 74 473 89 c 4
 473 128 456 266 454 285 c 12
 454 290 450 293 445 293 c 6
 300 293 l 14
 297 293 295 292 294 290 c 6
 211 131 l 5
 187 88 179 66 179 54 c 4
 179 30 234 24 240 24 c 4
 241 24 242 22 242 20 c 4
 242 14 238 1 236 -3 c 5xa2e0
 196 -1 178 2 134 2 c 4x62e0
 88 2 76 -1 30 -3 c 5
 29 -2 28 1 28 4 c 4
 28 12 31 24 35 24 c 4
 47 24 83 32 95 45 c 4
 155 105 150 144 402 586 c 4
 403 588 404 591 404 595 c 4
 404 607 396 625 367 625 c 4
 364 625 362 629 362 634 c 4
 362 642 366 653 369 656 c 5
 462 656 l 6xa760
 555 656 673 664 782 664 c 5
 789 614 794 574 801 530 c 5
 798 527 790 525 783 525 c 4
 776 525 770 527 769 532 c 4
 746 616 691 616 664 616 c 14
 601 616 l 6x3360
322 340 m 5
 344 339 363 339 380 339 c 4
 402 339 421 339 443 341 c 4
 446 341 448 343 448 346 c 4
 441 424 428 547 428 547 c 5
 321 344 l 5
 321 342 l 6
 321 340 322 340 322 340 c 5
EndSplineSet
Validated: 1
EndChar

StartChar: Q.alt01
Encoding: 61741 61741 260
Width: 713
Flags: W
HStem: -221 63<891.007 1120.14> -147 28<1202.47 1224.81> 614 53<273.67 447.35>
VStem: 48 98<208.303 450.578> 589 98<199.656 444.938>
LayerCount: 2
Fore
SplineSet
146 335 m 0
 146 189 229 38 375 38 c 0
 513 38 589 181 589 319 c 0
 589 464 506 614 361 614 c 0
 223 614 146 473 146 335 c 0
492 16 m 1
 564 0 565 0 642 -31 c 0
 673 -43 877 -158 1018 -158 c 0
 1100 -158 1201 -125 1215 -119 c 1
 1217 -119 l 2
 1222 -119 1226 -134 1226 -142 c 0
 1226 -145 1226 -147 1225 -147 c 0
 1181 -170 1125 -221 971 -221 c 0
 860 -221 649 -108 541 -70 c 0
 449 -37 360 -26 262 8 c 1
 137 47 48 181 48 328 c 0
 48 515 192 667 368 667 c 0
 544 667 687 515 687 328 c 0
 687 176 600 47 492 16 c 1
EndSplineSet
Validated: 1
EndChar

StartChar: zero.onum
Encoding: 63280 63280 261
Width: 501
Flags: W
HStem: -7 47<184.509 324.615> 404 48<175.891 316.214>
VStem: 29 75<129.723 324.057> 396 75<123.858 313.263>
LayerCount: 2
Fore
SplineSet
255 40 m 0
 341 40 396 124 396 215 c 0
 396 322 327 404 245 404 c 0
 159 404 104 320 104 229 c 0
 104 122 173 40 255 40 c 0
250 452 m 0
 373 452 471 349 471 224 c 0
 471 98 376 -7 252 -7 c 0
 128 -7 29 98 29 224 c 0
 29 352 124 452 250 452 c 0
EndSplineSet
Validated: 1
EndChar

StartChar: one.onum
Encoding: 63281 63281 262
Width: 272
Flags: W
HStem: -3 29<27.1875 84.9136 188.966 246.997> 404 30<25.0232 88.4453> 416 30<195.292 246.857>
VStem: 98 77<36.4871 395.191>
LayerCount: 2
Back
SplineSet
173 135 m 6
 173 102 174 73 181 46 c 4
 184 35 233 26 241 26 c 4
 246 26 246 3 244 -3 c 5
 204 -1 175 2 137 2 c 4
 96 2 69 -1 28 -3 c 5
 23 2 23 26 28 26 c 4
 40 26 86 35 89 46 c 4
 95 71 96 102 96 116 c 6
EndSplineSet
Fore
SplineSet
175 331 m 2xb0
 175 114 l 2
 175 89 178 66 183 46 c 0
 186 35 235 26 243 26 c 0
 246 26 247 17 247 11 c 0
 247 6 246 0 245 -3 c 1
 205 -1 175 2 137 2 c 0
 96 2 71 -1 30 -3 c 1
 25 2 25 26 30 26 c 0
 42 26 87 34 91 47 c 0
 97 67 98 87 98 103 c 2
 98 320 l 2
 98 345 97 366 91 386 c 0
 88 397 38 404 30 404 c 0
 27 404 25 414 25 420 c 0
 25 425 25 431 26 434 c 1xd0
 66 434 98 434 136 436 c 0
 177 438 201 442 242 446 c 1
 245 443 247 435 247 428 c 3
 247 423 246 416 244 416 c 0
 232 415 185 402 182 391 c 0
 177 371 175 352 175 331 c 2xb0
EndSplineSet
Validated: 1
EndChar

